<svg preserveAspectRatio="none" width="100%" height="100%" overflow="visible" style="display: block;" viewBox="0 0 54 54" fill="none" xmlns="http://www.w3.org/2000/svg">
<g id="Frame">
<path id="Vector" d="M49.5 4.5H4.5V22.5H49.5V4.5Z" stroke="var(--stroke-0, white)" stroke-width="4" stroke-linejoin="round"/>
<path id="Vector_2" d="M49.5 31.5H4.5V49.5H49.5V31.5Z" stroke="var(--stroke-0, white)" stroke-width="4" stroke-linejoin="round"/>
<path id="Vector_3" d="M14.625 11.25H12.375C11.7537 11.25 11.25 11.7537 11.25 12.375V14.625C11.25 15.2463 11.7537 15.75 12.375 15.75H14.625C15.2463 15.75 15.75 15.2463 15.75 14.625V12.375C15.75 11.7537 15.2463 11.25 14.625 11.25Z" fill="var(--fill-0, white)"/>
<path id="Vector_4" d="M14.625 38.25H12.375C11.7537 38.25 11.25 38.7537 11.25 39.375V41.625C11.25 42.2463 11.7537 42.75 12.375 42.75H14.625C15.2463 42.75 15.75 42.2463 15.75 41.625V39.375C15.75 38.7537 15.2463 38.25 14.625 38.25Z" fill="var(--fill-0, white)"/>
<path id="Vector_5" d="M23.625 11.25H21.375C20.7537 11.25 20.25 11.7537 20.25 12.375V14.625C20.25 15.2463 20.7537 15.75 21.375 15.75H23.625C24.2463 15.75 24.75 15.2463 24.75 14.625V12.375C24.75 11.7537 24.2463 11.25 23.625 11.25Z" fill="var(--fill-0, white)"/>
<path id="Vector_6" d="M23.625 38.25H21.375C20.7537 38.25 20.25 38.7537 20.25 39.375V41.625C20.25 42.2463 20.7537 42.75 21.375 42.75H23.625C24.2463 42.75 24.75 42.2463 24.75 41.625V39.375C24.75 38.7537 24.2463 38.25 23.625 38.25Z" fill="var(--fill-0, white)"/>
</g>
</svg>
