<svg preserveAspectRatio="none" width="100%" height="100%" overflow="visible" style="display: block;" viewBox="0 0 54 54" fill="none" xmlns="http://www.w3.org/2000/svg">
<g id="Frame">
<path id="Vector" d="M42.75 31.5H11.25C8.76472 31.5 6.75 33.5147 6.75 36V42.75C6.75 45.2353 8.76472 47.25 11.25 47.25H42.75C45.2353 47.25 47.25 45.2353 47.25 42.75V36C47.25 33.5147 45.2353 31.5 42.75 31.5Z" stroke="var(--stroke-0, white)" stroke-width="4"/>
<path id="Vector_2" d="M22.5 7.875H11.25C8.76472 7.875 6.75 9.88972 6.75 12.375V19.125C6.75 21.6102 8.76472 23.625 11.25 23.625H22.5" stroke="var(--stroke-0, white)" stroke-width="4" stroke-linecap="round"/>
<path id="Vector_3" d="M38.25 24.75C43.2206 24.75 47.25 20.7206 47.25 15.75C47.25 10.7794 43.2206 6.75 38.25 6.75C33.2794 6.75 29.25 10.7794 29.25 15.75C29.25 20.7206 33.2794 24.75 38.25 24.75Z" stroke="var(--stroke-0, white)" stroke-width="4"/>
<path id="Vector_4" d="M38.25 19.125C40.114 19.125 41.625 17.614 41.625 15.75C41.625 13.886 40.114 12.375 38.25 12.375C36.386 12.375 34.875 13.886 34.875 15.75C34.875 17.614 36.386 19.125 38.25 19.125Z" fill="var(--fill-0, white)"/>
</g>
</svg>
