<svg preserveAspectRatio="none" width="100%" height="100%" overflow="visible" style="display: block;" viewBox="0 0 29 35.9008" fill="none" xmlns="http://www.w3.org/2000/svg">
<path id="Icon" d="M14.7464 35.8669C14.585 35.9114 14.4145 35.9121 14.2527 35.8693C10.1648 34.7881 6.78078 32.4168 4.10078 28.7554C1.36693 25.0204 0 20.8729 0 16.3129V6.02759C0 5.60991 0.259589 5.23623 0.651002 5.09046L14.151 0.0628765C14.3761 -0.0209588 14.6239 -0.0209589 14.849 0.0628764L28.349 5.09046C28.7404 5.23623 29 5.60991 29 6.02759V16.3129C29 18.8629 28.562 21.3154 27.6859 23.6704C26.936 25.6863 25.9094 27.4989 24.6061 29.1082C24.2472 29.5513 23.5869 29.5671 23.1823 29.1653L18.6799 24.694C18.3539 24.3702 17.8523 24.318 17.4342 24.5085C17.096 24.6627 16.7448 24.7883 16.3805 24.8854C15.7612 25.0504 15.1344 25.1329 14.5 25.1329C12.5062 25.1329 10.7995 24.4279 9.37969 23.0179C7.9599 21.6079 7.25 19.9129 7.25 17.9329C7.25 15.9529 7.9599 14.2579 9.37969 12.8479C10.7995 11.4379 12.5062 10.7329 14.5 10.7329C16.4938 10.7329 18.2005 11.4379 19.6203 12.8479C21.0401 14.2579 21.75 15.9529 21.75 17.9329C21.75 18.5929 21.6669 19.2304 21.5008 19.8454C21.4003 20.2172 21.2695 20.5808 21.1083 20.9362C20.9202 21.351 20.9787 21.847 21.3019 22.1679L22.4837 23.3415C22.9691 23.8236 23.7837 23.6859 24.0394 23.0514C24.3779 22.2115 24.6569 21.3453 24.8766 20.4529C25.2089 19.1029 25.375 17.7229 25.375 16.3129V8.50259C25.375 8.08491 25.1154 7.71123 24.724 7.56546L14.849 3.88788C14.6239 3.80404 14.3761 3.80404 14.151 3.88788L4.276 7.56546C3.88459 7.71123 3.625 8.08491 3.625 8.50259V16.3129C3.625 19.9429 4.65208 23.2429 6.70625 26.2129C8.69577 29.0894 11.1954 31.0373 14.205 32.0565C14.3965 32.1213 14.6038 32.1223 14.7957 32.0588C15.4736 31.8342 16.1227 31.5581 16.743 31.2304C17.215 30.9811 17.6837 30.7019 18.149 30.3929C18.5592 30.1204 19.1075 30.1586 19.4569 30.5056L20.598 31.6389C21.0198 32.0577 20.9864 32.7517 20.5034 33.0981C19.7602 33.6312 18.9749 34.1111 18.1477 34.5379C17.0601 35.099 15.9264 35.542 14.7464 35.8669ZM14.5 21.5329C15.4969 21.5329 16.3503 21.1804 17.0602 20.4754C17.7701 19.7704 18.125 18.9229 18.125 17.9329C18.125 16.9429 17.7701 16.0954 17.0602 15.3904C16.3503 14.6854 15.4969 14.3329 14.5 14.3329C13.5031 14.3329 12.6497 14.6854 11.9398 15.3904C11.2299 16.0954 10.875 16.9429 10.875 17.9329C10.875 18.9229 11.2299 19.7704 11.9398 20.4754C12.6497 21.1804 13.5031 21.5329 14.5 21.5329Z" fill="var(--fill-0, #5D9DFF)"/>
</svg>
