<svg preserveAspectRatio="none" width="100%" height="100%" overflow="visible" style="display: block;" viewBox="0 0 29 35.9329" fill="none" xmlns="http://www.w3.org/2000/svg">
<path id="Icon" d="M12.5969 24.3229L22.123 14.8625C22.5168 14.4714 22.5168 13.8344 22.123 13.4434L20.9593 12.2877C20.5694 11.9004 19.94 11.9004 19.55 12.2877L13.3015 18.4931C12.9116 18.8804 12.2822 18.8804 11.8922 18.4931L9.49528 16.1127C9.10532 15.7254 8.47593 15.7254 8.08597 16.1127L6.92229 17.2684C6.5285 17.6594 6.5285 18.2964 6.92229 18.6875L12.5969 24.3229L-nan -nanL12.5969 24.3229ZM14.5 35.9329C10.301 34.8829 6.83464 32.4904 4.10078 28.7554C1.36693 25.0204 0 20.8729 0 16.3129V6.02759C0 5.60991 0.259589 5.23623 0.651002 5.09046L14.151 0.0628765C14.3761 -0.0209587 14.6239 -0.0209589 14.849 0.0628764L28.349 5.09046C28.7404 5.23623 29 5.60991 29 6.02759V16.3129C29 20.8729 27.6331 25.0204 24.8992 28.7554C22.1654 32.4904 18.699 34.8829 14.5 35.9329L-nan -nanL14.5 35.9329ZM14.5 32.1529C17.6417 31.1629 20.2396 29.1829 22.2938 26.2129C24.3479 23.2429 25.375 19.9429 25.375 16.3129V8.50259C25.375 8.08491 25.1154 7.71123 24.724 7.56546L14.849 3.88788C14.6239 3.80404 14.3761 3.80404 14.151 3.88788L4.276 7.56546C3.88459 7.71123 3.625 8.08491 3.625 8.50259V16.3129C3.625 19.9429 4.65208 23.2429 6.70625 26.2129C8.76042 29.1829 11.3583 31.1629 14.5 32.1529L-nan -nanL14.5 32.1529ZM14.5 17.9329L-nan -nanL-nan -nanL-nan -nanL-nan -nanL-nan -nanL-nan -nanL-nan -nanL-nan -nanL-nan -nanL-nan -nanL-nan -nanL-nan -nanL-nan -nanL-nan -nanL-nan -nanL-nan -nanL14.5 17.9329Z" fill="var(--fill-0, #5D9DFF)"/>
</svg>
