<svg width="29" height="36" viewBox="0 0 29 36" fill="none" xmlns="http://www.w3.org/2000/svg">
<path d="M12.5969 24.3231L22.123 14.8627C22.5168 14.4716 22.5168 13.8346 22.123 13.4436L20.9593 12.2879C20.5694 11.9006 19.94 11.9006 19.55 12.2879L13.3015 18.4933C12.9116 18.8806 12.2822 18.8806 11.8922 18.4933L9.49528 16.1129C9.10532 15.7256 8.47593 15.7256 8.08597 16.1129L6.92229 17.2686C6.5285 17.6596 6.5285 18.2966 6.92229 18.6877L12.5969 24.3231ZM14.5 35.9331C10.301 34.8831 6.83464 32.4906 4.10078 28.7556C1.36693 25.0206 0 20.8731 0 16.3131V6.02779C0 5.61011 0.259589 5.23643 0.651002 5.09066L14.151 0.0630772C14.3761 -0.0207581 14.6239 -0.0207582 14.849 0.063077L28.349 5.09066C28.7404 5.23643 29 5.61011 29 6.02779V16.3131C29 20.8731 27.6331 25.0206 24.8992 28.7556C22.1654 32.4906 18.699 34.8831 14.5 35.9331ZM14.5 32.1531C17.6417 31.1631 20.2396 29.1831 22.2938 26.2131C24.3479 23.2431 25.375 19.9431 25.375 16.3131V8.50279C25.375 8.08511 25.1154 7.71143 24.724 7.56566L14.849 3.88808C14.6239 3.80424 14.3761 3.80424 14.151 3.88808L4.276 7.56566C3.88459 7.71143 3.625 8.08511 3.625 8.50279V16.3131C3.625 19.9431 4.65208 23.2431 6.70625 26.2131C8.76042 29.1831 11.3583 31.1631 14.5 32.1531ZM14.5 17.9331Z" fill="#5D9DFF"/>
</svg>
