<svg width="29" height="36" viewBox="0 0 29 36" fill="none" xmlns="http://www.w3.org/2000/svg">
<path d="M14.7464 35.8671C14.585 35.9116 14.4145 35.9123 14.2527 35.8695C10.1648 34.7883 6.78079 32.417 4.10078 28.7556C1.36693 25.0206 0 20.8731 0 16.3131V6.02779C0 5.61011 0.259589 5.23643 0.651002 5.09066L14.151 0.0630772C14.3761 -0.0207581 14.6239 -0.0207582 14.849 0.063077L28.349 5.09066C28.7404 5.23643 29 5.61011 29 6.02779V16.3131C29 18.8631 28.562 21.3156 27.6859 23.6706C26.936 25.6865 25.9094 27.4991 24.6061 29.1084C24.2472 29.5515 23.5869 29.5673 23.1823 29.1655L18.6799 24.6942C18.3539 24.3704 17.8523 24.3182 17.4342 24.5087C17.096 24.6629 16.7448 24.7885 16.3805 24.8856C15.7612 25.0506 15.1344 25.1331 14.5 25.1331C12.5063 25.1331 10.7995 24.4281 9.37969 23.0181C7.9599 21.6081 7.25 19.9131 7.25 17.9331C7.25 15.9531 7.9599 14.2581 9.37969 12.8481C10.7995 11.4381 12.5063 10.7331 14.5 10.7331C16.4937 10.7331 18.2005 11.4381 19.6203 12.8481C21.0401 14.2581 21.75 15.9531 21.75 17.9331C21.75 18.5931 21.6669 19.2306 21.5008 19.8456C21.4003 20.2174 21.2695 20.581 21.1083 20.9364C20.9202 21.3512 20.9787 21.8472 21.3019 22.1681L22.4837 23.3417C22.9691 23.8238 23.7837 23.6861 24.0394 23.0516C24.3779 22.2117 24.6569 21.3455 24.8766 20.4531C25.2089 19.1031 25.375 17.7231 25.375 16.3131V8.50279C25.375 8.08511 25.1154 7.71143 24.724 7.56566L14.849 3.88808C14.6239 3.80424 14.3761 3.80424 14.151 3.88808L4.276 7.56566C3.88459 7.71143 3.625 8.08511 3.625 8.50279V16.3131C3.625 19.9431 4.65208 23.2431 6.70625 26.2131C8.69577 29.0896 11.1954 31.0375 14.205 32.0567C14.3965 32.1215 14.6038 32.1225 14.7957 32.059C15.4736 31.8344 16.1227 31.5583 16.743 31.2306C17.215 30.9813 17.6837 30.7021 18.149 30.3931C18.5592 30.1206 19.1075 30.1588 19.4569 30.5058L20.598 31.6391C21.0198 32.0579 20.9864 32.7519 20.5034 33.0983C19.7602 33.6314 18.9749 34.1113 18.1477 34.5381C17.0601 35.0992 15.9264 35.5422 14.7464 35.8671ZM14.5 21.5331C15.4969 21.5331 16.3503 21.1806 17.0602 20.4756C17.7701 19.7706 18.125 18.9231 18.125 17.9331C18.125 16.9431 17.7701 16.0956 17.0602 15.3906C16.3503 14.6856 15.4969 14.3331 14.5 14.3331C13.5031 14.3331 12.6497 14.6856 11.9398 15.3906C11.2299 16.0956 10.875 16.9431 10.875 17.9331C10.875 18.9231 11.2299 19.7706 11.9398 20.4756C12.6497 21.1806 13.5031 21.5331 14.5 21.5331Z" fill="#5D9DFF"/>
</svg>
