<svg width="48" height="48" viewBox="0 0 48 48" fill="none" xmlns="http://www.w3.org/2000/svg">
<rect width="48" height="48" rx="12" fill="#F3F8FF"/>
<path d="M31.941 35.6959L35.5207 23.0292C35.7612 22.1783 35.1219 21.3333 34.2376 21.3333H26.5831C26.1143 21.3333 25.7673 20.8971 25.8727 20.4403L26.2057 18.9973C26.5112 17.6737 26.6093 16.3108 26.4964 14.9571L26.4351 14.2217C26.3694 13.4328 26.0262 12.6928 25.4664 12.133C24.9543 11.6209 24.2599 11.3333 23.5357 11.3333H23.3763C22.9383 11.3333 22.5347 11.5707 22.3221 11.9535L20.55 15.1432C19.7553 16.5738 18.5706 17.7493 17.1339 18.5329L12.6949 20.9543C12.2665 21.1879 12 21.6369 12 22.1248V35.3333C12 36.0697 12.597 36.6666 13.3333 36.6666H30.6579C31.2547 36.6666 31.7787 36.2701 31.941 35.6959Z" stroke="#0168F0" stroke-width="2" stroke-linecap="round" stroke-linejoin="round"/>
</svg>
