<svg width="1046" height="763" viewBox="0 0 1046 763" fill="none" xmlns="http://www.w3.org/2000/svg">
<g clip-path="url(#clip0_823_1750)">
<path d="M143.74 355.741C144.846 356.117 146.634 357.14 147.713 357.707C149.688 362.449 150.484 363.1 155.327 365.839C161.396 365.774 163.236 367.224 168.886 367.796C173.588 368.272 179.709 365.913 184.388 365.641C189.091 365.367 194.32 367.183 199.133 366.514C206.051 365.593 210.075 362.896 216.141 360.715C220.344 359.227 227.886 360.896 231.798 359.973C239.782 358.09 240.427 356.638 249.17 356.811C254.037 360.343 258.728 360.391 264.979 361.362C268.539 364.049 271.761 365.792 275.681 367.987C275.69 371.1 276.025 376.467 274.81 379.147C270.02 381.717 270.604 384.463 269.68 388.935C271.028 390.005 272.383 391.068 273.746 392.123C275.178 398.794 274.691 401.687 270.937 407.746C268.25 412.081 267.494 414.807 271.071 419.111C275.302 424.203 280.467 432.41 287.324 434.963C289.573 435.804 294.205 432.551 296.063 431.355L299.673 432.892C300.857 434.577 303.326 438.866 304.617 439.7C311.737 444.291 319.323 446.668 327.574 449.008C331.87 450.223 335.255 452.299 340.22 453.24C345.775 454.291 350.228 454.662 355.786 454.971C358.889 455.147 365.055 452.513 366.84 453.343C372.588 456.003 371.726 462.341 379.184 465.032C381.449 469.039 381.684 470.759 382.689 475.12C386.983 476.172 387.753 476.359 391.237 478.725L397.64 477.23C398.675 474.543 399.052 472.819 401.502 470.95C405.189 470.212 406.21 474.421 407.352 476.909C410.116 475.858 413.217 474.853 416.04 473.878C416.166 472.051 416.504 470.518 416.853 468.721L420.723 467.055C420.157 464.482 419.778 461.237 419.39 458.584C423.125 461.37 427.191 463.974 431.108 466.569C432.101 472.609 434.04 476.179 438.974 480.495C442.703 483.76 440.663 485.851 441.273 490.147C442.062 495.724 444.964 503.098 447.658 508.19C446.701 516.791 445.319 517.189 450.213 525.09C448.286 529.176 445.57 534.36 441.559 537.135C432.362 543.492 437.999 542.93 437.609 548.825C436.656 550.843 431.349 552.353 428.805 553.305C426.997 550.124 421.839 542.452 416.373 544.02C412.844 545.033 413.482 551.734 412.964 554.31C412.649 555.881 412.173 557.712 411.689 559.433C402.261 556.248 399.066 553.11 391.458 547.445C374.797 547.036 374.543 548.305 360.137 555.847C355.301 558.488 350.158 558.156 344.657 558.213L337.079 567.735C332.575 569.884 329.653 571.371 324.415 571.753C318.209 572.204 312.433 572.219 306.243 571.768C303.884 569.295 302.8 567.575 300.95 564.761C301.038 561.906 301.008 558.932 301.025 556.065C298.257 555.633 296.158 555.453 293.352 555.239C293.776 552.781 293.993 550.144 294.194 547.667C290.539 547.219 281.635 546.122 278.666 544.975C272.473 542.594 262.43 535.468 255.096 536.795C249.549 537.8 243.133 549.475 240.159 553.515C239.44 554.494 239.477 554.543 238.517 554.677C235.901 553.095 233.953 550.618 232.227 548.297C234.036 546.757 239.057 542.839 238.767 541.149C237.586 534.276 219.877 538.928 215.02 538.928C210.861 538.932 207.496 538.722 204.247 538.282L203.802 538.217C199.752 535.056 198.754 533.936 193.764 532.162C190.355 532.689 186.958 533.27 183.573 533.909C178.297 527.835 172.504 521.118 162.843 521.39C161.878 519.356 160.827 516.428 159.979 514.283C153.468 512.98 152.417 512.093 146.859 509.115L140.35 497.146C137.765 497.513 135.188 497.922 132.618 498.366C129.542 494.348 125.133 486.806 120.617 485.453C116.681 484.268 109.536 475.95 106.327 472.674C105.993 470.594 105.527 468.503 105.188 466.378C101.956 465.805 98.749 465.12 95.5746 464.337C94.1847 466.634 92.8689 468.912 91.239 471.084C90.5703 471.198 87.9096 471.29 87.6661 471.114C85.1163 469.268 82.5656 465.346 80.3281 463.282C76.8354 460.063 71.0674 456.401 68.0828 453.262C63.5748 448.522 62.9966 443.706 55.986 440.373L49.616 440.369C44.6524 433.603 46.8197 427.616 52.5924 421.966C51.2805 420.304 49.9261 418.381 48.6636 416.661C49.4674 413.457 50.144 410.231 50.6923 406.989C51.4234 409.294 52.0151 412.379 52.5513 414.788H60.1072C64.6749 410.923 65.7339 410.223 67.4963 404.952C64.6897 398.201 61.8834 393.354 59.4319 386.148C62.0424 379.704 65.9743 377.901 67.816 371.659C81.7778 373.6 86.7384 376.385 89.5723 362.778C89.5165 363.045 95.4351 357.425 96.3378 356.339C98.273 356.259 98.9526 356.145 100.723 356.827C112.236 361.259 134.094 365.181 143.74 355.741Z" fill="#D5D5D5"/>
<path d="M814.273 8.65167C814.646 8.83099 814.823 9.46635 815.074 9.96307C814.897 11.7408 813.688 12.7218 812.835 14.27C811.393 16.8778 812.852 22.4416 813.801 25.1267C815.494 26.2037 817.872 27.9517 819.769 28.4024C822.039 26.5024 822.507 27.2743 825.365 27.9384C829.307 26.5021 829.298 26.1881 830 22.5139C831.94 23.2283 834.773 24.0009 836.835 24.6174C836.731 27.4485 836.8 30.6036 836.787 33.4622C840.326 39.0319 844.748 42.8358 851.288 45.5491C857.226 44.7196 858.443 42.897 862.601 39.0204C865.434 38.5491 868.254 38.0219 871.13 37.8045L873.702 33.2931L877.696 31.37L881.598 33.224C883.547 36.0804 887.38 41.4352 887.601 44.6997C888.026 51.0419 885.774 50.3312 888.792 56.2368C887.584 60.954 886.796 64.2632 888.576 69.0458C890.923 75.3443 889.654 77.9521 884.704 82.5351C883.495 88.4973 883.508 88.779 885.717 94.2859C885.327 96.1422 884.73 99.8891 883.781 101.387L882.989 101.55C881.542 100.586 880.749 99.8865 879.441 98.7603L874.963 99.8242C869.31 104.891 869.319 106.689 867.058 113.399C864.81 115.022 864.113 115.032 861.778 116.259C859.587 117.414 857.049 120.935 855.481 122.918C858.127 127.386 860.293 129.447 863.572 133.47C863.983 133.973 864.039 135.254 864.087 135.937L864.109 136.266C865.057 137.078 868.145 137.232 869.653 137.418C870.584 141.67 871.467 146.293 871.433 150.63C868.986 153.875 868.054 154.498 864.715 156.933C862.666 155.714 860.323 153.866 858.383 152.423C856.55 152.642 854.714 152.84 852.873 153.015C851.162 154.547 849.582 156.124 847.953 157.722C852.107 160.38 854.961 163.315 859.903 164.584C861.393 170.521 859.721 175.716 862.671 181.725C865.161 186.79 866.032 187.86 870.753 191.494C876.007 188.849 876.383 188.149 880.407 184.047L884.258 190.942C886.051 191.411 887.168 191.519 888.186 192.962C890.694 196.514 888.251 202.818 886.999 206.669L892.37 210.85C894.168 210.007 895.038 209.227 896.87 210.216C897.568 212.836 892.955 216.832 891.088 218.59C884.6 219.069 886.142 219.759 879.29 217.545C879.112 217.721 877.583 219.261 877.579 219.264C874.716 221.358 874.69 224.53 872.498 226.58C870.259 227.635 867.374 226.473 864.875 225.811L862.653 228.471C860.856 230.66 844.133 245.32 841.997 246.45C836.393 241.124 836.224 240.847 828.627 237.906C830.234 243.663 830.702 250.046 832.685 255.673C822.494 264.069 829.038 260.812 814.329 259.445C812.315 257.597 811.839 257.17 810.31 254.938C812.337 250.735 812.198 250.063 812.112 245.444C811.406 244.465 810.449 243.394 809.647 242.447L806.074 245.306L803.215 243.1L802.964 238.161C801.721 236.612 800.898 235.593 799.434 234.16C797.342 234.295 795.081 234.556 792.981 234.76L790.356 238.834C788.091 238.24 785.791 237.872 783.478 237.455C782.226 242.449 781.672 244.238 781.784 249.361C779.51 252.861 779.831 253.496 775.066 253.443L771.164 256.21L762.285 253.524C760.552 257.751 759.725 259.048 757.235 262.955C755.662 262.513 753.601 261.706 752.028 261.14C750.889 254.031 750.829 252.692 746.194 246.854C741.681 255.284 736.336 262.443 731.594 270.953C732.33 273.139 732.893 275.599 733.469 277.846L737.324 281.363C735.682 284.78 735.098 285.35 732.209 287.842C731.607 288.003 730.589 288.203 730.073 288.376C726.678 289.509 717.565 287.504 714.988 290.038C712.419 297.459 708.157 291.969 704.748 294.845C703.99 296.555 704.216 298.078 704.25 299.943C701.959 303.271 700.525 304.256 697.273 306.83C695.501 307.068 693.582 307.413 691.802 307.699C690.312 309.086 688.957 310.528 687.558 311.982C684.79 311.569 683.161 311.149 680.48 310.457C680.013 312.233 679.441 314.015 678.899 315.778C672.987 313.577 671.692 313.859 665.676 312.948L667.798 319.896C664.857 320.669 658.971 323.522 655.489 324.853C652.674 328.423 650.898 329.497 647.104 332.27C646.623 338.665 645.809 347.608 641.265 352.743C640.628 352.852 637.622 353.37 636.951 353.272C634.617 353.24 621.489 348.843 620.735 347.746C615.407 340 614.069 344.556 609.192 342.961C602.418 337.558 614.052 328.194 611.838 323.119C610.106 319.145 604.159 317.218 600.075 315.616C596.878 317.782 594.145 319.712 591.083 322.032C587.453 330.967 586.236 332.133 586.423 341.506C585.834 342.302 584.248 344.498 583.962 345.212C583.079 347.408 583.902 348.406 581.97 350.179C580.06 350.615 577.777 349.963 575.746 349.584C574.481 350.499 573.212 351.662 572.038 352.685C563.852 353.853 560.53 353.996 552.227 353.938C548.32 351.799 547.948 351.513 545.648 348.052C544.145 344.466 545.445 339.121 547.372 335.774C553.501 333.528 560.794 331.182 562.176 324.596C562.848 321.403 560.335 315.253 558.304 312.616C556.866 312.134 552.643 312.238 550.456 312.018C546.345 314.664 543.192 318.202 539.476 321.352C537.765 321.422 536.591 321.692 534.911 322.007C528.366 319.921 526.539 318.793 519.548 318.934C518.344 320.929 517.452 322.481 516.421 324.552L516.889 324.928C518.573 326.295 519.682 326.833 519.777 328.747C519.045 329.88 517.859 330.179 516.477 330.772L511.232 329.195L508.975 325.241C506.654 324.892 504.336 324.498 502.032 324.061C501.305 322.31 500.525 316.793 499.737 316.161C493.699 311.311 483.837 306.198 478.561 300.948C481 297.894 486.197 291.76 487.791 288.657C486.617 286.599 485.465 284.294 484.356 282.188C474.122 286.251 470.994 283.709 461.314 286.603C458.906 287.323 458.222 289.084 457.368 291.031L454.189 288.964C453.916 287.013 453.669 285.058 453.453 283.102L449.377 279.5C449.126 277.726 448.866 275.954 448.589 274.183L443.335 269.495C446.631 265.787 446.887 265.558 447.788 260.951C444.899 257.918 437.431 250.519 439.744 246.376C440.654 246.329 440.126 246.275 440.931 246.52C452.448 250.01 466.663 252.355 478.743 251.621C490.061 250.934 498.381 248.404 509.564 251.903C517.378 254.396 523.19 259.741 530.51 263.272C543.803 269.684 549.919 271.477 564.45 267.942L567.027 273.259C570.492 272.954 574.174 272.695 577.587 272.157C597.766 254.09 621.961 253.709 648.685 254.625C651.677 254.728 656.923 255.394 659.305 254.098C660.708 251.778 659.028 254.033 659.253 251.912C661.029 250.294 663.61 249.214 665.88 248.086C668.877 242.951 676.699 233.257 682.066 229.73C684.288 228.27 692.461 228.122 693.478 223.735C693.946 221.737 694.271 215.812 693.206 214.162C691.885 214.726 691.503 214.959 690.018 215.145C684.439 211.523 689.481 199.968 692.495 195.804C700.772 195.338 701.587 197.196 709.396 199.235C712.008 199.916 716.17 200.705 718.942 201.282C722.766 199.91 728.198 197.792 732.018 196.761L736.332 188.506C738.138 187.623 742.153 185.716 744.072 185.386C763.454 182.058 761.609 177.042 766.018 161.839C778.224 160.777 783.205 155.875 793.483 149.889C800.946 149.668 808.071 149.743 815.52 149.794C819.544 149.821 821.965 146.227 821.03 143.289C819.068 137.103 809.613 133.901 804.121 130.596C800.517 128.2 799.477 125.156 794.6 122.552C788.411 122.655 784.916 123.021 778.822 124.02C777.345 126.256 776.292 128.077 774.252 129.95C768.985 129.149 763.242 128.624 758.053 127.65C757.481 127.885 754.172 129.325 753.891 129.415C751.084 130.31 751.201 132.389 749.62 133.214C744.241 126.905 752.899 105.994 753.774 98.2424C754.19 94.5504 754.207 90.8306 754.35 87.1517C767.036 87.2656 765.568 89.1888 775.738 95.091C780.234 90.7427 784.335 85.9613 788.961 81.649C790.118 79.9919 794.085 78.3627 795.055 76.8038C796.814 73.9854 794.912 70.9578 793.175 69.1574C798.771 59.5614 795.497 59.3489 798.07 50.0889C798.932 46.9876 805.771 35.8372 807.88 32.0524C806.269 27.8204 806.139 26.3069 805.463 21.8459C801.556 20.3277 801.076 20.0359 796.822 20.6105C803.657 11.6334 800.534 9.93528 814.273 8.65167Z" fill="#D5D5D5"/>
<path d="M353.645 310.657C356.602 310.447 372.534 312.417 376.278 312.414C379.095 312.412 396.665 320.001 399.015 321.744C406.34 327.176 408.425 330.688 418.223 334.442C419.703 333.968 421.53 333.246 423.02 332.703L425.659 327.184C425.295 325.244 424.682 323.051 424.195 321.109C424.99 320.446 425.955 319.839 426.83 319.244C430.315 321.106 439.519 326.678 443.456 326.791C444.028 326.808 449.42 324.408 451.439 324.886C451.946 325.005 453.687 323.72 454.388 323.27C463.61 328.183 469.977 333.753 477.158 340.688C482.191 340.648 481.979 341.142 484.573 337.251C488.579 339.699 489.026 341.612 492.031 343.814C497.909 348.116 502.608 350.357 507.563 355.641L516.273 353.496C516.252 355.676 516.347 356.322 516.798 358.473C518.716 360.117 520.362 361.438 521.887 363.393C525.525 368.063 525.508 373.598 527.132 379.006C528.54 383.687 529.15 384.879 531.931 389.088C530.021 392.67 528.786 395.112 527.262 398.889L522.355 399.944L522.35 404.707C521.263 406.21 520.098 408.125 519.076 409.7L512.618 409.791C506.42 415.273 501.209 417.02 511.99 421.493C510.491 423.259 508.828 424.574 507.035 426.106C502.374 425.682 497.571 425.082 492.911 424.558C492.607 431.508 493.222 434.1 493.859 440.934C496.315 441.879 500.551 442.903 502.374 444.509C503.379 445.396 502.834 446.393 502.587 447.785C500.304 447.005 497.766 445.74 495.449 446.821C492.945 450.285 498.468 454.711 495.704 457.414C492.56 457.861 488.376 457.861 485.114 457.941C484.829 460.04 484.694 462.123 484.534 464.23C483.083 462.246 481.658 459.88 480.337 457.789L474.382 456.16C473.416 454.608 472.307 452.475 471.402 450.847C469.556 452.441 467.499 454.788 464.766 454.321C462.033 450.713 459.582 446.592 456.849 442.987C455.904 441.745 452.032 441.676 451.257 439.872C450.139 437.269 450.113 434.157 449.451 431.477C449.178 430.373 447.662 427.926 447.025 426.863L442.296 428.129C438.8 427.658 432.804 426.263 428.692 425.594L425.165 429.444C424.204 435.583 425.305 435.181 426.605 441.164C426.81 442.112 426.826 443.102 426.172 443.912L424.239 443.801L423.662 444.432C423.334 446.351 424.085 448.133 424.648 450.063L420.859 451.5C419.503 453.511 418.094 456.332 416.931 458.503C417.057 460.808 417.435 463.205 417.743 465.506L414.245 467.185C413.954 468.874 413.765 470.407 413.568 472.101L408.538 473.809L406.014 468.756L401.406 467.674L396.854 471.691C395.569 478.687 390.155 474.91 385.036 473.381C383.649 468.664 383.215 467.49 380.84 462.972C375.348 460.977 372.822 455.491 368.512 450.816C363.253 450.82 362.136 451.963 357.551 452.475C347.612 453.584 337.99 449.971 328.917 447.066C320.309 444.314 312.861 442.513 305.32 437.376C300.843 427.567 296.513 428.06 287.769 433.194C283.113 429.803 278.776 425.453 275.905 420.793C275.088 419.467 271.872 416.951 271.539 415.69C270.003 409.868 277.697 403.828 277.062 397.051C276.814 394.405 276.364 393.144 275.709 390.804L275.219 390.411C270.92 386.924 271.437 384.302 275.739 381.276C278.668 379.217 278.061 371.176 278.167 367.734C284.273 367.698 284.873 367.923 290.906 369.864C297.749 372.065 311.75 374.649 305.949 363.364C305.071 361.656 304.543 359.896 304.215 358.05C307.492 354.03 308.226 353.608 312.837 350.792C311.303 347.787 310.328 345.617 309.469 342.433C305.486 338.837 302.647 336.224 298.212 333.074L298.279 332.786L298.384 332.304C299.152 328.935 299.547 326.363 298.288 323.075L298.148 322.715L298.58 322.105C301.14 321.263 301.925 321.102 303.821 319.201C311.202 319.421 315.485 317.913 322.85 318.892C332.247 315.168 347.625 314.969 353.645 310.657Z" fill="#D5D5D5"/>
<path d="M530.259 426.137L531.216 426.282C532.1 427.184 533.334 430.755 533.724 431.798C536.804 440.002 547.233 437.299 554.15 439.222C555.077 439.478 554.735 441.565 555.073 443.251C557.351 445.663 558.871 447.739 562.272 448.958C563.454 450.801 561.691 454.895 561.02 457.039C565.845 460.602 566.382 459.574 572.164 461.313C573.368 461.676 576.491 463.197 577.756 463.817C581.355 462.039 584.699 458.53 587.588 455.82C590.182 460.155 591.252 460.124 595.908 462.903C603.306 461.856 604.592 461.997 610.721 458.377C611.249 459.646 615.49 466.775 616.456 467.295C619.691 466.688 620.934 466.89 623.464 464.983C626.045 468.205 626.673 468.427 630.394 470.824C637.107 470.289 640.49 470.319 647.06 471.279C645.67 472.429 643.011 473.947 641.365 474.952C641.178 476.691 640.828 479.983 640.308 481.596C639.043 485.51 633.252 492.341 630.186 495.354C625.439 500.01 625.023 498.817 621.874 504.925L616.2 507.582L609.114 516.348C601.803 515.74 595.817 515.208 588.476 515.273L584.651 518.542C584.478 527.976 585.985 530.816 591.945 538.324L595.601 539.964L599.17 545.426C596.696 545.098 594.219 544.543 591.78 544.039C587.185 545.614 586.661 546.317 582.88 549.134C585.587 551.47 588.25 553.848 590.858 556.267C593.119 556.887 597.203 557.754 598.368 559.433C602.024 564.708 590.897 567.307 587.016 567.414C584.37 567.491 583.105 567.162 580.883 566.669C581.061 549.146 567.556 564.654 562.666 560.954C561.773 558.951 562.038 556.053 562.618 554.012C561.28 551.191 559.621 548.16 558.17 545.358C551.144 546.81 546.328 546.89 546.588 554.184C543.327 553.041 539.662 551.501 536.423 550.22L540.975 559.677C539.875 567.762 534.668 569.696 527.439 573.255C525.339 583.175 528.366 580.725 529.09 589.723C527.539 591.501 526.846 592.196 525.062 593.802C522.913 593.259 520.756 592.751 518.591 592.273C513.12 593.932 510.851 596.975 506.918 600.725L506.043 600.595C504.124 598.267 506.654 593.496 503.656 592.697C501.707 593.313 500.949 594.33 499.542 595.698C498.892 591.031 498.65 588.649 497.32 584.031C490.585 578.389 485.392 559.456 483.88 558.657C480.12 558.355 480.857 560.365 478.128 561.688C477.734 561.875 472.723 559.341 471.839 558.932C471.402 554.517 471.254 543.695 463.692 545.17C463.501 545.209 460.933 545.663 460.994 545.939C462.254 551.554 459.673 553.03 456.195 557.242C454.934 557.624 455.566 557.625 454.241 557.124C453.622 555.801 454.059 553.469 454.202 551.936C452.253 550.625 450.239 549.505 448.186 548.328C448.823 544.478 450.586 537.055 448.909 533.546C449.139 532.062 452.214 526.512 453.072 524.826C449.568 519.627 449.347 518.53 449.936 512.445C450.447 507.177 448.199 500.281 444.838 495.916C444.539 490.789 443.292 486.451 443.591 481.355C437.795 476.963 434.504 472.123 433.403 465.522C429.571 462.639 424.808 459.421 420.806 456.672L422.851 453.186L427.695 451.638C427.25 450.074 426.708 448.763 426.913 447.181C427.851 445.976 427.388 446.363 429.402 445.923C430.463 439.291 424.21 433.526 429.727 428.289C433.17 428.484 436.405 429.015 439.692 429.94C442.841 430.827 443.084 429.967 445.838 429.765C450.118 434.191 445.401 441.343 453.093 443.66C456.06 444.554 462.18 454.428 463.328 457.047C466.607 456.73 467.538 455.961 470.457 455.418C471.748 455.95 471.506 456.206 472.32 457.685L478.544 459.608L481.247 464.31L487.237 466.267C487.276 464.142 487.445 462.009 487.588 459.887C491.105 459.948 494.626 459.925 498.143 459.822L499.867 455.701C498.905 453.794 496.796 450.942 498.563 449.298C500.508 449.058 502.769 450.048 504.726 450.682L505.58 446.447C507.1 446.064 509.17 445.262 510.682 444.723C513.029 445.942 517.04 446.741 519.687 446.462C525.252 445.877 521.419 437.257 520.583 434.631C524.278 430.686 525.62 429.134 530.259 426.137Z" fill="#D5D5D5"/>
<path d="M424.122 242.377C426.109 242.187 428.013 242.568 430.007 242.841C432.532 245.39 433.607 246.613 436.695 248.623C438.523 255.023 440.502 256.767 445.141 261.721C444.076 265.378 442.27 266.85 439.615 269.86C442.594 271.61 444.028 273.069 446.324 275.414L447.22 280.847C448.338 281.979 449.815 283.205 451.04 284.279C451.201 286.055 451.248 287.977 451.331 289.77C460.621 296.39 459.084 289.662 462.02 288.732C469.136 286.478 475.088 287.998 483.092 284.981L485.011 288.948L476.222 299.65C478.223 307.359 488.35 309.54 493.682 314.821C495.54 316.663 494.942 316.246 497.532 317.42C498.459 318.838 499.317 323.706 499.897 325.816C502.405 326.276 504.926 326.687 507.455 327.048C509.985 331.793 510.296 331.811 516.053 333.212L523.286 330.109C522.22 326.609 521.774 326.746 519.981 323.565C519.535 322.771 520.12 322.156 520.596 321.602C524.087 320.318 531.26 323.177 534.924 324.385L540.966 323.165C543.677 320.908 546.32 318.408 548.784 315.941C550.911 313.808 553.228 314.401 556.719 314.435C564.273 326.674 556.961 329.822 545.453 333.918C541.252 341.475 540.455 351.68 550.772 355.829C553.315 356.652 555.632 355.754 557.576 357.939C560.102 360.781 565.992 360.616 569.895 360.94C571.506 364.72 571.831 365.055 574.997 367.746C575.417 371.015 575.781 374.29 576.101 377.568L579.688 380.463C579.947 381.131 581.048 383.843 580.935 384.294C579.406 390.56 578.215 388.732 580.103 394.558C583.386 396.71 585.262 397.131 588.913 398.645L590.771 402.88C592.521 403.905 594.254 405.174 595.908 406.328C597.766 406.401 599.876 406.355 601.755 406.355C601.63 403.446 601.318 400.648 601.01 397.754C606.901 395.621 605.874 398.262 611.327 395.128C611.722 392.632 612.189 390.147 612.722 387.67L610.323 382.551C608.482 382.1 606.563 381.517 604.735 380.995C603.787 375.665 604.341 371.769 604.761 366.413L606.979 363.806C611.037 365.875 611.245 365.92 615.901 365.852C620.284 371.221 626.041 374.54 633.018 376.822C638.731 378.69 640.529 378.486 644.176 383.09C639.806 388.912 642.681 392.054 639.628 400.078C634.071 398.817 625.231 401.259 621.333 405.544C620.609 406.336 620.605 409.264 620.168 410.655C617.118 410.927 613.103 408.087 610.227 407.226C609.305 406.951 607.04 406.814 606.013 406.745C599.893 414.837 596.657 415.72 596.844 425.652C598.966 428.473 602.964 433.572 601.11 436.81C598.347 438.626 594.89 438.09 591.339 438.01C586.964 440.464 584.426 441.921 585.314 446.775C587.648 454.402 584.144 456.516 577.57 461.049C576.041 460.43 573.078 459.035 571.709 458.637C569.674 458.048 567.729 457.792 565.477 457.112C564.195 455.564 565.273 450.399 565.269 447.479C560.79 445.904 560.47 445.227 557.312 442.051L558.066 436.967C550.482 436.94 544.124 436.726 537.51 433.476C535.067 429.256 534.543 428.45 534.118 423.782C532.321 423.897 530.268 424.18 528.457 424.39C523.858 427.471 521.432 429.849 518.067 434.069C518.617 437.892 519.409 440.174 520.808 443.798C516.187 443.924 515.286 444.199 511.193 442.288L507.394 443.434C503.847 442.001 499.754 440.59 496.116 439.252C495.661 434.619 494.92 431.84 495.133 427.081C499.455 427.651 503.782 428.182 508.113 428.671C514.532 423.282 517.019 420.59 507.342 416.989C509.56 415.51 511.721 413.828 513.844 412.23C516.118 412.001 518.4 411.81 520.683 411.657C524.053 407.039 524.936 407.196 525.452 401.963C526.344 401.282 528.137 401.145 529.393 400.938C531.125 396.84 532.936 392.769 534.829 388.725C533.534 386.699 531.68 383.832 530.952 381.674C526.924 369.705 529.908 366.465 518.985 357.04L518.725 350.664C515.347 351.506 511.977 352.371 508.612 353.258C504.454 348.374 500.404 346.917 495.657 343.143C490.736 339.23 489.441 337.289 483.612 333.98C482.771 335.457 482.005 337.307 480.476 338.106C479.492 338.235 478.535 338.581 477.847 337.799C471.311 330.364 463.047 325.676 454.271 320.302C451.655 322.362 446.293 323.729 442.785 324.85C438.029 322.665 431.609 319.067 426.855 316.582C420.51 319.698 421.825 321.09 423.39 326.806C422.852 327.82 421.573 330.174 420.731 330.862C415.68 334.984 403.448 320.645 399.38 318.894C395.229 317.808 380.958 309.872 377.669 309.922C372.609 309.998 358.973 308.385 354.492 308.345C353.6 306.206 352.839 305.033 351.618 303.065C351.958 297.903 352.803 295.915 351.141 290.856C352.463 288.688 353.512 287.186 355.044 285.123C359.732 285.248 361.399 285.976 365.987 284.499C371.977 278.188 376.328 270.5 384.493 266.644C387.457 265.243 388.881 263.798 391.126 261.633C394.009 262.25 396.887 262.883 399.761 263.531C401.866 262.836 404.66 261.481 406.665 260.979C410.965 259.902 414.099 259.248 418.419 257.882C418.353 252.382 418.475 249.243 419.469 243.802L424.122 242.377Z" fill="#D5D5D5"/>
<path d="M446.345 535.419C449.165 537.785 444.951 544.192 446.272 547.961C447.411 551.222 448.32 551.287 451.751 553.076L451.746 558.596C462.033 562.972 461.474 549.448 465.68 547.445L466.65 547.892C468.69 550.729 468.673 555.53 469.375 558.897C469.873 561.268 475.231 563.259 478.154 564.857C479.605 563.519 480.779 562.277 482.559 561.306C484.495 562.158 484.088 564.956 484.664 566.883C486.99 574.597 492.352 581.161 495.947 588.362C497.519 591.509 495.206 597.151 499.377 598.301C500.759 597.881 501.798 596.726 502.86 595.767C502.756 598.924 502.076 600.95 504.982 603.183C510.344 604.253 511.462 597.499 516.105 595.828C521.575 593.863 525.499 598.229 529.692 593.099C534.551 587.151 528.224 582.583 528.869 576.661C529.181 573.81 535.34 572.097 537.553 570.404C538.463 569.685 542.499 564.264 543.041 563.102C543.95 561.145 542.439 557.147 541.343 555.239L541.105 554.834L542.097 554.777C544.643 556.118 546.571 556.153 548.693 557.598C549.806 556.994 548.134 551.933 550.404 549.96C551.747 548.798 553.176 548.412 555.264 548.393C561.899 548.336 557.031 560.721 562.575 564.031C566.118 566.485 571.502 560.209 575.798 560.3C579.328 560.373 578.704 565.117 578.349 567.131C577.864 569.872 573.121 571.65 570.912 572.969C569.73 573.676 567.361 572.177 566.3 571.814C560.548 571.589 544.479 570.648 542.66 577.009C540.988 582.854 545.544 590.931 552.266 592.915C553.189 592.625 554.454 590.408 555.134 589.448C557.507 589.398 559.105 589.058 560.894 590.518C565.728 594.471 560.323 601.914 559.391 606.627C559.019 608.535 559.118 610.652 559.153 612.587C559.933 613.271 566.269 618.313 566.183 618.768C565.104 624.601 558.577 632.74 564.693 638.168C566.066 639.379 570.679 636.421 572.489 636.589C578.497 637.181 574.512 643.11 577.474 646.088C582.702 648.516 591.321 644.399 594.561 644.181C596.995 645.496 596.571 649.494 596.246 651.604C595.99 653.279 594.007 654.578 592.53 655.507C582.706 659.769 589.355 660.037 580.29 655.538C578.462 654.628 576.534 656.853 574.945 658.076C570.653 661.383 566.191 665.366 561.579 668.382C560.444 669.12 556.615 668.164 555.064 667.889C554.51 668.305 549.494 672.132 549.157 672.14C544.851 672.262 540.797 670.052 536.306 669.632C533.646 670.442 530.549 676.088 526.993 676.773C524.585 675.622 520.769 671.18 518.08 669.647C515.533 668.195 511.877 673.24 509.435 674.154C507.039 675.049 503.648 673.737 500.746 674.54C494.57 680.354 502.76 696.681 502.673 702.954C499.966 704.609 492.235 701.971 490.381 699.529C490.069 696.861 487.523 692.277 485.678 690.244C481.974 689.101 479.406 695.897 474.421 695.565C462.401 694.762 463.891 687.617 458.443 681.459C457.07 679.907 447.679 679.785 444.721 677.564C444.11 674.101 454.44 664.62 456.441 661.551C453.669 660.152 442.967 662.686 438.402 656.165C439.264 654.104 439.632 650.213 440.684 647.904C441.546 646 438.861 643.944 437.328 642.663C438.861 640.423 441.438 637.751 437.583 635.576C435.318 635.679 432.007 638.03 430.097 638.34C426.342 638.948 423.041 638.764 419.255 639.823C416.605 640.565 416.34 641.444 414.61 642.055C413.73 639.861 415.958 638.229 416.153 636.925C416.314 635.075 413.348 628.94 414.864 627.384C420.742 621.356 424.198 613.271 429.134 607.017C433.085 607.774 436.977 608.76 438.298 604.28C441.035 595.006 442.17 585.067 442.928 575.526C443.01 574.528 438.865 566.711 438.107 565.446C435.47 566.015 434.097 567.598 431.466 566.428C429.974 563.787 430.479 558.091 430.528 554.93C438.35 550.686 443.054 551.891 438.805 544.738C437.588 542.682 444.132 537.888 446.345 535.419Z" fill="#D5D5D5"/>
<path d="M794.518 236.647C801.184 236.364 800.461 239.643 801.006 244.509L806.412 248.415L809.756 245.464C810.015 250.326 809.76 250.521 807.577 255.084C809.366 258.357 810.08 258.886 812.974 261.33C816.447 261.898 822.767 261.638 824.525 264.441C824.737 266.831 823.027 269.363 821.389 271.162C822.256 272.669 823.035 273.982 823.997 275.441C830.013 274.765 833.201 277.058 838.368 279.349L840.018 283.956C842.383 284.558 845.181 285.465 847.554 286.181L842.24 289.225C838.442 303.25 836.375 305.017 820.449 306.803C818.596 301.98 814.897 299.526 812.354 295.13C810.955 292.714 811.02 288.694 809.587 286.19C808.837 284.882 808.17 284.511 806.724 284.058C804.588 284.291 803.224 286.045 801.868 287.463C801.106 285.933 800.43 284.419 799.703 282.89C798.234 279.806 804.432 278.617 802.808 275.576C800.149 274.204 798.351 274.426 795.324 274.465C791.651 272.105 781.065 265.584 779.116 272.95C779.515 274.856 780.377 274.65 781.75 276.368C780.437 276.428 779.432 276.411 778.111 276.377C777.882 276.653 777.648 276.929 777.418 277.204C776.214 279.689 771.788 279.719 770.423 282.443C770.172 284.791 771.173 285.987 772.632 287.944C770.003 290.69 761.709 295.767 766.473 299.331C769.483 301.586 773.546 300.823 776.873 301.834C781.75 303.319 784.019 306.849 789.607 304.738L790.109 304.544C791.313 306.918 790.412 314.213 793.349 316.699C797.308 320.05 802.449 320.118 807.434 320.218C806.936 321.119 806.971 321.072 806.854 322.075C808.694 324.544 812.047 327.304 814.633 329.199C809.998 331.22 809.513 331.638 806.091 335.068C799.62 336.938 799.339 338.234 794.401 342.084C784.574 349.749 778.189 358.657 770.631 368.033C771.714 370.082 773.845 373.417 773.46 375.567L772.723 375.946C765.282 375.195 763.285 378.391 756.377 378.839C754.294 378.974 750.279 376.8 747.593 378.159L747.407 379.129C752.345 383.209 766.638 378.829 773.174 378.257C775.781 382.57 776.426 384.478 777.847 389.252C774.447 391.21 769.839 393.48 766.274 395.357V400.288L769.271 401.55C771.316 402.41 773.382 404.382 775.045 405.885C779.043 409.497 785.427 410.239 791.053 411.397L794.449 409.394C796.944 413.033 799.14 415.697 802.072 419.035L797.095 426.275C795.073 424.382 792.868 422.028 790.91 420.036C788.251 419.241 785.366 418.217 783.244 420.395C782.447 422.647 783.495 424.562 784.34 426.787C784.989 427.949 784.972 427.884 785.158 429.165C783.66 431.156 781.308 430.373 779.328 432.571C777.033 435.124 778.016 438.354 778.518 441.351C775.868 441.095 771.575 439.241 770.328 441.726C771.251 445.227 778.527 451.928 780.762 455.858C782.555 459.023 787.865 453.266 793.076 459.329L793.375 459.685C792.275 467.016 796.116 465.977 789.143 468.488C788.628 468.675 786.631 472.785 783.954 474.497L779.424 471.944C777.475 474.49 776.258 475.43 773.386 477.013C770.085 474.543 768.275 471.925 765.481 469.711C762.874 467.64 755.095 471.516 752.31 470.98C749.174 467.33 758.214 459.035 740.616 459.165C735.492 459.203 723.135 459.18 718.115 458.343C707.096 456.512 700.127 452.261 693.587 444.398C693.361 442.066 692.621 438.392 692.032 436.126C689.602 434.769 687.185 433.392 684.781 431.997C682.226 427.785 682.824 423.985 683.088 419.356C685.405 417.406 687.389 415.353 690.256 414.015C699.113 409.891 706.654 409.482 714.16 403.209C726.344 404.287 726.773 404.52 737.965 400.346V395.12L741.737 392.112C740.36 387.888 741.681 377.7 742.387 373.174C740.767 371.154 739.381 369.916 737.454 368.122C738.68 365.998 738.822 365.61 740.75 363.793C741.859 357.575 746.597 349.506 749.698 343.659C745.61 337.35 744.873 337.538 737.8 333.763C736.332 330.111 737.393 320.556 739.91 317.788C741.746 317.025 743.522 317.023 745.562 316.843C749.339 311.465 750.292 306.065 747.896 300.051C743.886 299.163 740.585 298.692 737.969 295.573C737.692 294.099 737.545 294.764 738.407 293.505C739.871 292.537 741.326 292.544 743.184 292.307C744.172 291.193 745.302 290.034 746.329 288.938L744.934 286.526C740.94 279.584 736.588 280.337 734.392 271.33C738.684 263.906 742.586 258.177 746.97 251.097C748.715 255.401 749.105 258.257 749.863 262.736C750.85 263.139 751.842 263.531 752.843 263.912C760.05 266.634 761.557 261.289 763.896 256.437L771.71 258.683C772.359 258.231 773.013 257.783 773.667 257.337C776.539 255.35 776.613 255.305 780.372 255.352L784.396 249.871C784.305 245.458 784.53 244.191 785.401 239.865L791.629 241.093L794.518 236.647Z" fill="#D5D5D5"/>
<path d="M704.016 590.771C706.975 592.632 705.987 595.484 705.706 598.363C706.758 599.303 708.222 600.396 709.361 601.302C708.235 606.348 705.974 610.499 702.669 614.983C702.089 615.404 700.694 615.671 700.508 616.363C699.997 618.282 699.36 622.571 701.79 623.577C703.354 622.923 706.282 620.419 708.244 619.246L709.041 619.414C709.838 620.897 709.5 623.397 709.474 625.205C711.549 626.367 713.446 626.96 715.707 627.755C717.751 626.834 720.016 625.587 722.216 625.381C724.512 626.409 724.252 629.188 725.82 632.564C725.097 633.638 723.581 636.597 722.94 637.262C717.43 642.969 714.788 649.597 711.02 656.333L711.752 662.453L698 668.952C697.619 670.049 697.134 671.161 696.688 672.243C697.104 673.065 697.498 673.898 697.87 674.735C698.386 675.928 698.607 676.62 698.009 677.786C695.986 678.825 694.453 678.164 692.075 677.671C691.46 679.968 691.274 681.734 690.988 684.078L684.396 684.097C683.447 685.427 682.442 686.842 681.628 688.233C680.602 689.988 680.528 691.497 679.133 693.049C677.942 692.575 676.699 690.458 675.92 689.364C673.589 691.914 668.86 698.409 666.083 699.529L665.442 699.284C664.45 697.682 664.628 698.504 664.827 696.735C663.809 695.836 660.483 695.863 658.798 695.748C657.027 692.755 654.818 689.487 652.916 686.52C652.548 688.65 652.591 691.566 651.309 692.942C649.789 693.608 648.031 693.114 646.276 692.858L643.305 696.096C640.139 694.024 636.994 691.926 633.876 689.793L627.34 692.407C624.863 690.871 622.225 689.41 619.561 688.145C611.739 684.429 609.37 684.032 609.742 676.054L613.913 672.357L613.259 666.23C610.054 666.501 607.026 666.57 603.808 666.658C601.937 665.687 600.083 664.693 598.238 663.676C595.211 663.569 589.554 663.856 587.575 661.83C588.523 659.219 592.959 658.03 595.271 656.276C596.519 655.331 597.987 653.791 599.092 652.675C598.472 647.541 598.897 645.702 596.302 641.031C587.185 643.126 589.325 644.64 578.427 644.464C578.198 642.212 578.258 638.726 578.224 636.375C575.993 635.228 574.988 634.907 572.632 634.135C569.448 634.854 568.266 636.256 565.52 635.236C560.873 630.068 571.19 627.682 575.309 625.993C580.433 626.62 583.464 628.152 588.354 629.07C589.992 629.376 595.618 629.25 597.571 629.215L600.434 625.675C606.637 623.298 615.325 618.63 619.076 613.634L622.203 614.792C622.714 615.446 624.915 618.382 625.707 618.386C630.433 618.412 635.626 619.983 640.221 620.068C641.3 619.246 641.612 617.873 642.075 616.631L646.32 613.73L653.094 614.613C649.291 610.041 652.31 609.169 656.827 607.074C662.874 604.269 666.785 606.103 669.856 600.056C671.168 601.375 672.71 602.644 674.139 603.879C680.177 600.415 679.333 599.322 686.445 600.939C689.957 601.734 692.695 596.428 694.215 593.944C697.104 592.09 698.494 594.414 701.582 593.603C703.155 592.663 703.172 592.361 704.016 590.771Z" fill="#D5D5D5"/>
<path d="M690.468 511.401C692.742 511.845 694.522 511.642 696.918 512.338C700.578 513.4 704.302 515.197 707.871 516.241C710.297 516.948 713.576 516.952 716.127 518.014C719.449 519.394 724.148 522.647 727.241 523.771C730.095 524.807 735.929 517.403 738.485 516.267L739.104 516.627C739.849 518.84 739.446 520.82 740.248 523.462L740.434 524.077C748.836 520.671 754.173 513.5 753.111 526.879C753.991 528.232 754.783 529.731 755.567 531.134C757.841 531.81 760.297 532.781 762.532 533.603C763.255 539.004 764.42 541.761 766.417 546.852C762.311 550.943 758.66 555.599 755.199 560.128C755.675 563.435 755.784 566.011 755.909 569.356C757.508 567.854 759.348 566.317 761.02 564.861C760.739 571.187 760.695 576.038 763.385 582.067C764.784 585.197 769.466 585.836 768.219 588.611C766.976 589.169 766.547 589.295 765.525 590.178C765.438 591.642 765.261 590.966 766.118 592.269C767.647 592.965 768.92 593.32 769.644 594.658C770.324 598.535 767.132 603.068 765.048 606.451L762.22 608.16L750.807 603.6C745.302 604.257 744.531 605.228 741.075 608.944C742.543 610.908 747.212 616.352 745.081 618.37C742.21 618.561 737.333 615.186 734.751 613.676C732.616 612.847 731.312 611.933 729.129 612.992C727.89 614.827 728.35 617.288 728.458 619.498L725.04 622.812C719.652 622.736 715.52 626.757 712.263 623.615C711.717 621.887 712.436 619.98 712.701 617.984C711.518 616.558 707.746 617.923 705.086 616.788C704.315 613.882 712.385 605.859 712.016 601.688C711.843 599.723 710.548 599.158 708.764 597.751C707.663 595.717 711.146 588.405 703.029 588.848C701.647 589.395 701.37 590.209 700.625 591.401C687.038 590.985 694.778 592.372 688.121 597.85C685.925 599.655 683.001 595.22 674.59 601.375C666.404 593.125 665.464 592.942 669.319 582.938C669.908 581.409 669.314 577.326 667.946 575.797C664.84 574.1 662.831 576.428 659.491 576.264C658.98 574.891 659.378 574.62 659.79 572.946C662.501 570.732 664.321 569.846 667.469 568.148C666.625 564.796 665.091 560.839 664.975 557.445C664.901 555.327 665.815 554.979 667.318 553.668C667.283 551.94 665.603 547.682 665.135 545.04C663.303 534.742 665.923 529.096 672.883 520.962L678.176 518.947L681.308 520.663C684.344 520.751 687.683 520.446 690.728 520.228C690.386 517.751 689.26 514.28 689.411 512.059L690.468 511.401Z" fill="#D5D5D5"/>
<path d="M682.542 313.398C684.937 313.611 686.488 313.312 687.597 315.364C687.354 317.379 682.633 320.989 680.58 323.173C685.037 331.262 681.953 331.515 675.985 338.275C676.067 340.339 676.34 342.48 676.561 344.543C676.812 344.763 677.063 344.985 677.31 345.209C681.944 349.396 682.226 350.331 682.165 355.891C680.342 356.998 678.349 358.429 676.578 359.639C675.348 371.603 676.314 376.794 680.099 387.953C678.25 395.158 676.21 402.727 674.876 410.002C674.399 412.601 674.898 414.891 675.309 417.498L680.472 419.7C678.952 429.425 680.485 432.555 689.819 437.54C690.304 440.063 690.676 442.215 690.979 444.757L688.463 446.818C679.766 444.016 675.287 446.997 664.68 444.658L662.679 447.915C666.594 453.526 672.775 453.828 673.715 457.785L673.052 458.603C671.238 459.413 669.232 459.18 667.119 459.165L662.978 462.769C663.879 467.116 664.087 468.19 666.677 471.925C667.235 484.853 655.97 472.074 651.682 470.021C646.216 467.41 637.419 468.549 631.212 468.61L627.462 466.451L624.165 461.305C614.03 469.054 616.495 458.075 611.232 456.336C609.495 456.374 609.569 456.405 607.971 457.085C604.216 459.612 601.4 459.623 596.813 460.69L591.23 457.318C589.381 454.574 588.454 447.892 587.506 444.295C588.935 441.97 590.117 441.42 592.621 439.994C597.342 440.013 599.746 440.113 604.402 439.428C603.774 432.444 603.891 431.091 599.858 425.074L599.854 423.981C599.806 419.115 603.042 412.429 607.884 409.616C609.552 408.645 618.877 413.174 621.38 414.073C623.884 413.817 626.942 413.473 628.237 411.362C627.834 409.019 625.244 408.411 623.031 407.471C628.653 402.601 633.317 400.609 641.252 402.979C643.708 395.395 644.241 395.621 644.068 387.544L647.212 383.151C646.285 381.922 643.448 378.037 642.24 377.645C632.776 374.569 624.655 371.811 617.768 364.546C618.47 360.029 619.418 354.579 620.505 350.165C629.341 353.752 633.148 356.204 642.721 354.62C647.567 349.029 648.966 340.368 649.828 333.36C658.764 326.499 657.98 324.608 670.895 321.333C670.341 319.374 669.826 317.406 669.353 315.43C674.269 316.448 676.11 317.101 680.87 318.772C681.334 317.08 682.009 315.099 682.542 313.398Z" fill="#D5D5D5"/>
<path d="M692.236 446.756C695.727 450.422 700.872 456.202 705.983 456.745C708.824 456.691 712.961 460.292 715.222 460.464C726.193 461.302 738.238 461.913 749.174 462.185C749.694 465.292 748.468 471.225 751.375 473.136C754.346 473.912 760.319 471.844 763.641 470.992C767.067 474.658 768.752 476.634 773.178 479.226C776.894 478.083 777.544 477.372 780.143 474.906C784.431 477.28 785.769 478.974 789.091 482.211C791.777 482.536 796.008 482.414 796.948 484.757C796.502 486.531 794.774 488.163 793.466 489.673C796.355 494.39 803.354 506.004 802.549 511.004C801.565 511.711 800.036 511.141 798.646 511.439C797.412 511.699 793.154 514.268 792.257 514.417C785.626 515.522 785.358 514.792 779.277 517.391L777.613 520.445H769.536C764.646 522.785 758.837 528.783 757.018 528.844C754.108 526.298 758.149 522.12 754.372 518.033C749.924 513.217 745.125 520.488 742.374 520.208C742.032 515.931 742.716 514.723 738.121 512.601L737.558 512.345C735.479 516.004 735.08 516.26 731.507 518.63C730.784 519.272 728.358 521.588 727.592 521.313C724.439 520.182 720.605 517.311 717.565 516.011C715.724 515.224 710.171 514.803 708.642 514.283C697.03 510.312 698.347 508.939 686.02 510.033L687.792 518.27C685.557 518.309 684.634 518.366 682.438 518.706L677.903 516.191C667.197 520.965 666.053 523.848 662.484 533.527C658.56 527.284 655.156 524.272 649.863 518.836C649.243 513.24 649.399 512.689 646.19 507.873L647.338 504.253C657.603 504.192 663.636 504.092 672.368 499.123C675.162 497.529 676.613 497.227 679.311 494.906C682.174 487.987 679.857 484.639 675.144 479.237C672.957 478.771 671.29 478.236 669.18 477.586V471.003C663.125 464.069 665.442 461.37 674.529 461.462L678.025 457.746C678.029 457.75 676.886 456.558 676.929 456.634C675.365 454.096 666.33 449.841 665.85 447.658L666.348 447.284C676.418 449.061 679.619 446.745 689.074 449.26L692.236 446.756Z" fill="#D5D5D5"/>
<path d="M884.301 146.095C885.735 150.082 885.137 150.608 888.073 154.521C892.703 160.904 897.685 164.698 906.221 160.77C909.466 159.278 912.926 158.489 916.205 159.753C917.756 160.35 920.177 158.344 921.97 157.609C924.807 159.507 925.158 166.162 930.329 166.375C933.651 166.511 932.581 163.41 933.924 162.787C935.843 161.895 940.716 162.082 942.834 162.066C944.402 164.603 944.341 164.334 944.397 167.328L944.406 168.029C946.506 171.33 951.002 169.126 954.004 169.7C954.307 169.758 958.201 172.354 958.751 172.72C959.864 175.155 959.418 176.211 960.159 178.37C961.341 179.29 964.659 179.754 966.422 180.154C967.128 179.171 970.454 175.338 969.778 174.038C969.051 172.632 968.085 171.66 969.402 170.641C972.516 170.499 971.026 175.889 972.524 176.715C977.648 179.538 981.555 182.608 985.553 186.789C986.926 188.229 993.176 186.676 994.38 184.999C994.293 183.236 993.011 181.338 992.11 179.675C993.86 177.91 996.035 176.392 998.066 174.869C1001.61 177.068 1002.96 178.68 1006.39 175.882C1008.79 175.946 1018.06 182.242 1021.5 181.48C1022.46 181.268 1022.64 181.291 1023.5 181.577C1024.2 183.88 1023.83 187.531 1024.18 190.413L1024.25 190.911C1021.74 192.117 1019.13 193.497 1016.64 194.764C1018.54 196.159 1022.21 198.602 1022.59 200.658C1021.87 201.627 1021.68 201.426 1020.19 201.95C1018.21 201.78 1011.86 194.97 1010.18 193.318C1007.97 193.761 1006.49 194.037 1004.2 194.283C1003.57 197.327 1003.33 202.615 1003.1 205.861C998.711 209.503 996.39 211.873 992.825 216.16C988.801 221 981.945 219.168 976.236 219.452L975.985 219.896L976.843 221.099C981.494 223.631 984.383 226.436 988.242 229.802C988.065 230.882 987.922 231.577 987.649 232.64C985.67 233.692 974.335 232.165 971.606 231.63C968.916 231.102 963.424 229.032 960.674 229.011C959.297 229.59 957.789 230.54 957.114 231.747C953.904 237.486 951.08 243.599 947.862 249.363C947.29 245.961 947.711 242.47 944.168 240.131C942.154 238.798 940.122 240.051 938.156 238.844C936.701 236.744 937.346 227.266 937.186 223.971C931.564 222.419 929.077 218.811 925.911 214.656C926.102 211.314 927.042 208.475 923.23 206.432C921.805 205.669 921.615 205.471 919.969 205.767C918.509 207.219 919.133 210.845 917.21 211.716C909.548 210.043 916.123 204.976 905.463 207.805C897.555 200.983 898.46 206.966 893.362 207.736C891.296 207.31 891.768 207.263 889.966 205.804C892.478 198.76 892.652 196.918 889.836 190.114L886.085 188.89C884.145 185.402 883.352 183.213 879.978 180.74C877.206 183.846 874.989 186.603 871.346 188.912C861.596 181.551 864.589 173.439 862.198 163.269C856.884 161.389 856.317 160.688 851.851 157.358C857.079 152.187 859.461 157.394 865.226 159.569C867.842 157.605 873.663 153.797 873.979 150.524C874.062 149.701 873.932 149.821 874.213 148.899L875.461 149.334C877.687 148.986 882.386 147.2 884.301 146.095Z" fill="#D5D5D5"/>
<path d="M748.026 606.287C752.765 605.996 757.967 608.749 762.293 610.626L767.5 607.678C768.375 608.829 770.787 613.481 771.437 613.607C772.368 613.791 779.363 609.429 782.3 609.479L782.802 610.022C782.386 613.114 774.729 618.921 772.385 622.633C774.148 625.358 774.993 626.081 777.444 628.221C781.823 624.169 784.136 625.003 789.992 623.129C793.028 622.158 796.259 620.733 799.166 619.448C802.154 621.168 802.812 621.639 805.351 623.814C806.923 623.305 808.603 622.892 809.877 621.967C810.639 620.74 810.163 619.578 809.868 618.145C814.697 618.011 819.535 618.091 824.369 618.129C830.177 623.015 830.047 624.49 832.408 631.218C835.288 633.217 838.584 636.876 841.88 638.022C843.067 638.435 842.318 637.992 843.756 638.741C844.05 640.01 844.146 640.033 843.743 641.321C842.223 642.124 840.85 641.612 838.355 641.887C835.916 646.597 831 644.337 830.242 646.788C828.263 653.145 821.441 656.153 815.243 659.276C814.641 659.578 811.544 657.231 808.794 657.766C806.546 658.963 806.143 661.757 805.433 664.055C802.717 661.364 797.849 658.393 793.331 659.678C791.07 660.324 792.773 662.988 790.538 664.28C789.095 663.971 788.745 663.325 787.805 662.285L780.801 664.303C782.131 665.221 782.564 665.477 783.629 666.604C784.049 668.218 784.132 667.472 783.508 668.936C782.257 669.873 778.442 667.228 776.5 667.5C774.534 667.776 774.438 670.965 772.663 671.203L765.421 659.605C763.697 659.441 762.198 659.131 760.518 658.81C760.457 663.833 761.124 668.791 761.128 673.795C761.133 676.073 761.315 678.26 758.603 678.822C757.347 678.516 757.425 678.474 756.433 677.686C754.614 676.436 752.652 674.789 750.915 673.413C750.582 676.008 750.287 678.608 750.023 681.211C747.944 681.838 745.57 682.38 743.439 682.912L740.577 686.998C738.679 686.608 734.162 685.882 732.334 686.073C728.25 686.501 729.922 688.256 728.973 689.391L727.544 689.28C725.538 687.572 725.027 687.128 722.39 686.165L719.332 690.58C707.473 695.672 705.151 698.244 691.707 698.015C692.417 699.743 693.747 702.036 692.755 703.688C691.144 703.845 690.62 703.787 689.242 704.575C688.289 705.71 688.584 707.174 688.632 708.653L697.693 715.66C696.432 716.933 695.397 718.348 694.31 719.743C691.391 719.774 688.463 720.553 686.431 719.128C685.414 716.467 685.149 715.974 683.127 713.772L682.646 713.252C682.711 710.129 682.182 709.559 680.766 706.677C682.542 697.354 679.926 695.205 685.864 686.555H693.019C693.474 684.563 693.799 682.342 694.15 680.316C696.125 680.756 697.862 680.817 699.889 680.966C700.391 679.395 700.867 677.82 701.314 676.234L698.949 671.673C703.735 669.039 709.309 666.337 714.234 663.825C713.71 650.997 721.424 643.237 728.817 632.812C726.959 629.112 726.725 628.504 726.803 624.513C728.245 623.183 729.649 621.746 731.035 620.362V614.899C735.175 616.1 745.614 623.745 748.641 620.113C749.213 616.715 746.168 611.86 744.262 608.989C745.363 608.011 746.77 607.128 748.026 606.287Z" fill="#D5D5D5"/>
<path d="M626.136 533.026C629.883 533.848 626.872 537.946 630.047 539.773C636.518 543.5 634.768 534.605 640.356 534.517C643.743 536.654 644.561 546.849 646.48 550.404C647.572 552.43 648.745 550.385 651.227 551.046C652.358 551.952 652.449 553.42 652.756 554.807C658.413 557.151 657.681 557.204 660.279 552.548C660.873 551.485 662.731 550.495 664.173 551.531C664.589 553.328 664.494 552.54 663.125 554.559C661.068 557.594 663.606 563.81 664.65 567.258C661.462 568.989 659.764 569.991 657.161 572.334C656.78 575.297 656.637 577.223 656.581 580.205C659.227 579.196 663.939 576.864 666.608 578.424C669.284 582.892 660.271 588.592 667.833 598.428C667.456 599.112 666.226 601.394 665.72 601.577C660.591 603.462 655.467 604.311 650.98 607.552C650.348 608.011 648.997 610.415 648.091 611.512C643.227 611.879 640.551 613.603 638.987 617.839C636.639 618.821 634.166 616.467 632.239 616.214C630.81 616.031 628.921 616.551 626.803 616.371C625.439 615.457 625.162 614.536 624.391 613.114L618.266 611.126C614.043 616.665 605.779 621.226 598.975 624.081L596.268 627.25C591.131 627.319 588.983 627.751 584.391 625.97C580.311 624.429 578.869 624.311 574.512 623.707C571.142 625.503 569.353 626.287 565.65 627.35C566.854 623.726 567.924 621.597 569.635 618.187C566.724 615.958 564.147 613.986 561.41 611.574C561.323 605.45 564.095 601.096 566.33 595.381C565.065 592.919 563.831 590.446 562.623 587.965C557.767 586.638 555.082 585.675 552.067 589.83L547.554 587.632C545.596 583.554 545.168 582.919 544.436 578.63L546.982 575.652C554.731 573.412 562.22 572.908 569.947 575.354C574.477 573.649 576.422 572.728 579.965 569.647C581.697 567.969 584.5 570.278 586.488 570.121C592.625 569.632 596.584 567.77 601.21 564.429C601.6 562.667 602.093 561.191 602.643 559.471L601.582 558.573C598.169 555.637 596.727 555.587 592.123 554.471C590.55 552.632 588.363 551.44 587.627 549.475C587.913 548.695 587.757 548.638 588.29 548.255C594.778 543.573 595.085 550.159 601.223 550.591C602.622 550.281 602.851 549.781 603.735 548.752L604.051 548.381L604.813 548.412C605.285 549.18 605.307 549.318 605.931 549.983L611.137 549.991C614.004 546.157 610.422 547.028 614.446 542.754C616.789 543.186 618.955 543.202 621.333 543.286C625.803 538.271 624.014 538.947 625.967 533.485L626.136 533.026Z" fill="#D5D5D5"/>
<path d="M828.644 507.556C829.653 507.923 833.746 511.206 834.855 512.059C841.387 512.521 842.34 512.189 847.745 515.304C843.184 522.923 851.041 526.726 854.831 532.628C857.044 536.065 853.675 535.66 852.795 537.823C853.09 539.089 853.523 540.113 853.042 541.279C845.584 545.667 847.217 549.972 838.169 545.606C827.618 548.565 828.012 554.777 829.428 562.965C829.801 565.121 824.027 568.244 822.221 569.509C816.928 573.221 820.909 576.573 824.231 579.75C821.177 581.719 819.86 582.625 817.738 585.289L817.764 585.912C817.911 589.719 816.521 591.042 813.407 593.714C809.11 597.403 812.614 598.852 810.024 602.743C810.115 602.602 811.085 604.769 811.124 605.385C809.821 606.841 807.391 608.018 805.559 609.07C806.732 612.128 807.534 617.166 807.495 620.396L806.724 620.855C804.506 620.603 800.231 616.914 798.672 617.376C794.83 618.523 779.095 625.66 775.876 623.37C775.85 621.386 777.756 619.834 779.229 618.263C781.854 615.805 786.977 611.776 784.673 608.083C780.84 605.419 775.885 609.07 772.814 611.061L768.708 604.918C771.112 600.258 771.753 599.211 772.16 594.207C771.19 593.057 769.964 591.914 769.752 590.538C773.07 584.276 766.291 584.341 764.273 578.416C762.683 573.756 763.922 569.666 763.346 565.155C762.87 561.432 759.829 564.016 758.045 563.03L757.62 560.79C759.898 557.915 766.274 549.563 768.998 547.624C767.608 542.548 765.945 537.296 764.429 532.235C763.004 531.294 761.696 530.759 760.132 530.048C763.272 527.407 766.265 524.704 770.133 522.946H779.276L781.303 519.429C786.38 516.604 787.207 518.393 790.85 517.185C798.369 514.692 798.104 513.676 806.442 513.817C809.444 512.047 812.502 510.35 815.616 508.729C814.771 511.007 812.826 514.712 814.754 516.741C820.207 518.022 824.456 509.322 828.644 507.556Z" fill="#D5D5D5"/>
<path d="M739.251 283.16C741.82 285.7 745.229 289.272 739.139 290.533L735.371 291.345L735.453 298.452C737.805 299.495 740.533 300.624 743.059 301.244C749.464 302.818 746.359 310.79 744.206 314.776C741.759 314.966 737.575 314.875 736.826 317.449C735.007 323.727 733.001 328.822 735.531 335.104C741.954 338.355 743.34 338.483 746.883 344.002C743.955 348.674 736.683 363.103 735.184 368.93C736.272 371.924 740.507 373.11 740.577 376.536C740.62 378.87 738.667 381.102 738.558 383.373C738.424 386.255 738.013 388.583 738.94 391.313L735.375 394.314V398.943C725.3 402.616 724.469 401.982 713.324 400.862C706.13 406.859 702.293 407.265 692.898 410.38L691.274 410.931C686.397 412.57 685.215 414.161 681.55 417.494L677.557 415.95C676.665 408.79 680.684 395.453 682.828 388.102C679.155 378.273 677.665 371.336 679.272 360.76C681.104 359.628 682.967 358.391 684.777 357.222C684.907 350.722 684.851 348.453 679.216 343.938C678.861 342.309 678.752 340.806 678.592 339.158C681.442 336.481 682.867 334.631 685.219 331.648C685.34 327.941 685.613 326.957 683.629 323.6C685.557 321.432 688.212 319.339 690.503 317.421C690.191 316.054 689.866 314.689 689.537 313.325L693.037 309.821L698.299 309.1C701.708 306.089 703.83 304.287 706.867 300.887V295.734C708.803 295.983 710.743 296.205 712.688 296.399C713.065 296.213 713.437 296.026 713.81 295.839C715.603 295.159 715.815 294.104 716.725 292.714C719.007 289.221 723.356 291.656 726.751 291.538C727.366 291.48 732.542 290.204 733.681 289.956L734.63 288.954C736.861 286.634 737.432 285.826 739.251 283.16Z" fill="#D5D5D5"/>
<path d="M816.027 331.415C818.05 333.159 818.119 338.702 818.345 341.33C820.021 338.799 822.139 334.551 823.629 331.798C827.527 331.759 832.612 332.14 836.666 332.27C838.459 347.994 834.907 352.11 856.975 348.878L856.113 343.635L870.411 331.758C876.072 333.769 888.814 335.958 895.277 335.537C895.814 335.502 896.009 334.869 896.385 334.277C897.494 333.731 896.901 333.832 898.256 334.101C901.951 338.679 904.987 334.397 908.587 335.312C908.236 336.697 906.391 339.01 905.459 340.318C906.053 342.074 907.304 344.057 905.524 345.281C903.467 345.278 901.094 344.132 899.11 343.368C893.007 347.221 886.943 351.184 880.836 355.034C879.147 356.1 876.323 355.655 875.145 356.903C875.162 358.974 877.345 357.996 877.289 360.422C876.262 361.71 874.573 362.179 872.888 362.883L872.455 366.947C869.596 366.078 866.482 364.551 864.52 367.191C864.156 369.735 865.33 372.844 866.023 375.459C863.671 378.389 861.402 379.917 857.651 381.231C855.191 382.092 855.52 382.198 855.061 384.245C854.472 386.737 853.818 389.508 853.133 391.997C852.553 394.115 850.95 391.664 848.451 392.697C844.077 394.512 837.9 402.433 836.211 406.21C829.108 401.125 826.934 403.316 819.856 405.846C816.014 407.238 811.705 407.223 807.872 405.812C805.208 403.037 807.893 402.337 806.884 399.925C804.784 398.664 801.44 397.788 798.954 397.016C796.857 402.303 795.982 406.095 790.183 408.992C785.557 407.674 776.028 406.703 775.088 401.917C774.815 400.544 771.303 399.937 769.67 398.969C768.96 397.559 769.111 398.304 769.432 396.63C771.056 395.349 777.947 392.039 780.195 390.9C780.104 384.119 777.553 383.396 776.167 377.968C774.755 372.446 777.124 374.63 773.525 368.035C782.161 357.867 793.423 340.98 807.491 337.106C810.592 333.512 811.306 333.498 816.027 331.415Z" fill="#D5D5D5"/>
<path d="M898.993 206.552C901.383 207.039 902.687 208.608 904.428 210.171C906.026 209.791 907.243 209.537 908.868 209.272C911.965 210.179 910.436 213.098 915.893 213.852C917.045 214.011 918.223 213.752 919.159 213.135C921.649 211.454 920.605 209.693 921.645 208.466L922.485 208.823C923.828 211.06 922.91 214.681 923.59 215.792C925.833 219.463 930.559 223.919 934.704 225.691C934.682 229.824 934.054 235.806 935.882 239.502C937.376 242.525 940.321 241.082 942.366 242.004C944.965 243.18 945.073 248.814 945.415 251.352C942.002 254.462 930.373 264.413 929.095 267.038C924.755 275.971 926.544 280.134 912.536 281.254C911.207 281.467 907.937 282.414 907.07 283.26C899.616 290.511 888.996 296.704 885.639 306.293C885.011 308.083 877.561 308.378 874.711 308.841C874.802 308.689 874.889 308.536 874.98 308.384L875.391 307.718C877.185 304.784 878.241 305.014 881.724 304.418C882.638 303.167 883.954 299.568 884.102 299.479C886.237 298.179 888.693 295.58 885.249 292.764C882.885 292.394 882.447 295.097 879.476 295.404C878.8 294.154 878.878 291.696 878.809 290.205C880.476 287.171 881.195 286.454 883.599 283.919C884.11 283.317 885.024 280.463 885.167 279.633C886.51 271.99 884.66 269.154 880.225 263.317C878.597 262.614 877.631 262.043 875.846 261.959C874.473 262.676 873.568 263.879 872.091 264.081C859.076 265.863 859.4 277.282 851.886 283.815C850.478 285.039 843.704 282.724 841.898 282.228C838.671 271.115 824.776 275.192 824.603 270.904C825.573 269.893 826.106 269.426 826.279 268.141C826.912 263.462 831.78 259.095 835.531 255.952C833.707 250.351 833.092 247.559 832.239 241.587C835.968 243.394 837.419 246.273 841.885 248.681C848.966 245.928 850.409 242.144 855.693 237.668C860.228 233.827 862.19 233.112 865.598 228.302C870.029 229.653 871.606 229.435 876.288 229.407L875.985 224.648C877.276 222.996 878.428 221.704 879.835 220.153C885.648 221.599 886.575 221.247 892.578 220.491C896.662 216.196 897.373 216.401 900.192 211.075C898.633 209.085 898.066 208.855 898.993 206.552Z" fill="#D5D5D5"/>
<path d="M797.204 407.972C800.578 408.683 804.645 416.179 808.222 417.777C813.797 420.262 822.299 422.219 828.376 424.054C831.91 427.823 833.686 433.763 835.314 438.446C839.472 441.011 840.945 441.714 845.783 442.999C849.287 441.764 855.728 437.918 857.426 438.228L857.954 438.947C858.127 440.984 857.131 442.964 856.382 444.96C853.779 444.964 851.132 444.803 848.529 444.681C848.577 450.579 846.996 451.982 843.565 457.238C838.563 464.91 854.368 465.61 855.26 471.672C855.308 471.833 855.355 471.993 855.403 472.154L860.899 473.855C862.099 472.777 863.42 471.737 864.685 470.709C868.297 473.286 869.211 474.321 871.619 477.697C869.887 479.826 867.916 482.039 866.105 484.142L869.605 490.912L866.27 492.529C862.671 491.573 858.803 490.342 855.221 489.272C857.72 492.571 859.587 495.098 861.025 498.863C857.066 506.363 854.848 507.173 847.689 512.513L843.899 510.384L835.83 509.861L829.671 505.048L829.298 504.765L824.083 507.284C821.506 511.489 820.649 512.552 815.915 514.777C817.907 509.555 819.964 506.539 823.014 501.76L806 511.256L805.381 511.103C804.9 509.83 805.359 509.673 806.044 508.033C805.52 505.958 797.949 492.219 796.615 489.742L800.755 484.299L797.637 481.29C794.951 480.873 792.747 480.495 790.096 479.929L787.142 477.234C787.913 475.98 790.079 470.896 790.456 470.759C799.179 467.586 795.168 468.113 795.666 458.595C791.846 454.088 789.035 452.972 782.763 454.566C779.424 448.652 777.514 447.066 772.338 442.46C774.971 443.045 777.293 443.931 779.671 442.861C781.485 440.942 780.554 436.848 780.463 433.882C791.175 430.564 787.545 428.935 785.258 420.95L790.074 422.207C792.201 424.734 794.176 428.178 798.061 427.96C800.846 426.626 803.337 421.366 804.939 418.645C801.669 415.564 798.772 411.982 797.204 407.972Z" fill="#D5D5D5"/>
<path d="M855.849 538.125C869.904 539.131 856.884 559.616 876.319 555.434C878.943 554.868 880.498 552.07 881.421 550.167C884.596 555.3 888.359 558.164 894.904 555.048C896.247 558.164 895.84 558.014 898.993 560.083C898.031 562.789 896.71 563.554 894.423 565.534C894.15 567.143 894.046 568.657 893.912 570.278C891.768 569.998 887.004 569.066 885.319 569.222C884.149 569.964 884.509 569.475 884.253 570.767C885.362 572.9 889.737 574.75 892.227 576.034C892.829 577.028 892.552 577.2 892.444 578.542C890.988 579.811 886.454 581.81 884.418 582.781C886.67 586.268 887.181 586.409 886.423 590.53C886.107 592.242 887.203 593.764 888.069 595.404C886.67 594.612 885.011 593.81 883.556 593.064L878.558 597.472C880.247 598.901 881.663 599.57 881.243 601.726C879.06 603.137 876.895 602.044 874.53 601.356C875.041 604.158 875.435 606.914 875.981 609.735C874.551 613.347 873.65 614.257 870.822 616.983C868.427 616.948 865.789 616.394 863.992 617.296C863.372 618.554 863.801 619.811 864.048 621.203L857.707 621.069C857.352 624.009 857.235 625.366 855.624 627.957L851.648 635.133C849.664 633.619 846.957 631.096 845.029 629.41C844.964 631.566 845.554 635.53 842.63 635.786C840.651 634.888 836.436 631.035 834.613 629.483C831.91 621.96 831.815 621.402 825.366 615.886C819.107 615.335 816.551 615.343 810.275 615.924C809.621 613.963 808.526 611.692 809.253 609.842C817.283 604.907 811.765 602.72 813.671 597.923C815.997 592.055 820.852 595.308 820.367 585.518C828.216 579.788 827.574 580.606 821.719 573.852C824.066 570.794 828.809 567.483 832.075 564.964C832.464 563.473 834.028 559.005 833.456 557.846C832.196 558.768 832.733 558.752 831.637 558.687C829.835 555.19 834.262 546.153 839.971 548.894C841.746 549.746 843.916 549.78 845.891 549.727L846.606 549.7C850.344 545.847 851.18 545.224 855.901 542.216L855.849 538.125Z" fill="#D5D5D5"/>
<path d="M849.751 394.742C850.959 394.803 850.881 394.788 851.972 395.25C852.358 396.496 851.669 397.597 851.18 399.023C858.474 401.198 860.878 404.382 867.6 406.798C868.7 407.196 873.629 407.383 875.132 407.471C881.62 421.08 891.699 425.231 892.279 442.517C899.439 443.488 905.775 447.777 913.58 450.461C914.802 451.607 914.052 453.087 914.646 454.081C916.872 457.808 917.89 458.45 919.194 462.62C915.928 460.029 909.414 456.527 904.706 458.114C900.054 459.578 902.999 464.123 902.215 465.805C900.236 470.036 896.71 467.689 899.469 473.565C897.161 475.648 892.543 476.661 889.282 477.605C886.48 477.066 877.588 474.539 875.742 475.442C871.792 477.364 870.619 469.249 865.295 468.981C863.043 468.87 861.852 469.941 859.959 471.156C856.018 470.052 857.586 469.643 855.871 466.577L854.835 466.699C852.882 466.149 846.896 461.982 844.609 460.594C846.97 455.243 849.816 454.337 851.6 447.303C853.8 447.295 855.715 447.104 857.898 446.921C859.613 443.224 860.631 440.22 861.891 436.378C859.721 436.103 858.37 435.778 856.286 435.281C852.423 437.49 849.85 438.851 845.757 440.782C842.218 439.505 840.91 438.798 837.718 436.955C835.687 431.084 834.379 427.07 829.991 422.334C826.487 421.164 820.995 419.386 817.457 418.614C807.794 416.5 806.442 413.052 800.669 406.561C799.2 406.351 799.14 406.5 797.992 405.789C799.018 403.687 799.707 401.974 800.547 399.822C801.964 400.239 802.267 400.296 803.562 401.034C804.402 402.418 804.415 402.915 804.714 404.497L804.809 405.028C806.256 412.67 823.256 407.765 828.185 405.43C829.74 404.692 834.327 407.949 835.994 408.855C836.38 408.874 836.765 408.893 837.151 408.908C842.119 403.889 842.249 398.996 849.148 395.082L849.751 394.742Z" fill="#D5D5D5"/>
<path d="M900.093 476.76C902.029 476.535 904.814 478.813 906.62 479.975C898.637 488.477 895.372 487.827 883.114 490.365C888.71 492.001 894.332 493.565 899.98 495.056L904.545 490.415C923.209 489.043 914.763 492.965 920.74 495.621C922 495.442 922.485 495.296 923.759 495.526L923.919 496.306C922.788 497.999 920.185 499.826 918.449 501.206L923.759 502.838C925.521 505.507 926.02 506.638 927.141 509.551C924.218 509.517 918.427 508.874 916.4 510.671C915.347 514.7 918.76 515.201 922.23 515.423C921.164 518.481 919.25 522.743 917.976 525.843C919.016 525.797 919.999 525.706 921.034 525.621C922.143 526.34 921.714 525.878 922.199 527.158C921.84 529.326 916.309 534.348 914.563 534.154C914.667 532.407 915.213 530.9 913.55 529.872L912.536 530.037C910.297 533.347 907.655 536.803 905.178 539.998L907.218 542.823L903.493 546.979C903.462 549.677 903.588 551.757 903.805 554.456C903.194 555.423 903.254 555.614 902.159 556.042C900.664 555.866 894.986 550.025 891.525 552.307L891.586 553.687L890.815 554.303C885.106 553.049 885.171 551.424 882.469 547.013C879.827 548.615 873.209 556.26 869.891 553.951C863.563 549.555 868.396 540.205 860.089 536.726L859.587 536.52L859.782 536.497C856.932 530.809 850.651 524.605 848.971 518.821C848.629 517.644 851.175 517.036 851.6 515.308L850.521 514.035C856.984 506.611 859.496 509.998 863.511 498.607C862.809 496.883 861.947 495.132 861.15 493.439L866.59 494.849L872.871 491.718L869.133 484.509C871.147 481.619 872.71 479.883 875.482 477.598C879.952 478.01 885.189 479.352 888.805 479.688C890.005 479.799 897.875 477.284 900.093 476.76Z" fill="#D5D5D5"/>
<path d="M650.122 471.955C655.524 474.15 655.368 477.693 662.545 479.941L667.331 479.218C669.994 480.361 670.817 480.606 673.654 481.302C676.21 484.463 676.842 485.667 678.631 489.199C678.115 491.011 677.552 492.41 676.859 494.165C674.624 495.77 672.788 496.279 670.549 497.471C661.769 502.143 655.199 501.642 645.245 502.074C644.596 504.173 643.968 506.279 643.366 508.389C646.727 513.259 647.004 513.878 647.104 519.536C657.672 530.14 662.731 533.511 663.017 548.477C661.527 549.635 661.804 549.127 659.547 549.521C657.962 549.796 657.728 551.787 656.732 553.657C653.011 554.096 657.091 546.138 649.074 548.381C647.649 547.479 645.276 536.149 643.413 533.037C638.701 531.711 637.493 531.837 634.521 535.404C633.811 536.547 633.573 537.219 632.295 537.858C629.475 536.677 632.689 529.482 625.088 531.191C621.662 533.473 623.633 536.948 620.146 540.924C617.118 540.92 615.715 540.847 612.722 540.48L609.053 545.706C609.56 546.872 609.543 546.409 609.374 547.567C607.039 547.789 605.827 544.933 602.505 545.667C602.028 546.696 601.851 547.353 600.915 548.102L599.876 547.988L599.507 547.38C603.341 542.827 597.043 538.897 593.725 535.92C589.138 531.803 583.772 522.414 589.511 517.517C595.051 517.716 605.298 518.137 610.561 518.832C613.307 515.522 615.299 513.098 617.681 509.551C620.834 508.217 622.701 507.689 624.386 504.788C626.062 501.806 629.631 500.002 631.879 497.521C638.77 489.922 642.201 486.111 643.764 476.489C646.51 474.78 647.701 473.985 650.122 471.955Z" fill="#D5D5D5"/>
<path d="M600.27 318.088C605.056 319.973 605.749 320.371 609.409 323.565C609.474 328.713 606.104 331.31 605.017 336.221C604.666 337.805 604.818 340.332 604.857 341.999L608.434 345.847C612.445 345.178 614.394 344.266 617.322 347.292C617.807 349.528 616.369 362.517 614.793 363.482C611.466 363.884 609.27 362.388 606.208 360.96L602.037 366.262C602.011 370.671 601.149 379.434 602.998 383.079C604.194 383.836 606.455 383.908 608.005 384.092L610.089 387.563C608.85 397.44 608.157 393.197 600.564 395.223C596.497 396.309 599.352 401.469 598.62 404.379L597.948 404.554C596.424 403.832 596.346 403.648 595.206 402.44C592.205 400.965 592.04 399.772 590.529 396.959C588.879 396.313 586.479 395.43 585.019 394.688C578.813 391.527 583.096 388.859 583.399 384.138C583.443 383.434 582.516 380.646 582.239 379.779L578.328 376.564C578.167 371.341 579.783 367.442 574.373 364.284C573.645 362.641 572.675 360.743 571.878 359.099C569.474 358.652 560.808 358.527 560.071 356.728C561.886 355.879 569.847 355.272 572.909 354.688L576.4 351.998C588.463 354.123 583.46 350.009 588.645 342.507C588.424 333.217 589.68 332.072 593.37 323.31C595.583 321.743 598.087 319.744 600.27 318.088Z" fill="#D5D5D5"/>
<path d="M931.841 594.616C933.842 595.19 938.368 597.032 940.495 597.827C936.02 603.496 937.662 605.519 940.196 611.784C935.674 620.584 937.108 625.767 935.059 635.091C933.967 640.06 929.372 646.696 927.995 651.241C926.86 654.995 926.548 663.099 926.059 667.438C923.598 665.932 923.1 665.366 921.225 663.325C919.488 661.111 919.193 660.492 918.15 658.068L906.559 651.344C906.325 646.838 907.356 643.152 907.555 638.756C907.733 634.823 906.737 629.678 906.031 625.744C909.548 622.567 911.635 618.634 913.701 614.616C918.275 605.748 922.97 600.331 931.841 594.616Z" fill="#D5D5D5"/>
<path d="M783.56 271.006C788.701 271.824 790.442 273.417 794.704 276.064C796.411 276 799.283 275.657 800.591 276.542C800.504 277.633 798.156 279.545 797.385 281.907C797.871 283.034 798.338 284.167 798.789 285.306C799.443 286.992 800.045 288.481 799.118 290.126C796.502 290.974 795.445 289.282 793.245 290.677C792.734 292.011 793.435 293.41 793.89 294.822C792.859 297.88 791.391 301.605 788.039 303.275C786.397 304.093 785.314 303.627 783.504 303.182C781.62 302.495 779.445 300.914 777.747 299.807C771.567 299.552 769.878 300.352 766.092 295.781C770.246 292.735 771.857 291.698 774.672 287.755C773.26 286.01 772.039 284.896 772.39 282.752C773.421 281.353 778.726 279.87 778.791 279.494C779.376 276.123 781.26 279.17 784.422 277.433C784.946 274.804 781.611 274.474 781.117 272.409C782.1 271.282 781.849 271.62 783.56 271.006Z" fill="#D5D5D5"/>
<path d="M805.827 285.688C809.673 287.034 809.34 293.895 811.319 296.851C813.948 300.783 816.183 302.687 818.535 306.944L811.991 306.952C809.305 311.235 807.464 312.489 810.379 316.987C808.634 317.807 807.248 318.277 805.429 318.922C802.297 318.91 796.545 317.628 794.666 315.267C788.909 308.043 795.103 300.499 795.67 294.028L795.722 293.389C800.816 291.051 802.029 289.461 805.827 285.688Z" fill="#D5D5D5"/>
<path d="M285.466 92.2863C288.77 92.0393 295.419 90.9449 297.895 92.2913C299.117 93.6663 300.488 102.868 301.228 105.668C309.51 109.01 307.758 113.461 313.533 117.357C318.64 120.803 326.707 120.702 331.959 125.289C333.596 130.281 334.558 135.889 336.005 140.972C337.102 144.828 338.498 148.613 339.88 152.396C337.559 156.667 335.312 160.919 333.225 165.277C329.289 173.494 327.646 177.6 333.726 185.396C354.881 185.359 382.337 187.489 392.852 206.771C396.156 207.211 400.656 207.856 403.933 208.094C404.475 211.139 404.929 213.887 405.29 216.95L410.495 220.807C413.187 227.516 416.214 234.692 418.632 241.444L418.43 241.491C418.169 242.094 417.775 242.48 417.596 242.843C415.799 246.503 415.718 252.253 415.798 256.181C409.471 258.794 408.286 257.158 399.987 261.213C397.262 260.707 393.008 260.037 390.444 259.37C386.324 262.876 381.524 265.6 377.107 268.408C372.824 271.13 366.114 283.961 361.442 283.463C352.705 282.534 353.126 282.3 348.487 290.727C350.052 295.75 349.679 298.404 348.856 303.5C350.08 305.361 351.805 307.32 351.277 309.347C347.754 311.602 328.769 314.131 322.311 316.561C316.137 315.667 309.846 317.055 302.893 316.893L300.267 319.213L294.319 320.567C297.174 328.14 296.938 325.916 295.641 334.2C298.237 336.186 305.127 342.113 307.117 343.354C307.83 345.594 308.568 347.827 309.332 350.054C305.413 352.514 304.421 354.054 301.653 357.563C302.394 361.865 302.705 362.939 305.028 366.857L303.452 369.378C297.675 370.488 290.984 367.084 285.682 365.79C283.835 365.339 278.055 365.428 275.84 365.438C274.239 364.492 271.924 363.259 270.537 362.172C263.667 356.791 257.58 359.665 249.864 354.566C247.727 354.531 242.662 354.362 240.857 354.829C237.001 355.827 234.393 357.323 230.191 357.807C225.717 358.322 219.55 357.152 215.51 358.429C209.773 360.242 204.658 363.234 198.489 364.21C193.673 364.973 188.139 363.32 183.537 363.56C178.937 363.8 173.879 365.869 168.879 365.561C164.296 365.279 162.834 363.502 158.329 363.522L156.391 363.532L151.344 360.037C150.691 358.605 150.177 357.453 149.383 356.081C147.983 355.269 144.902 353.173 143.246 353.814C136.958 356.248 134.916 359.351 127.329 359.316C117.064 359.268 109.128 358.167 100.114 354.094C91.5932 350.244 86.1116 366.367 82.9736 371.311L82.4577 371.217C75.9101 370.059 60.7971 369.864 58.2052 365.453C55.8456 361.436 55.7819 348.232 55.3211 342.993C45.9872 339.514 40.4778 337.2 31.5604 333.179C33.7947 331.425 36.004 329.723 38.1211 327.857C32.9256 327.886 26.7783 328.251 21.8641 327.047C21.5283 324.508 21.2017 322.541 20.6576 320.033C28.0341 308.566 22.4492 307.375 13.2895 299.402L8.85323 299.85C6.6413 298.542 3.12498 296.932 2.49942 294.731C3.98011 292.644 11.2094 293.192 14.07 293.199C17.5796 278.329 19.2604 277.802 16.6317 262.642C14.3637 260.465 12.0672 258.202 9.76925 256.061L4.10995 261.206C2.96504 260.507 1.15692 259.325 0 258.768V257.779C1.35842 252.757 5.45466 250.753 4.69383 246.116C4.29474 243.684 2.19481 241.169 4.10291 238.886C7.2809 234.871 14.6776 229.303 19.6541 227.506C25.0112 228.195 28.561 229.033 33.2735 231.588L38.8776 230.477L40.2574 226.705H47.6374V235.105C51.0751 235.081 55.15 235.145 58.5314 234.949C61.0704 232.344 63.699 229.71 66.1297 227.033C68.314 226.339 70.7928 225.515 73.0554 225.162C79.7026 224.126 83.1031 225.954 88.0485 221.418C93.0554 222.303 101.536 223.481 106.584 223.795C108.727 221.983 110.922 220.072 113.092 218.3C118.595 218.277 124.314 218.327 129.797 218.221C135.643 215.335 142.402 210.208 144.498 204.31C145.154 202.465 145.001 201.402 146.325 199.773L147.012 199.601C148.63 200.532 149.682 202.929 150.543 204.512C152.336 198.894 154.622 193.235 156.253 187.64C156.889 185.458 155.214 180.277 155.429 178.116C155.93 173.083 157.507 167.791 158.242 162.756C156.116 159.551 153.97 156.93 151.542 153.917C161.864 152.367 173.864 153.374 184.078 155.303C187.8 156.006 191.912 160.988 196.985 156.293C198.578 154.818 195.643 147.201 195.061 145.13C201.4 137.575 209.467 128.478 216.244 121.122C224.96 126.404 247.683 140.482 255.886 128.257C261.892 119.306 256.607 107.389 272.133 104.359C282.155 102.404 282.246 100.858 285.466 92.2863Z" fill="#D5D5D5"/>
<path d="M837.484 0H839.585C844.038 1.09698 846.03 1.52038 849.928 3.82372L867.6 3.90938C876.145 7.79537 904.203 37.3622 910.401 45.6581C914.719 51.9513 916.677 60.5152 921.766 66.1616C922.204 66.6467 934.535 66.6692 936.22 66.8397C946.992 67.9273 957.118 68.4276 966.521 73.4491C968.795 73.3803 970.614 73.3902 972.862 72.9915C973.451 75.2736 974.006 77.3421 974.387 79.662C976.873 81.2163 979.247 82.3845 980.42 84.8742C980.49 86.1582 980.26 86.2588 979.519 87.3681C979.979 89.3222 985.094 93.4098 986.917 95.2496C994.571 93.6368 1005.26 92.1827 1013.2 90.9556C1016.46 85.9442 1017.15 84.4663 1017.63 78.5875C1019.38 78.0642 1023.56 76.8356 1024.69 75.8665C1031.38 70.1639 1028.47 66.4525 1039.28 66.8462C1039.99 67.5939 1040.29 68.3057 1040.07 69.282C1037.46 80.4996 1049.06 74.6888 1041.44 86.539C1042.51 92.1517 1043.25 97.9977 1044.51 103.615C1045.24 106.893 1045.04 112.625 1046 115.519V123.295C1044.36 129.509 1042.98 133.84 1037.52 138.368C1032.56 138.516 1028.19 137.171 1024.95 137.074C1020.64 136.944 1010.12 148.798 1011.3 152.808C1012.44 156.651 1016.1 160.091 1019.29 162.296C1020.26 166.593 1020.92 171.244 1022.62 175.23C1023.08 176.312 1023.3 177.305 1022.72 178.357C1020.12 179.504 1011.12 176.093 1010.28 174.609C1010.41 174.3 1010.54 173.989 1010.67 173.678C1011.37 171.907 1011.41 171.704 1010.57 170.178C1009.15 169.018 1007.5 168.992 1005.51 168.672C1004.87 171.044 1004.52 173.334 1004.11 175.741L997.832 171.938C995.524 173.817 991.76 175.921 990.257 178.333C988.957 180.422 990.794 181.803 991.049 183.694C989.962 184.855 989.503 184.667 987.558 185.249C984.942 182.854 982.616 180.613 979.632 178.557C978.614 177.855 974.902 175.362 974.24 174.651C973.616 173.981 973.456 169.827 972.299 168.597C971.585 167.834 970.441 167.525 969.662 167.568C965.707 167.785 967.708 174.849 964.841 177.881C961.701 177.828 961.969 174.363 961.675 172.149C960.293 170.985 953.658 166.519 951.895 166.153C950.656 167.05 950.166 167.561 948.603 167.901C947.165 167.401 947.741 167.788 946.818 166.688C947.537 163.617 946.242 162.885 944.233 159.618C940.46 159.945 932.764 158.76 930.485 161.411C930.923 162.581 930.962 162.276 930.936 163.427L930.108 163.547C927.228 162.231 925.218 156.922 922.468 154.174C915.984 157.93 918.496 156.717 911.224 156.795C909.639 156.812 903.242 159.532 901.015 159.861C893.986 160.898 888.229 151.472 887.051 146.699L886.012 142.544C885.228 142.973 884.435 143.392 883.638 143.802C881.317 144.987 877.826 146.82 875.205 146.199C872.996 144.583 872.607 138.46 872.078 135.568C867.985 134.812 866.084 135.833 866.175 132.494C866.153 133.239 859.396 124.461 858.63 123.007C864.23 115.88 861.969 119.913 869.055 114.81C870.48 110.701 871.992 105.006 875.738 102.128C878.203 100.24 879.571 101.996 881.022 103.524C882.954 104.021 885.042 104.197 886.155 102.329C889.78 96.2592 886.384 90.3215 886.705 83.9032C888.541 82.1938 890.59 79.4166 892.171 77.4185L892.197 76.8405C892.764 67.0354 887.749 68.1708 891.863 56.3343L889.689 51.7613C891.478 41.6454 889.113 40.3308 883.413 31.478C881.52 30.601 879.563 29.5793 877.692 28.6428L871.593 31.8346L869.458 35.8189C861.787 36.3407 860.761 37.8447 855.013 41.8285C849.378 45.738 841.603 36.6204 838.992 32.862V27.2171L841.703 23.205C838.091 22.2742 831.481 20.1111 828.025 20.7904C827.046 21.5373 827.081 22.4192 826.821 23.6178L826.704 24.1816C823.733 27.4136 809.115 25.5409 817.526 11.2568C817.374 9.96545 817.145 8.80573 816.898 7.52499C824.231 4.06932 829.381 1.75501 837.484 0Z" fill="#D5D5D5"/>
<path d="M695.869 725.645C698.109 725.928 700.339 726.241 702.565 726.585L702.903 726.241C702.7 725.045 702.271 724.166 702.795 723.332C706.507 724.055 708.452 729.827 707.434 731.777C706.139 734.258 700.976 738.833 698.884 741.773C699.157 745.087 699.473 748.397 699.837 751.7L695.735 752.881C691.534 757.105 688.627 760.473 682.066 761.899C680.104 762.323 677.349 762.576 675.616 763H674.975C667.474 759.422 667.513 759.606 659.435 758.91C652.838 745.748 656.256 741.601 670.934 735.741C669.596 734.303 668.063 732.732 666.807 731.261C669.873 730.664 674.685 729.858 677.752 728.902L678.943 727.274C682.087 726.78 690.091 727.075 693.067 727.09L695.869 725.645Z" fill="#D5D5D5"/>
<path d="M776.704 669.271C776.411 669.404 775.367 670.859 775.228 671.073C775.089 671.287 774.882 671.352 774.69 671.521C774.499 671.689 774.278 671.676 773.972 671.886C773.665 672.097 773.334 673.146 773.334 673.146C773.374 673.29 773.523 673.588 773.799 673.635C774.076 673.682 774.783 673.619 775.102 673.581L774.69 674.469L772.942 675.883L772.723 676.872L773.342 677.318C773.634 677.185 774.234 676.853 774.292 676.59C774.351 676.326 774.848 676.023 775.09 675.904L775.363 676.292L776.892 675.866L778.727 675.355C778.942 675.141 779.394 674.675 779.485 674.526C779.598 674.34 779.817 673.352 779.89 673.022C779.948 672.758 780.189 672.32 780.302 672.134L781.219 671.879C781.319 671.645 781.502 671.12 781.438 670.89C781.374 670.661 781.203 670.44 781.126 670.359C780.74 670.157 779.938 669.762 779.816 669.796C779.693 669.83 779.173 669.935 779.011 669.865C778.85 669.796 779.006 669.521 778.727 669.271C778.448 669.021 778.045 668.83 777.734 668.829C777.423 668.829 776.996 669.138 776.704 669.271Z" fill="#D5D5D5"/>
<circle cx="676.5" cy="273.5" r="9.5" fill="#2B7FFF" fill-opacity="0.1"/>
<circle cx="676.5" cy="273.5" r="5.02941" fill="#2B7FFF" fill-opacity="0.3"/>
<circle cx="676.5" cy="273.5" r="2.79412" fill="#0168F0"/>
<circle cx="917.5" cy="261.5" r="9.5" fill="#2B7FFF" fill-opacity="0.1"/>
<circle cx="917.5" cy="261.5" r="5.02941" fill="#2B7FFF" fill-opacity="0.3"/>
<circle cx="917.5" cy="261.5" r="2.79412" fill="#0168F0"/>
<circle cx="774.5" cy="648.5" r="9.5" fill="#2B7FFF" fill-opacity="0.1"/>
<circle cx="774.5" cy="648.5" r="5.02941" fill="#2B7FFF" fill-opacity="0.3"/>
<circle cx="774.5" cy="648.5" r="2.79412" fill="#0168F0"/>
<circle cx="778.5" cy="673.5" r="9.5" fill="#2B7FFF" fill-opacity="0.1"/>
<circle cx="778.5" cy="673.5" r="5.02941" fill="#2B7FFF" fill-opacity="0.3"/>
<circle cx="778.5" cy="673.5" r="2.79412" fill="#0168F0"/>
</g>
<defs>
<clipPath id="clip0_823_1750">
<rect width="1046" height="763" fill="white"/>
</clipPath>
</defs>
</svg>
