<svg width="164" height="114" viewBox="0 0 164 114" fill="none" xmlns="http://www.w3.org/2000/svg">
<path d="M67.4189 0.514648C69.6496 0.404902 72.0132 0.986748 74.377 1.84766C76.7922 2.72733 79.1373 3.86801 81.3281 4.81836L81.5566 4.91797L81.7734 4.79492L86.582 2.07227C87.0249 2.74655 87.6852 3.89831 88.3574 5.01855C88.7548 5.68067 89.1528 6.32383 89.4951 6.81152C89.6653 7.05401 89.831 7.27053 89.9824 7.43555C90.0579 7.51786 90.139 7.59786 90.2236 7.66309C90.2997 7.72168 90.421 7.80097 90.5742 7.83105V7.83203C90.7343 7.86352 90.8972 7.83997 91.0176 7.81445C91.1507 7.78623 91.2977 7.74005 91.4512 7.68555C91.759 7.57624 92.1371 7.41432 92.5566 7.22168C93.3906 6.83873 94.4641 6.30242 95.5645 5.7793C96.6775 5.25014 97.8402 4.72294 98.9014 4.33203C99.867 3.97636 100.701 3.75344 101.32 3.71875L101.496 3.9082C101.344 4.50935 100.888 5.28236 100.169 6.2002C99.3746 7.21364 98.322 8.32841 97.1934 9.47852C96.073 10.6202 94.8711 11.8033 93.8135 12.9219C92.7568 14.0394 91.8098 15.1278 91.1963 16.0996L91.0254 16.3701L91.1992 16.6387C92.9994 19.422 93.8853 20.1801 96.3496 22.332L96.6875 22.6279L97.0176 22.3223C99.1498 20.3493 100.754 19.5839 102.536 19.0732C103.446 18.8125 104.397 18.6198 105.52 18.3682C106.635 18.1181 107.894 17.8145 109.378 17.3398C112.362 16.3856 115.526 14.9977 118.367 13.7422C121.144 15.3451 121.807 15.8269 124.259 17.9277L124.472 18.1104L124.738 18.0234C126.253 17.5336 128.047 17.0921 129.404 16.1064L129.483 16.0488L129.535 15.9658C129.989 15.236 130.068 14.5212 130 13.8193C129.955 13.3538 129.837 12.8511 129.724 12.3643C134.279 12.2546 138.842 12.3252 143.418 12.3623C146.211 14.7236 147.546 16.2444 148.476 17.9561C149.439 19.7296 149.973 21.7069 151.17 25.1182L151.224 25.2705L151.356 25.3633C152.776 26.3484 154.276 27.7265 155.905 29.0615C157.503 30.3711 159.211 31.6244 160.95 32.2295C161.572 32.4459 161.739 32.4512 161.839 32.4756C161.9 32.4905 161.993 32.5259 162.557 32.8164C162.679 33.3303 162.738 33.5454 162.745 33.7744C162.752 33.979 162.711 34.2006 162.561 34.7002C161.97 34.9689 161.386 35.0302 160.645 35.0361C159.835 35.0425 158.815 34.9837 157.534 35.125L157.268 35.1543L157.145 35.3916C156.027 37.5498 154.369 38.1112 152.803 38.4287C152.047 38.582 151.205 38.6922 150.56 38.9121C149.872 39.1464 149.254 39.5501 148.999 40.373C148.054 43.4078 145.948 45.669 143.27 47.5713C140.599 49.468 137.414 50.9725 134.313 52.5332C134.299 52.5312 134.279 52.5296 134.253 52.5234C134.145 52.4985 133.994 52.4458 133.79 52.3633C133.589 52.2819 133.36 52.1812 133.098 52.0664C132.838 51.9529 132.551 51.8285 132.245 51.7051C131.042 51.219 129.462 50.7124 127.933 51.0098L127.858 51.0244L127.793 51.0596C126.526 51.7341 125.802 52.8511 125.309 54.041C124.937 54.9381 124.671 55.9479 124.414 56.8633C123.086 55.6637 121.378 54.4687 119.49 53.6514C117.303 52.7044 114.834 52.2478 112.429 52.9316H112.428C111.741 53.128 111.31 53.4991 111.049 53.9863C110.808 54.4364 110.73 54.9589 110.664 55.3965C110.534 56.2618 110.424 56.9702 109.683 57.4785C109.152 57.3417 108.825 57.1536 108.542 56.9111C108.188 56.6083 107.917 56.245 107.409 55.6836L107.2 55.4521L106.9 55.5391L99.8965 57.5566L98.8818 57.8496L99.751 58.4492C101.044 59.3413 101.451 59.5839 102.415 60.5938C102.508 60.9384 102.582 61.1692 102.633 61.3291C102.691 61.5112 102.694 61.5439 102.694 61.5479C102.695 61.5334 102.703 61.5436 102.628 61.708C102.571 61.834 102.478 62.0316 102.353 62.3174C102.199 62.3793 101.933 62.4004 101.49 62.3125C100.973 62.2097 100.354 61.99 99.6738 61.7334C99.0096 61.4829 98.288 61.1986 97.6162 60.9971C96.9539 60.7984 96.2628 60.6553 95.6641 60.7393C95.0273 60.8287 94.5541 61.157 94.1865 61.5576C93.8295 61.9468 93.5514 62.4278 93.3096 62.8516C93.0554 63.2968 92.841 63.6784 92.5898 63.9707C92.4363 64.1494 92.2839 64.2763 92.1211 64.3545L85.0791 53.0742L84.9482 52.8652L84.7021 52.8418L84.0762 52.7744C82.6359 52.6036 81.3244 52.3362 79.8457 52.0537L79.2588 51.9414L79.252 52.5381C79.2214 55.0712 79.3736 57.5848 79.5332 60.0762C79.6932 62.5731 79.8601 65.0465 79.8623 67.5293V67.5303C79.8646 68.7159 79.904 69.726 79.6426 70.5312C79.5181 70.9144 79.3297 71.2295 79.0459 71.4785C78.7773 71.7141 78.3958 71.9124 77.8408 72.041C77.2909 71.9049 77.0788 71.8349 76.8984 71.7334C76.683 71.6122 76.5111 71.4522 75.9785 71.0293L75.9648 71.0186L75.9502 71.0088L75.2695 70.5273C73.6689 69.3683 71.9948 67.971 70.46 66.7549L69.7656 66.2051L69.6533 67.083C69.3335 69.5718 69.0497 72.0638 68.7939 74.5586C66.8091 75.1411 64.5885 75.6535 62.5527 76.1611L62.3711 76.2061L62.2637 76.3594L59.5869 80.1797C58.6104 79.9888 57.1656 79.7428 55.7275 79.5566C54.1385 79.351 52.496 79.208 51.5156 79.3105C50.4657 79.4206 49.7271 79.6207 49.209 79.9111C48.6666 80.2152 48.3817 80.6096 48.2373 81.043C48.1106 81.4234 48.0938 81.8644 48.0615 82.1279C48.0379 82.3213 48.0015 82.473 47.9434 82.6035L46.9775 82.5283C46.0521 81.7398 45.4178 81.2023 44.7041 80.7539C43.9513 80.281 43.1248 79.9154 41.7949 79.4297L41.4326 79.2969L41.2119 79.6143L38.2344 83.9121C35.3253 85.164 32.9872 86.2648 30.9297 87.2012C28.8367 88.1537 27.0346 88.9361 25.1895 89.5527C21.5162 90.7803 17.6348 91.3631 10.9492 91.249L10.1895 91.2363L10.4785 91.9395C10.8562 92.8582 11.3357 93.7919 11.624 94.7578C11.8778 95.6081 11.9336 96.3446 11.6699 96.9492C11.0292 97.0071 10.5182 97.0422 10.0439 97.1396C9.47452 97.2567 8.94937 97.4629 8.22852 97.875L8.15039 97.9189L8.09375 97.9873C7.52383 98.6664 7.33997 99.4358 7.29688 100.191C7.25592 100.91 7.34437 101.726 7.36621 102.404L7.37305 102.64L7.55957 102.783L16.1816 109.45C15.1223 110.582 14.2079 111.803 13.293 112.983C12.627 112.999 11.965 113.047 11.3281 113.096C10.6072 113.151 9.92044 113.206 9.26367 113.216C8.00345 113.235 6.9362 113.086 6.07227 112.531C5.59742 111.294 5.27141 110.498 4.81641 109.752C4.34219 108.975 3.73994 108.269 2.72852 107.168L2.72754 107.167L2.38086 106.792C2.3999 105.319 2.28102 104.376 1.96875 103.449C1.66471 102.547 1.17588 101.66 0.521484 100.336C0.947004 98.0553 1.11423 96.2019 1.20996 94.5801C1.30886 92.9045 1.33208 91.5287 1.48535 90.1533C1.77995 87.5099 2.55423 84.9314 5.36426 80.7891H12.6514L12.7402 80.4004C13.1607 78.559 13.4733 76.5162 13.79 74.6426C15.6036 74.9964 17.2528 75.0644 19.0859 75.1992L19.4785 75.2275L19.5986 74.8525C20.1026 73.2765 20.5814 71.6961 21.0293 70.1035L21.082 69.9131L20.9912 69.7383L18.8525 65.6133C23.5314 63.059 28.9038 60.4485 33.6953 58.0049L33.9805 57.8594L33.9668 57.5391C33.4517 44.9279 41.0026 37.349 48.459 26.8359L48.6328 26.5908L48.498 26.3223C47.5629 24.4599 47.0678 23.4338 46.8027 22.3838C46.5492 21.3792 46.5014 20.3304 46.5332 18.4678C47.9297 17.1699 49.2925 15.7776 50.6221 14.4502L50.7686 14.3037V9.33301C51.6752 9.67867 52.8182 10.2437 54.1113 10.9102C55.7101 11.7341 57.5147 12.6968 59.2812 13.5068C61.0432 14.3147 62.8129 14.9927 64.3535 15.2285C65.8837 15.4627 67.3325 15.2788 68.2588 14.168L68.3457 14.0645L68.3682 13.9307C68.6806 12.0735 68.0042 9.89122 67.0684 7.87695C66.2022 6.01275 65.0724 4.21406 64.1553 2.81934C65.1317 2.00879 66.3033 1.25877 67.4189 0.514648Z" fill="url(#paint0_linear_823_2148)" stroke="#0168F0"/>
<defs>
<linearGradient id="paint0_linear_823_2148" x1="81.6228" y1="0" x2="81.6228" y2="113.717" gradientUnits="userSpaceOnUse">
<stop stop-color="#5D9DFF" stop-opacity="0.2"/>
<stop offset="1" stop-color="#5D9DFF" stop-opacity="0"/>
</linearGradient>
</defs>
</svg>
