<svg preserveAspectRatio="none" width="100%" height="100%" overflow="visible" style="display: block;" viewBox="0 0 682.954 495.387" fill="none" xmlns="http://www.w3.org/2000/svg">
<g id="crab">
<path id="body" d="M429.29 171.592H255.566C217.187 171.592 186.076 202.704 186.076 241.082V389.326C186.076 427.705 217.187 458.816 255.566 458.816H429.29C467.668 458.816 498.779 427.705 498.779 389.326V241.082C498.779 202.704 467.668 171.592 429.29 171.592Z" fill="url(#paint0_linear_0_102)"/>
<g id="eye_left">
<path id="Union" d="M302.281 116C316.139 116 327.374 127.235 327.374 141.094C327.374 154.953 316.139 166.187 302.281 166.187C288.422 166.187 277.187 154.953 277.187 141.094C277.187 127.235 288.422 116 302.281 116ZM302.281 119.861C290.554 119.861 281.048 129.367 281.048 141.094C281.048 152.821 290.554 162.327 302.281 162.327C314.008 162.327 323.514 152.821 323.514 141.094C323.514 129.367 314.008 119.861 302.281 119.861Z" fill="var(--fill-0, #DE4326)"/>
<path id="Ellipse 4" d="M302.279 162.33C314.006 162.33 323.512 152.823 323.512 141.097C323.512 129.37 314.006 119.864 302.279 119.864C290.553 119.864 281.046 129.37 281.046 141.097C281.046 152.823 290.553 162.33 302.279 162.33Z" fill="var(--fill-0, black)"/>
<path id="Rectangle 64" d="M309.616 163.873H297.262V171.594H309.616V163.873Z" fill="var(--fill-0, #DE4326)"/>
<path id="Ellipse 3" d="M302.281 148.43C306.332 148.43 309.616 145.146 309.616 141.095C309.616 137.044 306.332 133.76 302.281 133.76C298.23 133.76 294.946 137.044 294.946 141.095C294.946 145.146 298.23 148.43 302.281 148.43Z" fill="var(--fill-0, #14DEFF)"/>
</g>
<g id="eye_right">
<path id="Union_2" d="M381.804 116.001C395.663 116.001 406.898 127.236 406.898 141.094C406.898 152.401 399.419 161.96 389.139 165.098V171.593H376.786V165.685C365.332 163.36 356.711 153.234 356.711 141.094C356.711 127.236 367.946 116.001 381.804 116.001ZM381.804 119.861C370.078 119.861 360.571 129.368 360.571 141.094C360.571 152.821 370.078 162.327 381.804 162.327C393.531 162.327 403.037 152.821 403.037 141.094C403.037 129.368 393.531 119.861 381.804 119.861Z" fill="var(--fill-0, #DE4326)"/>
<path id="Ellipse 5" d="M381.807 162.326C393.533 162.326 403.039 152.819 403.039 141.093C403.039 129.366 393.533 119.86 381.807 119.86C370.08 119.86 360.574 129.366 360.574 141.093C360.574 152.819 370.08 162.326 381.807 162.326Z" fill="var(--fill-0, black)"/>
<path id="Ellipse 3_2" d="M381.805 148.427C385.856 148.427 389.14 145.143 389.14 141.092C389.14 137.041 385.856 133.757 381.805 133.757C377.754 133.757 374.47 137.041 374.47 141.092C374.47 145.143 377.754 148.427 381.805 148.427Z" fill="var(--fill-0, #14DEFF)"/>
</g>
<path id="leg_l1" d="M81.2975 263.472L170.09 293.97V326.399L87.0883 302.849C63.7966 316.104 17.2128 342.845 17.2128 343.771C1.15295 343.153 -0.803051 326.785 0.226422 318.678L81.2975 263.472Z" fill="var(--fill-0, #D31A2A)"/>
<path id="leg_l2" d="M74.2677 330.493L168.031 335.245V368.812L90.7221 366.733C72.0047 385.912 34.6331 424.493 34.8893 425.383C19.285 429.231 12.8784 414.041 11.6257 405.966L74.2677 330.493Z" fill="var(--fill-0, #B91223)"/>
<path id="leg_l3" d="M98.3881 402.967C98.3881 402.967 169.224 381.996 169.122 382.525C165.23 402.967 175.984 415.321 175.984 415.321L124.253 433.08C113.65 457.692 102.076 492.177 102.635 492.917C82.1738 500.252 78.1303 489.584 74.0667 482.494L98.3881 402.967Z" fill="var(--fill-0, #9C0A1D)"/>
<path id="leg_r1" d="M601.657 263.471L512.864 293.97V326.398L595.866 302.849C619.158 316.104 665.742 342.844 665.742 343.77C681.802 343.153 683.757 326.784 682.728 318.677L601.657 263.471Z" fill="var(--fill-0, #D31A2A)"/>
<path id="leg_r2" d="M608.688 330.494L514.924 335.246V368.813L592.233 366.734C610.95 385.913 648.322 424.494 648.065 425.384C663.669 429.232 670.076 414.043 671.329 405.967L608.688 330.494Z" fill="var(--fill-0, #B91223)"/>
<path id="leg_r3" d="M584.564 402.968C584.564 402.968 513.729 381.997 513.83 382.526C517.722 402.968 506.968 415.322 506.968 415.322L558.7 433.08C569.302 457.693 580.876 492.178 580.318 492.918C600.779 500.253 604.823 489.585 608.886 482.495L584.564 402.968Z" fill="var(--fill-0, #9C0A1D)"/>
<g id="claw_left">
<path id="Vector 1" d="M203.45 1.34206L156.082 0.00777318C151.333 -0.12602 146.745 1.73566 143.431 5.14096L78.7543 71.6038L62.5401 149.973L81.8428 173.522L142.453 193.983L201.519 154.219L158.281 90.1344C174.753 65.0409 207.851 13.4641 208.468 7.90497C209.086 2.3458 205.38 1.21337 203.45 1.34206Z" fill="url(#paint1_linear_0_102)"/>
<path id="Vector 2" d="M257.111 50.7552L181.444 99.0119C190.066 115.741 210.784 149.585 214.645 148.427C221.71 146.307 265.99 63.4949 263.674 56.1599C261.82 50.2919 258.526 50.1118 257.111 50.7552Z" fill="url(#paint2_linear_0_102)"/>
<path id="Vector 3" d="M140.523 205.563L82.6149 187.805C86.4754 200.931 92.1597 227.192 94.9686 233.745C99.6013 244.555 106.293 247.514 109.639 249.187L172.951 275.825V228.727L176.812 221.006L155.965 205.563L118.132 237.606L140.523 205.563Z" fill="var(--fill-0, #DB1523)"/>
</g>
<g id="claw_right">
<path id="Vector 1_2" d="M481.885 1.34103L529.252 0.00674503C534.002 -0.127048 538.591 1.73463 541.904 5.13994L606.581 71.6028L622.795 149.972L603.492 173.521L542.882 193.982L483.816 154.218L527.054 90.1333C510.582 65.0399 477.484 13.4631 476.867 7.90394C476.249 2.34477 479.955 1.21234 481.885 1.34103Z" fill="url(#paint3_linear_0_102)"/>
<path id="Vector 2_2" d="M428.221 50.7556L503.887 99.0123C495.265 115.742 474.547 149.585 470.687 148.427C463.622 146.308 419.342 63.4954 421.658 56.1604C423.511 50.2924 426.805 50.1122 428.221 50.7556Z" fill="url(#paint4_linear_0_102)"/>
<path id="Vector 3_2" d="M544.811 205.562L602.719 187.803C598.858 200.929 593.173 227.19 590.365 233.744C585.732 244.553 579.04 247.513 575.695 249.186L512.382 275.823V228.725L508.522 221.004L529.368 205.562L567.202 237.604L544.811 205.562Z" fill="var(--fill-0, #DB1523)"/>
</g>
</g>
<defs>
<linearGradient id="paint0_linear_0_102" x1="342.428" y1="171.592" x2="342.428" y2="458.816" gradientUnits="userSpaceOnUse">
<stop stop-color="#E64926"/>
<stop offset="1" stop-color="#870924"/>
</linearGradient>
<linearGradient id="paint1_linear_0_102" x1="135.538" y1="-0.202156" x2="135.538" y2="193.983" gradientUnits="userSpaceOnUse">
<stop stop-color="#E94A2C"/>
<stop offset="1" stop-color="#D90E22"/>
</linearGradient>
<linearGradient id="paint2_linear_0_102" x1="222.603" y1="50.5011" x2="222.603" y2="148.456" gradientUnits="userSpaceOnUse">
<stop stop-color="#E9482C"/>
<stop offset="1" stop-color="#DC1924"/>
</linearGradient>
<linearGradient id="paint3_linear_0_102" x1="549.796" y1="-0.203184" x2="549.796" y2="193.982" gradientUnits="userSpaceOnUse">
<stop stop-color="#E94A2C"/>
<stop offset="1" stop-color="#D90E22"/>
</linearGradient>
<linearGradient id="paint4_linear_0_102" x1="462.729" y1="50.5015" x2="462.729" y2="148.457" gradientUnits="userSpaceOnUse">
<stop stop-color="#E9482C"/>
<stop offset="1" stop-color="#DC1924"/>
</linearGradient>
</defs>
</svg>
