<svg preserveAspectRatio="none" width="100%" height="100%" overflow="visible" style="display: block;" viewBox="0 0 112.317 17.3878" fill="none" xmlns="http://www.w3.org/2000/svg">
<g id="Origins Cloud">
<path id="Vector" d="M105.197 9.59046C105.197 10.1639 105.24 10.6886 105.325 11.1645C105.423 11.6281 105.569 12.0369 105.764 12.3907C106.033 12.83 106.356 13.1655 106.734 13.3974C107.125 13.6292 107.589 13.7451 108.125 13.7451C108.613 13.7451 109.041 13.617 109.407 13.3608C109.785 13.1045 110.096 12.7812 110.34 12.3907C110.596 11.9881 110.785 11.5427 110.907 11.0547C111.029 10.5544 111.09 10.0663 111.09 9.59046C111.09 9.00479 111.023 8.46181 110.889 7.96155C110.767 7.46128 110.578 7.02813 110.322 6.66208C110.078 6.29603 109.773 6.00929 109.407 5.80186C109.041 5.59444 108.613 5.49072 108.125 5.49072C107.088 5.49072 106.301 5.93608 105.764 6.8268C105.569 7.18065 105.423 7.5955 105.325 8.07136C105.24 8.53502 105.197 9.04139 105.197 9.59046ZM112.317 14.2942C112.317 14.465 112.231 14.5504 112.06 14.5504H111.347C111.176 14.5504 111.09 14.465 111.09 14.2942V12.9215C110.432 14.1661 109.37 14.7883 107.906 14.7883C106.6 14.7883 105.581 14.2881 104.849 13.2875C104.178 12.3602 103.843 11.1279 103.843 9.59046C103.843 6.16181 105.197 4.44749 107.906 4.44749C108.638 4.44749 109.285 4.5939 109.846 4.88674C110.419 5.17958 110.834 5.55783 111.09 6.02149V0.256234C111.09 0.0854112 111.176 0 111.347 0H112.06C112.231 0 112.317 0.0854112 112.317 0.256234V14.2942Z" fill="var(--fill-0, #1D2129)"/>
<path id="Vector_2" d="M101.162 14.2938C101.162 14.4646 101.077 14.55 100.906 14.55H100.247C100.076 14.55 99.9907 14.4646 99.9907 14.2938V12.7747C99.6734 13.5068 99.2464 14.0376 98.7095 14.367C98.1848 14.6843 97.5199 14.8429 96.7145 14.8429C94.4328 14.8429 93.292 13.5678 93.292 11.0177V4.90467C93.292 4.73385 93.3774 4.64844 93.5482 4.64844H94.2803C94.4511 4.64844 94.5366 4.73385 94.5366 4.90467V10.6882C94.5366 12.7625 95.3297 13.7996 96.9159 13.7996C97.3795 13.7996 97.7944 13.702 98.1604 13.5068C98.5387 13.2994 98.8559 13.0248 99.1122 12.6832C99.3684 12.3293 99.5636 11.9206 99.6978 11.4569C99.8321 10.9933 99.8931 10.5052 99.8809 9.99274V4.90467C99.8809 4.73385 99.9663 4.64844 100.137 4.64844H100.869C101.04 4.64844 101.125 4.73385 101.125 4.90467V12.2622C101.125 12.6649 101.125 13.0248 101.125 13.3421C101.138 13.6593 101.15 13.9766 101.162 14.2938Z" fill="var(--fill-0, #1D2129)"/>
<path id="Vector_3" d="M89.4413 9.60878C89.4413 9.03531 89.3619 8.49843 89.2033 7.99817C89.0569 7.4979 88.8495 7.05254 88.581 6.66209C87.9466 5.88119 87.123 5.49074 86.1102 5.49074C85.5978 5.49074 85.1341 5.59445 84.7192 5.80188C84.3166 5.99711 83.9566 6.28384 83.6394 6.66209C83.3588 7.05254 83.1391 7.4979 82.9805 7.99817C82.8341 8.49843 82.7609 9.03531 82.7609 9.60878C82.7609 10.1945 82.8341 10.7374 82.9805 11.2377C83.1391 11.738 83.3588 12.1772 83.6394 12.5555C84.2861 13.3486 85.1097 13.7451 86.1102 13.7451C86.6227 13.7451 87.0802 13.6414 87.4829 13.434C87.8978 13.2266 88.2638 12.9337 88.581 12.5555C88.8495 12.1772 89.0569 11.738 89.2033 11.2377C89.3619 10.7374 89.4413 10.1945 89.4413 9.60878ZM90.7956 9.60878C90.7956 10.3287 90.6919 10.9998 90.4845 11.622C90.2771 12.2321 90.0025 12.769 89.6609 13.2327C89.2338 13.7451 88.7214 14.1417 88.1235 14.4223C87.5378 14.703 86.8667 14.8433 86.1102 14.8433C85.3537 14.8433 84.6765 14.703 84.0787 14.4223C83.4808 14.1417 82.9683 13.7451 82.5412 13.2327C82.1996 12.769 81.9251 12.2321 81.7176 11.622C81.5224 10.9998 81.4248 10.3287 81.4248 9.60878C81.4248 8.13239 81.797 6.92443 82.5412 5.9849C83.3954 4.92336 84.585 4.39259 86.1102 4.39259C86.8789 4.39259 87.5561 4.52681 88.1418 4.79525C88.7275 5.05148 89.2338 5.44803 89.6609 5.9849C90.4174 6.94883 90.7956 8.15679 90.7956 9.60878Z" fill="var(--fill-0, #1D2129)"/>
<path id="Vector_4" d="M79.0785 14.2942C79.0785 14.465 78.9931 14.5504 78.8223 14.5504H78.017C77.8462 14.5504 77.7607 14.465 77.7607 14.2942V0.256234C77.7607 0.0854115 77.8462 2.99724e-07 78.017 2.99724e-07H78.8223C78.9931 2.99724e-07 79.0785 0.0854115 79.0785 0.256234V14.2942Z" fill="var(--fill-0, #1D2129)"/>
<path id="Vector_5" d="M74.724 13.2335C74.7972 13.2091 74.8643 13.2091 74.9253 13.2335C74.9863 13.2457 75.0168 13.2884 75.0168 13.3616L75.0534 14.0754C75.0656 14.234 74.9802 14.3438 74.7972 14.4048C74.3945 14.539 73.9797 14.6367 73.5526 14.6977C73.1256 14.7587 72.5887 14.7892 71.942 14.7892C69.8189 14.7892 68.129 14.1425 66.8722 12.8491C66.25 12.2146 65.7863 11.4764 65.4813 10.6345C65.1884 9.79262 65.042 8.84089 65.042 7.77935C65.042 5.69288 65.6704 4.00296 66.9271 2.70959C68.2083 1.41622 69.8799 0.769532 71.942 0.769532C72.2348 0.769532 72.4972 0.775632 72.729 0.787834C72.973 0.800035 73.2049 0.818337 73.4245 0.84274C73.6563 0.867144 73.8821 0.897648 74.1017 0.934252C74.3213 0.970857 74.5531 1.01966 74.7972 1.08067C74.9802 1.11728 75.0656 1.23319 75.0534 1.42842L75.0168 2.16051C74.9924 2.33134 74.9009 2.38624 74.7423 2.32524C74.2664 2.16661 73.8149 2.0629 73.3879 2.01409C72.9608 1.95309 72.4789 1.92258 71.942 1.92258C70.2216 1.92258 68.8489 2.47166 67.824 3.5698C66.8722 4.63134 66.3964 6.03452 66.3964 7.77935C66.3964 8.65787 66.5123 9.45097 66.7441 10.1587C66.9759 10.8664 67.3298 11.4825 67.8057 12.0072C68.794 13.1054 70.1728 13.6483 71.942 13.6361C72.4545 13.6239 72.9608 13.5873 73.4611 13.5263C73.9736 13.4653 74.3945 13.3677 74.724 13.2335Z" fill="var(--fill-0, #1D2129)"/>
<path id="Vector_6" d="M52.0821 13.3425C52.8264 13.6475 53.5951 13.8 54.3882 13.8C55.0471 13.8 55.5901 13.6414 56.0171 13.3242C56.4442 12.9947 56.6577 12.5555 56.6577 12.0064C56.6577 11.6892 56.5357 11.3841 56.2917 11.0913C56.0598 10.7862 55.7731 10.5361 55.4315 10.3409C55.0532 10.1334 54.6628 9.93822 54.2601 9.7552C53.8696 9.55997 53.4914 9.35865 53.1253 9.15122C52.6861 8.90719 52.3627 8.60825 52.1553 8.2544C51.9479 7.88835 51.8442 7.5101 51.8442 7.11965C51.8442 6.66819 51.9296 6.27164 52.1004 5.93C52.2712 5.58835 52.5031 5.30161 52.7959 5.06978C53.0887 4.83795 53.4304 4.66713 53.8208 4.55732C54.2113 4.4475 54.6261 4.39259 55.0654 4.39259C55.5291 4.39259 55.9317 4.417 56.2734 4.4658C56.615 4.51461 56.9567 4.58782 57.2983 4.68543C57.3715 4.70984 57.4325 4.74644 57.4813 4.79525C57.5423 4.84405 57.5667 4.91116 57.5545 4.99657L57.4996 5.54565C57.4874 5.64326 57.4508 5.70427 57.3898 5.72867C57.3288 5.75307 57.2678 5.75307 57.2068 5.72867C56.9017 5.61886 56.5967 5.54565 56.2917 5.50904C55.9866 5.46024 55.6206 5.43583 55.1935 5.43583C53.7781 5.43583 53.0704 5.99711 53.0704 7.11965C53.0704 7.36369 53.162 7.59552 53.345 7.81514C53.5402 8.03477 53.8635 8.2544 54.315 8.47403C54.7055 8.66926 55.0898 8.85838 55.4681 9.04141C55.8463 9.21223 56.2551 9.41966 56.6943 9.66369C57.0726 9.87112 57.3837 10.1884 57.6277 10.6154C57.884 11.0425 58.0121 11.5061 58.0121 12.0064C58.0121 12.4945 57.9145 12.9154 57.7193 13.2693C57.524 13.6231 57.2617 13.9159 56.9323 14.1478C56.6028 14.3796 56.2246 14.5504 55.7975 14.6602C55.3704 14.7823 54.9312 14.8433 54.4797 14.8433C54.2113 14.8433 53.9673 14.8372 53.7476 14.825C53.5402 14.8128 53.3389 14.7945 53.1437 14.7701C52.9606 14.7457 52.7715 14.7152 52.5763 14.6785C52.3811 14.6419 52.1736 14.5931 51.954 14.5321C51.7832 14.4711 51.7039 14.3613 51.7161 14.2027L51.7893 13.5255C51.8137 13.3303 51.9113 13.2693 52.0821 13.3425Z" fill="var(--fill-0, #1D2129)"/>
<path id="Vector_7" d="M49.3109 14.2942C49.3109 14.465 49.2255 14.5504 49.0547 14.5504H48.3226C48.1518 14.5504 48.0664 14.465 48.0664 14.2942V8.52894C48.0664 7.40639 47.8651 6.61329 47.4624 6.14963C47.0598 5.67376 46.4924 5.43583 45.7603 5.43583C44.772 5.43583 44.0154 5.71037 43.4908 6.25944C42.9783 6.80851 42.7221 7.57721 42.7221 8.56554V14.2942C42.7221 14.465 42.6367 14.5504 42.4658 14.5504H41.7338C41.5629 14.5504 41.4775 14.465 41.4775 14.2942V6.97323C41.4775 6.44856 41.4714 6.03981 41.4592 5.74697C41.4592 5.45413 41.447 5.1735 41.4226 4.90506C41.4104 4.81965 41.4287 4.75864 41.4775 4.72204C41.5385 4.67323 41.6056 4.64883 41.6788 4.64883H42.3377C42.5086 4.64883 42.594 4.73424 42.594 4.90506V5.91169C42.9356 5.38702 43.3444 5.00267 43.8202 4.75864C44.3083 4.51461 44.9733 4.39259 45.8152 4.39259C46.9743 4.39259 47.8468 4.72814 48.4324 5.39923C49.0181 6.07032 49.3109 7.01594 49.3109 8.2361V14.2942Z" fill="var(--fill-0, #1D2129)"/>
<path id="Vector_8" d="M38.3438 15.099C38.3438 15.2698 38.2584 15.3552 38.0876 15.3552H37.2823C37.1114 15.3552 37.026 15.2698 37.026 15.099V5.70986C37.026 5.53904 37.1114 5.45363 37.2823 5.45363H38.0876C38.2584 5.45363 38.3438 5.53904 38.3438 5.70986V15.099ZM36.7881 1.99448C36.7881 1.75044 36.8735 1.54302 37.0443 1.37219C37.2151 1.18917 37.4226 1.09766 37.6666 1.09766C37.9106 1.09766 38.1181 1.18917 38.2889 1.37219C38.4719 1.54302 38.5634 1.75044 38.5634 1.99448C38.5634 2.23851 38.4719 2.44593 38.2889 2.61676C38.1181 2.78758 37.9106 2.87299 37.6666 2.87299C37.4226 2.87299 37.2151 2.78758 37.0443 2.61676C36.8735 2.44593 36.7881 2.23851 36.7881 1.99448Z" fill="var(--fill-0, #1D2129)"/>
<path id="Vector_9" d="M32.6804 9.55436C32.6804 8.24879 32.412 7.24216 31.8751 6.53446C31.3382 5.82677 30.6122 5.47293 29.6971 5.47293C28.7088 5.47293 27.9645 5.80237 27.4642 6.46126C26.964 7.12014 26.7138 8.16338 26.7138 9.59097C26.7138 10.1156 26.787 10.5976 26.9335 11.0369C27.0799 11.4761 27.2812 11.8544 27.5374 12.1716C27.7937 12.4766 28.0987 12.7207 28.4526 12.9037C28.8064 13.0745 29.1908 13.1599 29.6056 13.1599C30.0327 13.1599 30.4353 13.0745 30.8136 12.9037C31.1918 12.7207 31.5152 12.4705 31.7836 12.1533C32.0642 11.8239 32.2839 11.4395 32.4425 11.0003C32.6011 10.561 32.6804 10.079 32.6804 9.55436ZM26.3844 16.9485C26.238 16.9119 26.177 16.8204 26.2014 16.674L26.2563 15.8687C26.2563 15.7101 26.3356 15.6735 26.4942 15.7589C26.9579 15.9663 27.4032 16.1127 27.8303 16.1981C28.2573 16.2957 28.721 16.3446 29.2213 16.3446C30.3316 16.3446 31.1613 16.0029 31.7104 15.3196C32.2717 14.6485 32.5889 13.7273 32.6621 12.556C32.3815 13.105 31.9666 13.5199 31.4175 13.8005C30.8685 14.0812 30.2584 14.2215 29.5873 14.2215C28.9894 14.2215 28.4343 14.1117 27.9218 13.892C27.4093 13.6724 26.964 13.3613 26.5857 12.9586C26.2075 12.556 25.9085 12.0679 25.6889 11.4944C25.4693 10.9209 25.3595 10.2865 25.3595 9.59097C25.3595 8.77346 25.4327 8.04746 25.5791 7.41298C25.7377 6.76629 25.9817 6.22332 26.3112 5.78407C26.6406 5.34481 27.0677 5.00926 27.5923 4.77743C28.117 4.5456 28.7515 4.42969 29.4958 4.42969C30.1425 4.42969 30.7099 4.5395 31.1979 4.75913C31.6982 4.96656 32.2046 5.34481 32.717 5.89388L32.6804 4.90555C32.6804 4.73473 32.7658 4.64932 32.9366 4.64932H33.6321C33.803 4.64932 33.8884 4.73473 33.8884 4.90555V12.2265C33.8884 13.0196 33.7847 13.7395 33.5772 14.3862C33.382 15.0207 33.0831 15.5576 32.6804 15.9968C32.29 16.4483 31.8019 16.7899 31.2162 17.0217C30.6305 17.2658 29.9595 17.3878 29.203 17.3878C28.6539 17.3878 28.1719 17.3512 27.7571 17.278C27.3422 17.217 26.8847 17.1072 26.3844 16.9485Z" fill="var(--fill-0, #1D2129)"/>
<path id="Vector_10" d="M22.8125 15.099C22.8125 15.2698 22.7271 15.3552 22.5563 15.3552H21.751C21.5802 15.3552 21.4948 15.2698 21.4948 15.099V5.70986C21.4948 5.53904 21.5802 5.45363 21.751 5.45363H22.5563C22.7271 5.45363 22.8125 5.53904 22.8125 5.70986V15.099ZM21.2568 1.99448C21.2568 1.75044 21.3422 1.54302 21.5131 1.37219C21.6839 1.18917 21.8913 1.09766 22.1354 1.09766C22.3794 1.09766 22.5868 1.18917 22.7576 1.37219C22.9407 1.54302 23.0322 1.75044 23.0322 1.99448C23.0322 2.23851 22.9407 2.44593 22.7576 2.61676C22.5868 2.78758 22.3794 2.87299 22.1354 2.87299C21.8913 2.87299 21.6839 2.78758 21.5131 2.61676C21.3422 2.44593 21.2568 2.23851 21.2568 1.99448Z" fill="var(--fill-0, #1D2129)"/>
<path id="Vector_11" d="M19.5128 5.76527C19.2932 5.69206 19.0003 5.65546 18.6343 5.65546C17.7314 5.65546 17.0603 6.10082 16.621 6.99154C16.2794 7.68703 16.1086 8.57775 16.1086 9.66369V14.2942C16.1086 14.465 16.0232 14.5504 15.8523 14.5504H15.1385C14.9677 14.5504 14.8823 14.465 14.8823 14.2942V6.86342C14.8823 6.42416 14.8762 6.07032 14.864 5.80188C14.864 5.52124 14.8579 5.2223 14.8457 4.90506C14.8457 4.73424 14.9311 4.64883 15.1019 4.64883H15.7791C15.9499 4.64883 16.0354 4.73424 16.0354 4.90506V6.6987C16.6332 5.1613 17.5118 4.39259 18.6709 4.39259C18.9515 4.39259 19.2322 4.4292 19.5128 4.50241C19.586 4.52681 19.647 4.56952 19.6958 4.63053C19.7568 4.67933 19.7874 4.75254 19.7874 4.85015V5.61886C19.7874 5.69207 19.7568 5.74087 19.6958 5.76527C19.6348 5.78968 19.5738 5.78968 19.5128 5.76527Z" fill="var(--fill-0, #1D2129)"/>
<path id="Vector_12" d="M10.6521 7.77885C10.6521 7.01015 10.5545 6.28415 10.3593 5.60086C10.164 4.91757 9.88951 4.30139 9.53566 3.75232C9.10861 3.15444 8.59614 2.69688 7.99826 2.37964C7.41258 2.0502 6.74759 1.88547 6.0033 1.88547C5.2468 1.88547 4.56961 2.0502 3.97173 2.37964C3.38605 2.69688 2.87969 3.15444 2.45263 3.75232C2.09878 4.30139 1.82425 4.91757 1.62902 5.60086C1.4338 6.28415 1.33618 7.01015 1.33618 7.77885C1.33618 8.54755 1.4338 9.27965 1.62902 9.97514C1.82425 10.6584 2.09878 11.2746 2.45263 11.8237C2.89189 12.4094 3.41046 12.8669 4.00833 13.1964C4.60621 13.5258 5.2712 13.6905 6.0033 13.6905C6.74759 13.6905 7.41258 13.5319 7.99826 13.2147C8.59614 12.8852 9.10861 12.4216 9.53566 11.8237C9.88951 11.2746 10.164 10.6584 10.3593 9.97514C10.5545 9.27965 10.6521 8.54755 10.6521 7.77885ZM11.9882 7.77885C11.9638 9.95074 11.4635 11.6468 10.4874 12.8669C9.42585 14.1847 7.93115 14.8436 6.0033 14.8436C4.07544 14.8436 2.57465 14.1847 1.5009 12.8669C0.500373 11.6102 0.000106812 9.91413 0.000106812 7.77885C0.000106812 6.76612 0.122123 5.851 0.366155 5.03349C0.610187 4.21598 0.964034 3.48999 1.42769 2.8555C1.97677 2.18441 2.63565 1.66585 3.40435 1.2998C4.18526 0.921547 5.05157 0.732422 6.0033 0.732422C6.96722 0.732422 7.82744 0.915446 8.58394 1.2815C9.35264 1.64754 10.0115 2.17831 10.5606 2.8738C11.0365 3.53269 11.3964 4.27089 11.6404 5.0884C11.8845 5.8937 12.0004 6.79052 11.9882 7.77885Z" fill="var(--fill-0, #1D2129)"/>
</g>
</svg>
