<svg preserveAspectRatio="none" width="100%" height="100%" overflow="visible" style="display: block;" viewBox="0 0 239.359 36" fill="none" xmlns="http://www.w3.org/2000/svg">
<g id="Group 4">
<g id="Group 2">
<path id="Vector" d="M32.0329 35.9932C24.5918 35.9932 17.1508 35.9915 9.70802 35.995C9.0243 35.995 8.39958 35.7655 7.75057 35.5934C7.08594 35.4161 6.43172 35.2527 5.80701 34.9433C4.01962 34.0585 2.49427 32.873 1.44265 31.159C0.337252 29.3564 -0.143433 27.38 0.0370406 25.2731C0.234868 22.9908 1.02965 20.9795 2.6626 19.2847C3.72288 18.1844 4.95496 17.4143 6.34669 16.9084C7.74537 16.4008 9.20477 16.0931 10.7145 16.3695C11.1535 16.4495 11.2802 16.2582 11.2299 15.8515C11.1136 14.9006 11.1171 13.9376 11.2143 12.992C11.2785 12.3592 11.5179 11.7369 11.7262 11.1181C12.2815 9.46845 13.3106 8.19775 14.6242 7.12001C15.8476 6.11701 17.2462 5.51208 18.808 5.23743C20.0071 5.02709 21.1888 5.03405 22.3567 5.32608C23.9376 5.72241 25.3935 6.38818 26.5753 7.54763C27.2104 8.16994 27.2521 8.19254 27.705 7.42595C28.4078 6.23869 29.2182 5.11053 30.2177 4.18402C31.2884 3.19319 32.4598 2.30665 33.7977 1.63567C34.799 1.1333 35.8489 0.787375 36.8883 0.436238C37.6154 0.1894 38.4189 0.0433831 39.2206 0.0260001C40.4527 -7.43576e-05 41.69 -0.0470085 42.9082 0.126822C43.8852 0.267623 44.8465 0.523153 45.7767 0.879505C47.191 1.42185 48.5584 2.03548 49.7419 3.00893C50.8733 3.93892 51.9926 4.89498 52.7718 6.1396C53.1744 6.78278 53.695 7.34077 54.0108 8.05C54.3353 8.78182 54.7188 9.49974 54.934 10.2611C55.1891 11.165 55.4962 12.0689 55.5674 13.0198C55.5865 13.2858 55.6021 13.5343 55.9821 13.55C57.143 13.6004 58.2328 13.9654 59.3139 14.36C60.6363 14.8415 61.7694 15.6151 62.7794 16.5816C63.4839 17.2578 64.1312 18.0018 64.6154 18.838C65.2956 20.0096 65.8284 21.249 66.047 22.6222C66.1633 23.3471 66.2292 24.0598 66.2257 24.7864C66.2188 26.184 65.9169 27.519 65.3945 28.8158C64.8167 30.2516 63.9872 31.5362 62.8505 32.5601C61.9516 33.3701 61.0319 34.1871 59.8658 34.6634C58.9773 35.0267 58.0662 35.2597 57.15 35.5204C55.2949 36.0471 53.4242 35.9915 51.5449 35.995C45.0409 36.0037 38.5352 35.9984 32.0312 35.9984C32.0329 35.9967 32.0329 35.995 32.0329 35.9932Z" fill="var(--fill-0, #0289F2)"/>
<path id="Vector_2" d="M25.6185 11.2971C26.2491 11.2971 26.719 11.5049 27.1745 11.7789C27.9867 12.2685 28.8847 13.7272 28.9309 15.1735C29.0365 18.4693 30.3306 21.1755 32.779 23.3675C34.8995 25.2652 37.4206 25.8571 40.1067 26.0568C41.6164 26.1693 42.8674 27.291 43.2031 28.852C43.4705 30.0961 42.5858 31.8445 41.3742 32.4677C39.2252 33.5727 36.8021 32.1565 36.5403 29.6435C36.4224 28.5149 36.2716 27.391 35.3451 26.6004C34.0808 25.5225 32.6976 25.1957 31.1328 25.9052C29.5945 26.6037 28.9869 27.8346 28.9022 29.4987C28.7966 31.5638 26.7916 33.2379 25.0299 32.836C23.2406 32.4282 22.1093 30.9225 22.2193 29.0955C22.3174 27.4516 23.66 26.1895 25.4701 26.0389C27.8843 25.8368 29.2828 24.3119 29.2873 21.9404C29.2906 20.1739 28.0021 18.2863 25.4666 18.2661C23.6709 18.2515 22.1754 16.5042 22.2238 14.6963C22.2733 12.8581 23.7645 11.3982 25.6185 11.2971ZM37.565 11.4255C40.7507 11.1986 43.0989 14.2036 43.2188 16.9548C43.3542 20.0517 40.6792 22.7467 37.6037 22.7714C34.6271 22.7951 31.9805 20.0988 31.9838 17.0456C31.9871 14.0216 34.561 11.4311 37.565 11.4255Z" fill="var(--fill-0, white)"/>
</g>
<g id="Vector_3">
<path d="M229.175 20.697C229.175 21.5174 229.236 22.2679 229.358 22.9486C229.498 23.6119 229.707 24.1966 229.986 24.7028C230.37 25.3312 230.833 25.8112 231.374 26.1428C231.933 26.4744 232.596 26.6403 233.364 26.6403C234.062 26.6403 234.673 26.457 235.197 26.0904C235.738 25.7239 236.183 25.2614 236.532 24.7028C236.898 24.1268 237.169 23.4897 237.344 22.7915C237.518 22.0759 237.605 21.3777 237.605 20.697C237.605 19.8592 237.509 19.0824 237.317 18.3668C237.143 17.6512 236.872 17.0315 236.506 16.5079C236.157 15.9843 235.72 15.5741 235.197 15.2774C234.673 14.9806 234.062 14.8323 233.364 14.8323C231.88 14.8323 230.754 15.4694 229.986 16.7435C229.707 17.2497 229.498 17.8432 229.358 18.5239C229.236 19.1872 229.175 19.9115 229.175 20.697ZM239.36 27.4257C239.36 27.6701 239.237 27.7923 238.993 27.7923H237.972C237.728 27.7923 237.605 27.6701 237.605 27.4257V25.4621C236.663 27.2424 235.144 28.1326 233.05 28.1326C231.182 28.1326 229.725 27.417 228.677 25.9857C227.717 24.6592 227.237 22.8963 227.237 20.697C227.237 15.7923 229.175 13.3399 233.05 13.3399C234.097 13.3399 235.022 13.5494 235.825 13.9683C236.645 14.3872 237.239 14.9283 237.605 15.5915V7.34426C237.605 7.0999 237.728 6.97772 237.972 6.97772H238.993C239.237 6.97772 239.36 7.0999 239.36 7.34426V27.4257Z" fill="var(--fill-0, #2D3760)"/>
<path d="M223.403 27.4257C223.403 27.6701 223.281 27.7923 223.037 27.7923H222.094C221.85 27.7923 221.728 27.6701 221.728 27.4257V25.2526C221.274 26.2999 220.663 27.0592 219.895 27.5304C219.144 27.9843 218.193 28.2112 217.041 28.2112C213.777 28.2112 212.145 26.3872 212.145 22.7392V13.9944C212.145 13.7501 212.267 13.6279 212.512 13.6279H213.559C213.803 13.6279 213.925 13.7501 213.925 13.9944V22.2679C213.925 25.2352 215.06 26.7188 217.329 26.7188C217.992 26.7188 218.586 26.5792 219.109 26.2999C219.65 26.0032 220.104 25.6104 220.471 25.1217C220.837 24.6155 221.117 24.0308 221.309 23.3675C221.501 22.7043 221.588 22.0061 221.57 21.273V13.9944C221.57 13.7501 221.693 13.6279 221.937 13.6279H222.984C223.229 13.6279 223.351 13.7501 223.351 13.9944V24.5195C223.351 25.0955 223.351 25.6104 223.351 26.0643C223.368 26.5181 223.386 26.9719 223.403 27.4257Z" fill="var(--fill-0, #2D3760)"/>
<path d="M206.635 20.7232C206.635 19.9028 206.522 19.1348 206.295 18.4192C206.085 17.7035 205.789 17.0664 205.405 16.5079C204.497 15.3908 203.319 14.8323 201.87 14.8323C201.137 14.8323 200.474 14.9806 199.88 15.2774C199.304 15.5566 198.789 15.9668 198.335 16.5079C197.934 17.0664 197.62 17.7035 197.393 18.4192C197.183 19.1348 197.079 19.9028 197.079 20.7232C197.079 21.561 197.183 22.3377 197.393 23.0534C197.62 23.769 197.934 24.3974 198.335 24.9384C199.261 26.073 200.439 26.6403 201.87 26.6403C202.603 26.6403 203.258 26.4919 203.834 26.1952C204.427 25.8984 204.951 25.4795 205.405 24.9384C205.789 24.3974 206.085 23.769 206.295 23.0534C206.522 22.3377 206.635 21.561 206.635 20.7232ZM208.573 20.7232C208.573 21.753 208.424 22.713 208.127 23.6032C207.831 24.4759 207.438 25.2439 206.949 25.9072C206.338 26.6403 205.605 27.2075 204.75 27.609C203.912 28.0104 202.952 28.2112 201.87 28.2112C200.788 28.2112 199.819 28.0104 198.964 27.609C198.109 27.2075 197.375 26.6403 196.765 25.9072C196.276 25.2439 195.883 24.4759 195.586 23.6032C195.307 22.713 195.167 21.753 195.167 20.7232C195.167 18.6112 195.7 16.8832 196.765 15.5392C197.986 14.0206 199.688 13.2614 201.87 13.2614C202.97 13.2614 203.938 13.4534 204.776 13.8374C205.614 14.2039 206.338 14.7712 206.949 15.5392C208.031 16.9181 208.573 18.6461 208.573 20.7232Z" fill="var(--fill-0, #2D3760)"/>
<path d="M191.811 27.4257C191.811 27.6701 191.689 27.7923 191.445 27.7923H190.293C190.048 27.7923 189.926 27.6701 189.926 27.4257V7.34426C189.926 7.0999 190.048 6.97772 190.293 6.97772H191.445C191.689 6.97772 191.811 7.0999 191.811 7.34426V27.4257Z" fill="var(--fill-0, #2D3760)"/>
<path d="M185.583 25.9072C185.688 25.8723 185.784 25.8723 185.871 25.9072C185.959 25.9246 186.002 25.9857 186.002 26.0904L186.055 27.1115C186.072 27.3384 185.95 27.4955 185.688 27.5828C185.112 27.7748 184.519 27.9144 183.908 28.0017C183.297 28.089 182.529 28.1326 181.604 28.1326C178.567 28.1326 176.149 27.2075 174.351 25.3574C173.461 24.4497 172.798 23.3937 172.361 22.1894C171.943 20.985 171.733 19.6235 171.733 18.105C171.733 15.1203 172.632 12.7028 174.43 10.8526C176.263 9.00245 178.654 8.07735 181.604 8.07735C182.023 8.07735 182.398 8.08608 182.729 8.10354C183.079 8.12099 183.41 8.14717 183.724 8.18208C184.056 8.21699 184.379 8.26063 184.693 8.31299C185.007 8.36535 185.339 8.43517 185.688 8.52244C185.95 8.57481 186.072 8.74063 186.055 9.0199L186.002 10.0672C185.967 10.3115 185.836 10.3901 185.609 10.3028C184.929 10.0759 184.283 9.92754 183.672 9.85772C183.061 9.77044 182.372 9.72681 181.604 9.72681C179.143 9.72681 177.179 10.5123 175.713 12.0832C174.351 13.6017 173.671 15.609 173.671 18.105C173.671 19.3617 173.836 20.4963 174.168 21.5086C174.5 22.521 175.006 23.4024 175.687 24.153C177.1 25.7239 179.073 26.5006 181.604 26.4832C182.337 26.4657 183.061 26.4134 183.777 26.3261C184.51 26.2388 185.112 26.0992 185.583 25.9072Z" fill="var(--fill-0, #2D3760)"/>
<path d="M153.194 26.0643C154.258 26.5006 155.358 26.7188 156.493 26.7188C157.435 26.7188 158.212 26.4919 158.823 26.0381C159.434 25.5668 159.739 24.9384 159.739 24.153C159.739 23.6992 159.565 23.2628 159.216 22.8439C158.884 22.4075 158.474 22.0497 157.985 21.7704C157.444 21.4737 156.885 21.1944 156.309 20.9326C155.751 20.6534 155.21 20.3654 154.686 20.0686C154.058 19.7195 153.595 19.2919 153.298 18.7857C153.002 18.2621 152.853 17.721 152.853 17.1624C152.853 16.5166 152.976 15.9494 153.22 15.4606C153.464 14.9719 153.796 14.5617 154.215 14.2301C154.634 13.8984 155.122 13.6541 155.681 13.497C156.24 13.3399 156.833 13.2614 157.461 13.2614C158.125 13.2614 158.701 13.2963 159.189 13.3661C159.678 13.4359 160.167 13.5406 160.656 13.6803C160.76 13.7152 160.848 13.7675 160.917 13.8374C161.005 13.9072 161.04 14.0032 161.022 14.1254L160.944 14.9108C160.926 15.0504 160.874 15.1377 160.786 15.1726C160.699 15.2075 160.612 15.2075 160.525 15.1726C160.088 15.0155 159.652 14.9108 159.216 14.8584C158.779 14.7886 158.256 14.7537 157.645 14.7537C155.62 14.7537 154.608 15.5566 154.608 17.1624C154.608 17.5115 154.738 17.8432 155 18.1574C155.28 18.4715 155.742 18.7857 156.388 19.0999C156.946 19.3792 157.496 19.6497 158.037 19.9115C158.578 20.1559 159.163 20.4526 159.792 20.8017C160.333 21.0984 160.778 21.5523 161.127 22.1632C161.493 22.7741 161.677 23.4374 161.677 24.153C161.677 24.8512 161.537 25.4534 161.258 25.9595C160.978 26.4657 160.603 26.8846 160.132 27.2163C159.661 27.5479 159.12 27.7923 158.509 27.9494C157.898 28.1239 157.269 28.2112 156.624 28.2112C156.24 28.2112 155.89 28.2024 155.576 28.185C155.28 28.1675 154.992 28.1414 154.712 28.1064C154.45 28.0715 154.18 28.0279 153.901 27.9755C153.621 27.9232 153.325 27.8534 153.01 27.7661C152.766 27.6788 152.653 27.5217 152.67 27.2948L152.775 26.3261C152.81 26.0468 152.949 25.9595 153.194 26.0643Z" fill="var(--fill-0, #2D3760)"/>
<path d="M149.229 27.4257C149.229 27.6701 149.106 27.7923 148.862 27.7923H147.815C147.57 27.7923 147.448 27.6701 147.448 27.4257V19.1784C147.448 17.5726 147.16 16.4381 146.584 15.7748C146.008 15.0941 145.197 14.7537 144.149 14.7537C142.736 14.7537 141.653 15.1464 140.903 15.9319C140.17 16.7174 139.803 17.817 139.803 19.2308V27.4257C139.803 27.6701 139.681 27.7923 139.437 27.7923H138.389C138.145 27.7923 138.023 27.6701 138.023 27.4257V16.953C138.023 16.2024 138.014 15.6177 137.997 15.1988C137.997 14.7799 137.979 14.3784 137.944 13.9944C137.927 13.8723 137.953 13.785 138.023 13.7326C138.11 13.6628 138.206 13.6279 138.311 13.6279H139.253C139.498 13.6279 139.62 13.7501 139.62 13.9944V15.4344C140.109 14.6839 140.693 14.1341 141.374 13.785C142.072 13.4359 143.024 13.2614 144.228 13.2614C145.886 13.2614 147.134 13.7414 147.972 14.7014C148.81 15.6614 149.229 17.0141 149.229 18.7595V27.4257Z" fill="var(--fill-0, #2D3760)"/>
<path d="M133.541 28.5777C133.541 28.8221 133.419 28.9443 133.174 28.9443H132.022C131.778 28.9443 131.656 28.8221 131.656 28.5777V15.1464C131.656 14.9021 131.778 14.7799 132.022 14.7799H133.174C133.419 14.7799 133.541 14.9021 133.541 15.1464V28.5777ZM131.315 9.83154C131.315 9.48244 131.438 9.18572 131.682 8.94135C131.926 8.67954 132.223 8.54863 132.572 8.54863C132.921 8.54863 133.218 8.67954 133.462 8.94135C133.724 9.18572 133.855 9.48244 133.855 9.83154C133.855 10.1806 133.724 10.4774 133.462 10.7217C133.218 10.9661 132.921 11.0883 132.572 11.0883C132.223 11.0883 131.926 10.9661 131.682 10.7217C131.438 10.4774 131.315 10.1806 131.315 9.83154Z" fill="var(--fill-0, #2D3760)"/>
<path d="M125.439 20.6446C125.439 18.777 125.055 17.337 124.287 16.3246C123.519 15.3123 122.48 14.8061 121.171 14.8061C119.757 14.8061 118.693 15.2774 117.977 16.2199C117.261 17.1624 116.904 18.6548 116.904 20.697C116.904 21.4475 117.008 22.137 117.218 22.7654C117.427 23.3937 117.715 23.9348 118.082 24.3886C118.448 24.825 118.885 25.1741 119.391 25.4359C119.897 25.6803 120.447 25.8024 121.04 25.8024C121.651 25.8024 122.227 25.6803 122.768 25.4359C123.309 25.1741 123.772 24.8163 124.156 24.3624C124.558 23.8912 124.872 23.3414 125.099 22.713C125.325 22.0846 125.439 21.3952 125.439 20.6446ZM116.432 31.2221C116.223 31.1697 116.136 31.0388 116.171 30.8294L116.249 29.6774C116.249 29.4504 116.363 29.3981 116.59 29.5203C117.253 29.817 117.89 30.0264 118.501 30.1486C119.112 30.2883 119.775 30.3581 120.491 30.3581C122.079 30.3581 123.266 29.8694 124.051 28.8919C124.854 27.9319 125.308 26.6141 125.413 24.9384C125.011 25.7239 124.418 26.3174 123.632 26.7188C122.847 27.1203 121.974 27.321 121.014 27.321C120.159 27.321 119.365 27.1639 118.632 26.8497C117.899 26.5355 117.262 26.0904 116.72 25.5144C116.179 24.9384 115.752 24.2403 115.437 23.4199C115.123 22.5995 114.966 21.6919 114.966 20.697C114.966 19.5275 115.071 18.489 115.28 17.5814C115.507 16.6563 115.856 15.8795 116.328 15.2512C116.799 14.6228 117.41 14.1428 118.16 13.8112C118.911 13.4795 119.819 13.3137 120.883 13.3137C121.808 13.3137 122.62 13.4708 123.318 13.785C124.034 14.0817 124.758 14.6228 125.491 15.4083L125.439 13.9944C125.439 13.7501 125.561 13.6279 125.806 13.6279H126.8C127.045 13.6279 127.167 13.7501 127.167 13.9944V24.4672C127.167 25.6017 127.019 26.6315 126.722 27.5566C126.443 28.4643 126.015 29.2323 125.439 29.8606C124.88 30.5064 124.182 30.9952 123.344 31.3268C122.507 31.6759 121.547 31.8504 120.464 31.8504C119.679 31.8504 118.99 31.7981 118.396 31.6934C117.803 31.6061 117.148 31.449 116.432 31.2221Z" fill="var(--fill-0, #2D3760)"/>
<path d="M111.322 28.5777C111.322 28.8221 111.2 28.9443 110.956 28.9443H109.804C109.559 28.9443 109.437 28.8221 109.437 28.5777V15.1464C109.437 14.9021 109.559 14.7799 109.804 14.7799H110.956C111.2 14.7799 111.322 14.9021 111.322 15.1464V28.5777ZM109.097 9.83154C109.097 9.48244 109.219 9.18572 109.463 8.94135C109.708 8.67954 110.004 8.54863 110.353 8.54863C110.702 8.54863 110.999 8.67954 111.244 8.94135C111.505 9.18572 111.636 9.48244 111.636 9.83154C111.636 10.1806 111.505 10.4774 111.244 10.7217C110.999 10.9661 110.702 11.0883 110.353 11.0883C110.004 11.0883 109.708 10.9661 109.463 10.7217C109.219 10.4774 109.097 10.1806 109.097 9.83154Z" fill="var(--fill-0, #2D3760)"/>
<path d="M106.602 15.225C106.288 15.1203 105.869 15.0679 105.345 15.0679C104.054 15.0679 103.094 15.705 102.465 16.9792C101.977 17.9741 101.732 19.2483 101.732 20.8017V27.4257C101.732 27.6701 101.61 27.7923 101.366 27.7923H100.345C100.1 27.7923 99.978 27.6701 99.978 27.4257V16.7959C99.978 16.1675 99.9692 15.6614 99.9518 15.2774C99.9518 14.8759 99.943 14.4483 99.9256 13.9944C99.9256 13.7501 100.048 13.6279 100.292 13.6279H101.261C101.505 13.6279 101.627 13.7501 101.627 13.9944V16.5603C102.483 14.361 103.739 13.2614 105.398 13.2614C105.799 13.2614 106.201 13.3137 106.602 13.4184C106.707 13.4534 106.794 13.5144 106.864 13.6017C106.951 13.6715 106.995 13.7763 106.995 13.9159V15.0155C106.995 15.1203 106.951 15.1901 106.864 15.225C106.777 15.2599 106.689 15.2599 106.602 15.225Z" fill="var(--fill-0, #2D3760)"/>
<path d="M93.9271 18.105C93.9271 17.0054 93.7875 15.9668 93.5082 14.9894C93.2289 14.0119 92.8362 13.1304 92.33 12.345C91.7191 11.4897 90.986 10.8352 90.1307 10.3814C89.2929 9.91008 88.3416 9.67444 87.2769 9.67444C86.1947 9.67444 85.226 9.91008 84.3707 10.3814C83.5329 10.8352 82.8086 11.4897 82.1976 12.345C81.6915 13.1304 81.2987 14.0119 81.0195 14.9894C80.7402 15.9668 80.6006 17.0054 80.6006 18.105C80.6006 19.2046 80.7402 20.2519 81.0195 21.2468C81.2987 22.2243 81.6915 23.1057 82.1976 23.8912C82.826 24.729 83.5678 25.3835 84.4231 25.8548C85.2784 26.3261 86.2296 26.5617 87.2769 26.5617C88.3416 26.5617 89.2929 26.3348 90.1307 25.881C90.986 25.4097 91.7191 24.7464 92.33 23.8912C92.8362 23.1057 93.2289 22.2243 93.5082 21.2468C93.7875 20.2519 93.9271 19.2046 93.9271 18.105ZM95.8384 18.105C95.8035 21.2119 95.0878 23.6381 93.6915 25.3835C92.1729 27.2686 90.0347 28.2112 87.2769 28.2112C84.5191 28.2112 82.3722 27.2686 80.8362 25.3835C79.4049 23.5857 78.6893 21.1595 78.6893 18.105C78.6893 16.6563 78.8638 15.3472 79.2129 14.1777C79.562 13.0083 80.0682 11.9697 80.7315 11.0621C81.5169 10.1021 82.4595 9.36026 83.5591 8.83663C84.6762 8.29554 85.9155 8.02499 87.2769 8.02499C88.6558 8.02499 89.8864 8.28681 90.9685 8.81045C92.0682 9.33408 93.0107 10.0934 93.7962 11.0883C94.4769 12.0308 94.9918 13.0868 95.3409 14.2563C95.69 15.4083 95.8558 16.6912 95.8384 18.105Z" fill="var(--fill-0, #2D3760)"/>
</g>
</g>
</svg>
