<svg preserveAspectRatio="none" width="100%" height="100%" overflow="visible" style="display: block;" viewBox="0 0 46.2952 25.1658" fill="none" xmlns="http://www.w3.org/2000/svg">
<g id="Group 2">
<path id="Vector" d="M22.3926 25.1611C17.1909 25.1611 11.9893 25.1599 6.78639 25.1623C6.30844 25.1623 5.87173 25.0019 5.41804 24.8816C4.95343 24.7576 4.4961 24.6434 4.05939 24.4271C2.80992 23.8086 1.74362 22.9799 1.00849 21.7817C0.235756 20.5216 -0.100267 19.14 0.0258932 17.6672C0.164184 16.0717 0.719775 14.6658 1.86129 13.481C2.60248 12.7118 3.46377 12.1735 4.43666 11.8198C5.4144 11.465 6.4346 11.2499 7.48998 11.4431C7.79689 11.499 7.88543 11.3653 7.85025 11.081C7.76898 10.4163 7.77141 9.7431 7.83935 9.08205C7.88423 8.63973 8.05162 8.2047 8.19719 7.77211C8.58538 6.61892 9.30475 5.73064 10.223 4.97724C11.0783 4.2761 12.056 3.85322 13.1477 3.66123C13.986 3.51419 14.8121 3.51905 15.6285 3.7232C16.7336 4.00025 17.7514 4.46566 18.5775 5.27617C19.0215 5.7112 19.0506 5.727 19.3672 5.19111C19.8585 4.36116 20.425 3.57252 21.1237 2.92484C21.8722 2.2322 22.691 1.61247 23.6263 1.14341C24.3263 0.792231 25.0602 0.550415 25.7868 0.304953C26.2951 0.1324 26.8567 0.030327 27.4172 0.0181754C28.2785 -5.19797e-05 29.1434 -0.0328613 29.995 0.0886546C30.6779 0.187082 31.35 0.365711 32.0002 0.614818C32.9889 0.993948 33.9448 1.4229 34.7721 2.10339C35.563 2.7535 36.3454 3.42184 36.8901 4.29189C37.1716 4.7415 37.5355 5.13157 37.7563 5.62735C37.9831 6.13893 38.2512 6.64079 38.4016 7.17303C38.5799 7.80492 38.7947 8.4368 38.8444 9.10149C38.8577 9.28741 38.8687 9.46118 39.1343 9.47212C39.9459 9.50735 40.7077 9.76254 41.4634 10.0384C42.3878 10.375 43.1799 10.9157 43.886 11.5914C44.3785 12.064 44.8309 12.5842 45.1694 13.1687C45.6449 13.9877 46.0173 14.8541 46.1702 15.8141C46.2515 16.3208 46.2976 16.819 46.2951 17.327C46.2903 18.3039 46.0792 19.2372 45.7141 20.1437C45.3101 21.1474 44.7303 22.0454 43.9357 22.7611C43.3073 23.3274 42.6644 23.8985 41.8492 24.2315C41.2281 24.4855 40.5912 24.6483 39.9507 24.8306C38.6539 25.1988 37.3462 25.1599 36.0325 25.1623C31.4858 25.1684 26.938 25.1647 22.3914 25.1647C22.3926 25.1635 22.3926 25.1623 22.3926 25.1611Z" fill="var(--fill-0, #0289F2)"/>
<path id="Vector_2" d="M17.9086 7.89648C18.3495 7.89648 18.678 8.04173 18.9964 8.23327C19.5641 8.57552 20.1919 9.5952 20.2242 10.6063C20.298 12.9102 21.2026 14.802 22.9142 16.3343C24.3966 17.6609 26.1589 18.0746 28.0366 18.2142C29.092 18.2929 29.9665 19.077 30.2011 20.1682C30.3881 21.0379 29.7696 22.2601 28.9227 22.6957C27.4204 23.4682 25.7266 22.4782 25.5435 20.7215C25.4612 19.9326 25.3557 19.1469 24.7081 18.5942C23.8242 17.8407 22.8573 17.6123 21.7634 18.1083C20.688 18.5965 20.2633 19.457 20.2042 20.6203C20.1303 22.0639 18.7287 23.2342 17.4972 22.9532C16.2464 22.6682 15.4556 21.6156 15.5325 20.3385C15.601 19.1893 16.5396 18.307 17.8049 18.2017C19.4926 18.0604 20.4702 16.9945 20.4733 15.3366C20.4756 14.1018 19.5749 12.7822 17.8025 12.7681C16.5472 12.7579 15.5018 11.5365 15.5356 10.2727C15.5702 8.98769 16.6126 7.96716 17.9086 7.89648ZM26.2598 7.9862C28.4868 7.82763 30.1284 9.92824 30.2122 11.8515C30.3068 14.0164 28.4368 15.9003 26.2869 15.9176C24.2061 15.9341 22.356 14.0493 22.3583 11.9149C22.3606 9.80102 24.1599 7.99014 26.2598 7.9862Z" fill="var(--fill-0, white)"/>
</g>
</svg>
