<svg width="30" height="30" viewBox="0 0 30 30" fill="none" xmlns="http://www.w3.org/2000/svg">
<rect width="30" height="30" rx="8" fill="white"/>
<path d="M13.5061 18.9777L20.583 11.9008L19.4737 10.7915L13.5061 16.7591L10.5061 13.7591L9.39676 14.8684L13.5061 18.9777ZM15.0018 24.5C13.6187 24.5 12.3186 24.2375 11.1016 23.7126C9.88464 23.1877 8.82603 22.4754 7.92578 21.5755C7.02554 20.6757 6.31285 19.6175 5.78771 18.4011C5.26257 17.1846 5 15.8848 5 14.5018C5 13.1187 5.26245 11.8186 5.78736 10.6016C6.31227 9.38464 7.02464 8.32603 7.92448 7.42578C8.82433 6.52554 9.88247 5.81285 11.0989 5.28771C12.3154 4.76257 13.6151 4.5 14.9982 4.5C16.3813 4.5 17.6814 4.76245 18.8984 5.28736C20.1154 5.81227 21.174 6.52464 22.0742 7.42448C22.9745 8.32433 23.6871 9.38247 24.2123 10.5989C24.7374 11.8154 25 13.1151 25 14.4982C25 15.8813 24.7375 17.1814 24.2126 18.3984C23.6877 19.6154 22.9754 20.674 22.0755 21.5742C21.1757 22.4745 20.1175 23.1871 18.9011 23.7123C17.6846 24.2374 16.3848 24.5 15.0018 24.5ZM15 22.9211C17.3509 22.9211 19.3421 22.1053 20.9737 20.4737C22.6053 18.8421 23.4211 16.8509 23.4211 14.5C23.4211 12.1491 22.6053 10.1579 20.9737 8.52629C19.3421 6.89471 17.3509 6.07891 15 6.07891C12.6491 6.07891 10.6579 6.89471 9.02629 8.52629C7.39471 10.1579 6.57891 12.1491 6.57891 14.5C6.57891 16.8509 7.39471 18.8421 9.02629 20.4737C10.6579 22.1053 12.6491 22.9211 15 22.9211Z" fill="#14AE5C"/>
</svg>
