<svg width="30" height="30" viewBox="0 0 30 30" fill="none" xmlns="http://www.w3.org/2000/svg">
<rect width="30" height="30" rx="8" fill="white"/>
<path d="M11.2105 20.3988L15 16.6093L18.7895 20.3988L19.8988 19.2895L16.1093 15.5L19.8988 11.7105L18.7895 10.6012L15 14.3907L11.2105 10.6012L10.1012 11.7105L13.8907 15.5L10.1012 19.2895L11.2105 20.3988ZM15.0018 25.5C13.6187 25.5 12.3186 25.2375 11.1016 24.7126C9.88464 24.1877 8.82603 23.4754 7.92578 22.5755C7.02554 21.6757 6.31285 20.6175 5.78771 19.4011C5.26257 18.1846 5 16.8848 5 15.5018C5 14.1187 5.26245 12.8186 5.78736 11.6016C6.31227 10.3846 7.02464 9.32603 7.92448 8.42578C8.82433 7.52554 9.88247 6.81285 11.0989 6.28771C12.3154 5.76257 13.6151 5.5 14.9982 5.5C16.3813 5.5 17.6814 5.76245 18.8984 6.28736C20.1154 6.81227 21.174 7.52464 22.0742 8.42448C22.9745 9.32433 23.6871 10.3825 24.2123 11.5989C24.7374 12.8154 25 14.1151 25 15.4982C25 16.8813 24.7375 18.1814 24.2126 19.3984C23.6877 20.6154 22.9754 21.674 22.0755 22.5742C21.1757 23.4745 20.1175 24.1871 18.9011 24.7123C17.6846 25.2374 16.3848 25.5 15.0018 25.5ZM15 23.9211C17.3509 23.9211 19.3421 23.1053 20.9737 21.4737C22.6053 19.8421 23.4211 17.8509 23.4211 15.5C23.4211 13.1491 22.6053 11.1579 20.9737 9.52629C19.3421 7.89471 17.3509 7.07891 15 7.07891C12.6491 7.07891 10.6579 7.89471 9.02629 9.52629C7.39471 11.1579 6.57891 13.1491 6.57891 15.5C6.57891 17.8509 7.39471 19.8421 9.02629 21.4737C10.6579 23.1053 12.6491 23.9211 15 23.9211Z" fill="#FF5F57"/>
</svg>
