<svg preserveAspectRatio="none" width="100%" height="100%" overflow="visible" style="display: block;" viewBox="0 0 20 20" fill="none" xmlns="http://www.w3.org/2000/svg">
<g id="Frame">
<path id="Vector" fill-rule="evenodd" clip-rule="evenodd" d="M10 18.3333C14.6024 18.3333 18.3333 14.6024 18.3333 10C18.3333 5.39762 14.6024 1.66667 10 1.66667C5.39762 1.66667 1.66667 5.39762 1.66667 10C1.66667 14.6024 5.39762 18.3333 10 18.3333Z" stroke="var(--stroke-0, #1D2129)" stroke-linecap="round" stroke-linejoin="round"/>
<path id="Vector_2" d="M1.66667 10H18.3333" stroke="var(--stroke-0, #1D2129)" stroke-linecap="round" stroke-linejoin="round"/>
<path id="Vector_3" fill-rule="evenodd" clip-rule="evenodd" d="M10 18.3333C11.841 18.3333 13.3333 14.6024 13.3333 10C13.3333 5.39762 11.841 1.66667 10 1.66667C8.15904 1.66667 6.66667 5.39762 6.66667 10C6.66667 14.6024 8.15904 18.3333 10 18.3333Z" stroke="var(--stroke-0, #1D2129)" stroke-linecap="round" stroke-linejoin="round"/>
<path id="Vector_4" d="M4.10746 4.22587C5.6155 5.73392 7.69883 6.66667 10 6.66667C12.3012 6.66667 14.3845 5.73392 15.8926 4.22587" stroke="var(--stroke-0, #1D2129)" stroke-linecap="round" stroke-linejoin="round"/>
<path id="Vector_5" d="M15.8926 15.7741C14.3845 14.2661 12.3012 13.3333 10 13.3333C7.69883 13.3333 5.6155 14.2661 4.10746 15.7741" stroke="var(--stroke-0, #1D2129)" stroke-linecap="round" stroke-linejoin="round"/>
</g>
</svg>
