<svg width="458" height="346" viewBox="0 0 458 346" fill="none" xmlns="http://www.w3.org/2000/svg">
<mask id="path-1-inside-1_823_2107" fill="white">
<path d="M374.966 0C375.339 0.17932 375.516 0.814682 375.768 1.3114C375.59 3.08912 374.382 4.07016 373.528 5.61829C372.086 8.2261 373.546 13.7899 374.494 16.475C376.188 17.5521 378.566 19.3001 380.463 19.7507C382.732 17.8507 383.2 18.6227 386.059 19.2867C390 17.8504 389.992 17.5364 390.693 13.8622C392.634 14.5767 395.466 15.3493 397.528 15.9657C397.424 18.7969 397.493 21.9519 397.48 24.8105C401.019 30.3802 405.441 34.1841 411.981 36.8974C417.92 36.0679 419.137 34.2453 423.295 30.3687C426.127 29.8974 428.947 29.3702 431.823 29.1528L434.396 24.6414L438.389 22.7183L442.292 24.5723C444.241 27.4288 448.074 32.7835 448.295 36.048C448.719 42.3902 446.467 41.6796 449.486 47.5852C448.277 52.3023 447.489 55.6116 449.269 60.3941C451.617 66.6927 450.348 69.3005 445.397 73.8834C444.189 79.8456 444.202 80.1273 446.411 85.6342C446.021 87.4905 445.423 91.2375 444.474 92.7356L443.682 92.8984C442.235 91.9347 441.443 91.2348 440.135 90.1086L435.656 91.1725C430.004 96.2394 430.012 98.0372 427.752 104.747C425.504 106.371 424.806 106.38 422.472 107.608C420.28 108.763 417.742 112.283 416.174 114.266C418.82 118.735 420.986 120.795 424.265 124.818C424.676 125.322 424.733 126.602 424.78 127.285L424.802 127.615C425.75 128.426 428.839 128.58 430.346 128.766C431.277 133.019 432.161 137.641 432.126 141.978C429.679 145.223 428.748 145.847 425.408 148.281C423.36 147.063 421.016 145.214 419.076 143.771C417.244 143.991 415.407 144.188 413.567 144.363C411.856 145.895 410.275 147.472 408.646 149.071C412.8 151.729 415.654 154.663 420.596 155.933C422.086 161.869 420.414 167.064 423.364 173.073C425.854 178.139 426.725 179.209 431.446 182.842C436.7 180.197 437.077 179.497 441.1 175.396L444.951 182.29C446.744 182.759 447.861 182.867 448.879 184.31C451.387 187.862 448.944 194.167 447.693 198.017L453.063 202.199C454.861 201.355 455.731 200.576 457.564 201.564C458.261 204.184 453.648 208.18 451.781 209.938C445.293 210.418 446.835 211.108 439.983 208.894C439.805 209.069 438.276 210.609 438.272 210.613C435.409 212.706 435.383 215.879 433.192 217.929C430.952 218.984 428.068 217.821 425.569 217.159L423.347 219.82C421.549 222.009 404.826 236.668 402.691 237.799C397.086 232.472 396.917 232.196 389.32 229.254C390.927 235.011 391.395 241.394 393.379 247.021C383.187 255.418 389.732 252.16 375.023 250.793C373.009 248.946 372.532 248.518 371.003 246.286C373.03 242.083 372.892 241.412 372.805 236.792C372.099 235.814 371.142 234.742 370.341 233.796L366.767 236.654L363.909 234.448L363.657 229.509C362.414 227.96 361.591 226.941 360.127 225.508C358.035 225.643 355.775 225.904 353.674 226.109L351.049 230.182C348.784 229.588 346.484 229.22 344.171 228.803C342.919 233.797 342.365 235.586 342.478 240.71C340.204 244.209 340.524 244.845 335.76 244.791L331.857 247.558L322.978 244.872C321.246 249.099 320.419 250.396 317.928 254.303C316.356 253.861 314.294 253.055 312.722 252.488C311.583 245.379 311.522 244.04 306.888 238.202C302.374 246.633 297.03 253.791 292.287 262.302C293.023 264.487 293.586 266.947 294.162 269.195L298.017 272.711C296.376 276.129 295.791 276.698 292.902 279.19C292.3 279.351 291.282 279.551 290.767 279.724C287.371 280.857 278.258 278.852 275.681 281.386C273.112 288.807 268.85 283.318 265.442 286.193C264.684 287.903 264.909 289.427 264.944 291.291C262.652 294.62 261.219 295.604 257.966 298.179C256.195 298.416 254.276 298.761 252.496 299.048C251.006 300.434 249.65 301.876 248.251 303.33C245.483 302.917 243.855 302.497 241.174 301.806C240.706 303.581 240.134 305.363 239.593 307.126C233.681 304.925 232.386 305.208 226.369 304.297L228.492 311.244C225.551 312.018 219.665 314.871 216.182 316.201C213.367 319.771 211.591 320.846 207.797 323.618C207.316 330.013 206.502 338.956 201.958 344.092C201.322 344.2 198.316 344.718 197.644 344.62C195.31 344.589 182.182 340.191 181.428 339.094C176.101 331.349 174.762 335.905 169.885 334.31C163.111 328.906 174.745 319.543 172.532 314.468C170.799 310.493 164.852 308.566 160.768 306.964C157.572 309.13 154.839 311.06 151.776 313.381C148.147 322.315 146.93 323.481 147.116 332.854C146.527 333.651 144.942 335.846 144.656 336.56C143.772 338.756 144.595 339.754 142.663 341.527C140.753 341.964 138.471 341.311 136.439 340.932C135.175 341.847 133.906 343.011 132.732 344.033C124.546 345.201 121.224 345.344 112.921 345.286C109.014 343.147 108.641 342.862 106.341 339.4C104.839 335.815 106.138 330.47 108.065 327.122C114.194 324.877 121.488 322.53 122.87 315.944C123.541 312.751 121.029 306.601 118.997 303.965C117.559 303.482 113.336 303.587 111.149 303.367C107.039 306.012 103.886 309.551 100.169 312.7C98.4586 312.77 97.2848 313.04 95.6043 313.355C89.0597 311.269 87.2319 310.142 80.2413 310.282C79.0372 312.278 78.145 313.829 77.1141 315.901L77.5819 316.276C79.2667 317.644 80.3756 318.181 80.4708 320.096C79.7389 321.228 78.552 321.527 77.1704 322.121L71.9252 320.543L69.6686 316.59C67.3471 316.24 65.0298 315.846 62.7256 315.409C61.998 313.658 61.2184 308.141 60.4301 307.509C54.3923 302.66 44.53 297.546 39.2545 292.296C41.693 289.242 46.8905 283.108 48.4844 280.006C47.3106 277.947 46.1586 275.643 45.0498 273.536C34.815 277.599 31.6878 275.057 22.0074 277.952C19.5992 278.672 18.9149 280.432 18.0616 282.38L14.8825 280.312C14.6096 278.361 14.3628 276.406 14.1462 274.45L10.0705 270.848C9.81926 269.074 9.55935 267.302 9.28215 265.531L4.02835 260.843C7.32444 257.136 7.57997 256.906 8.48088 252.299C5.59192 249.267 -1.87515 241.867 0.437745 237.724C1.34731 237.677 0.818892 237.623 1.62451 237.868C13.1413 241.358 27.3565 243.703 39.4364 242.97C50.754 242.282 59.0744 239.753 70.2577 243.251C78.0713 245.744 83.8838 251.089 91.2037 254.62C104.496 261.032 110.612 262.825 125.143 259.291L127.721 264.608C131.186 264.302 134.867 264.043 138.28 263.505C158.46 245.438 182.654 245.058 209.378 245.974C212.371 246.076 217.616 246.742 219.998 245.446C221.401 243.126 219.721 245.382 219.946 243.261C221.722 241.643 224.303 240.563 226.573 239.435C229.57 234.299 237.392 224.605 242.759 221.078C244.981 219.619 253.154 219.47 254.172 215.084C254.64 213.086 254.964 207.161 253.899 205.51C252.578 206.074 252.197 206.307 250.711 206.493C245.132 202.872 250.174 191.317 253.189 187.152C261.466 186.686 262.28 188.545 270.089 190.583C272.701 191.264 276.863 192.054 279.635 192.63C283.46 191.258 288.891 189.141 292.711 188.109L297.025 179.855C298.831 178.971 302.847 177.064 304.765 176.734C324.148 173.406 322.303 168.39 326.712 153.187C338.917 152.126 343.898 147.224 354.176 141.237C361.639 141.016 368.764 141.091 376.214 141.142C380.238 141.17 382.659 137.575 381.723 134.637C379.761 128.451 370.306 125.249 364.814 121.944C361.21 119.548 360.171 116.504 355.294 113.901C349.104 114.003 345.609 114.369 339.515 115.368C338.038 117.604 336.986 119.426 334.946 121.299C329.679 120.497 323.935 119.972 318.747 118.999C318.175 119.233 314.866 120.673 314.584 120.763C311.778 121.658 311.895 123.737 310.314 124.563C304.934 118.253 313.592 97.3419 314.467 89.5907C314.883 85.8988 314.9 82.179 315.043 78.5C327.73 78.614 326.261 80.5371 336.431 86.4393C340.927 82.091 345.029 77.3097 349.655 72.9973C350.811 71.3402 354.778 69.711 355.749 68.1521C357.507 65.3337 355.606 62.3062 353.869 60.5057C359.465 50.9097 356.19 50.6972 358.763 41.4372C359.625 38.3359 366.464 27.1855 368.573 23.4007C366.962 19.1687 366.832 17.6552 366.157 13.1942C362.25 11.676 361.769 11.3842 357.516 11.9589C364.35 2.9817 361.228 1.28361 374.966 0Z"/>
</mask>
<path d="M374.966 0C375.339 0.17932 375.516 0.814682 375.768 1.3114C375.59 3.08912 374.382 4.07016 373.528 5.61829C372.086 8.2261 373.546 13.7899 374.494 16.475C376.188 17.5521 378.566 19.3001 380.463 19.7507C382.732 17.8507 383.2 18.6227 386.059 19.2867C390 17.8504 389.992 17.5364 390.693 13.8622C392.634 14.5767 395.466 15.3493 397.528 15.9657C397.424 18.7969 397.493 21.9519 397.48 24.8105C401.019 30.3802 405.441 34.1841 411.981 36.8974C417.92 36.0679 419.137 34.2453 423.295 30.3687C426.127 29.8974 428.947 29.3702 431.823 29.1528L434.396 24.6414L438.389 22.7183L442.292 24.5723C444.241 27.4288 448.074 32.7835 448.295 36.048C448.719 42.3902 446.467 41.6796 449.486 47.5852C448.277 52.3023 447.489 55.6116 449.269 60.3941C451.617 66.6927 450.348 69.3005 445.397 73.8834C444.189 79.8456 444.202 80.1273 446.411 85.6342C446.021 87.4905 445.423 91.2375 444.474 92.7356L443.682 92.8984C442.235 91.9347 441.443 91.2348 440.135 90.1086L435.656 91.1725C430.004 96.2394 430.012 98.0372 427.752 104.747C425.504 106.371 424.806 106.38 422.472 107.608C420.28 108.763 417.742 112.283 416.174 114.266C418.82 118.735 420.986 120.795 424.265 124.818C424.676 125.322 424.733 126.602 424.78 127.285L424.802 127.615C425.75 128.426 428.839 128.58 430.346 128.766C431.277 133.019 432.161 137.641 432.126 141.978C429.679 145.223 428.748 145.847 425.408 148.281C423.36 147.063 421.016 145.214 419.076 143.771C417.244 143.991 415.407 144.188 413.567 144.363C411.856 145.895 410.275 147.472 408.646 149.071C412.8 151.729 415.654 154.663 420.596 155.933C422.086 161.869 420.414 167.064 423.364 173.073C425.854 178.139 426.725 179.209 431.446 182.842C436.7 180.197 437.077 179.497 441.1 175.396L444.951 182.29C446.744 182.759 447.861 182.867 448.879 184.31C451.387 187.862 448.944 194.167 447.693 198.017L453.063 202.199C454.861 201.355 455.731 200.576 457.564 201.564C458.261 204.184 453.648 208.18 451.781 209.938C445.293 210.418 446.835 211.108 439.983 208.894C439.805 209.069 438.276 210.609 438.272 210.613C435.409 212.706 435.383 215.879 433.192 217.929C430.952 218.984 428.068 217.821 425.569 217.159L423.347 219.82C421.549 222.009 404.826 236.668 402.691 237.799C397.086 232.472 396.917 232.196 389.32 229.254C390.927 235.011 391.395 241.394 393.379 247.021C383.187 255.418 389.732 252.16 375.023 250.793C373.009 248.946 372.532 248.518 371.003 246.286C373.03 242.083 372.892 241.412 372.805 236.792C372.099 235.814 371.142 234.742 370.341 233.796L366.767 236.654L363.909 234.448L363.657 229.509C362.414 227.96 361.591 226.941 360.127 225.508C358.035 225.643 355.775 225.904 353.674 226.109L351.049 230.182C348.784 229.588 346.484 229.22 344.171 228.803C342.919 233.797 342.365 235.586 342.478 240.71C340.204 244.209 340.524 244.845 335.76 244.791L331.857 247.558L322.978 244.872C321.246 249.099 320.419 250.396 317.928 254.303C316.356 253.861 314.294 253.055 312.722 252.488C311.583 245.379 311.522 244.04 306.888 238.202C302.374 246.633 297.03 253.791 292.287 262.302C293.023 264.487 293.586 266.947 294.162 269.195L298.017 272.711C296.376 276.129 295.791 276.698 292.902 279.19C292.3 279.351 291.282 279.551 290.767 279.724C287.371 280.857 278.258 278.852 275.681 281.386C273.112 288.807 268.85 283.318 265.442 286.193C264.684 287.903 264.909 289.427 264.944 291.291C262.652 294.62 261.219 295.604 257.966 298.179C256.195 298.416 254.276 298.761 252.496 299.048C251.006 300.434 249.65 301.876 248.251 303.33C245.483 302.917 243.855 302.497 241.174 301.806C240.706 303.581 240.134 305.363 239.593 307.126C233.681 304.925 232.386 305.208 226.369 304.297L228.492 311.244C225.551 312.018 219.665 314.871 216.182 316.201C213.367 319.771 211.591 320.846 207.797 323.618C207.316 330.013 206.502 338.956 201.958 344.092C201.322 344.2 198.316 344.718 197.644 344.62C195.31 344.589 182.182 340.191 181.428 339.094C176.101 331.349 174.762 335.905 169.885 334.31C163.111 328.906 174.745 319.543 172.532 314.468C170.799 310.493 164.852 308.566 160.768 306.964C157.572 309.13 154.839 311.06 151.776 313.381C148.147 322.315 146.93 323.481 147.116 332.854C146.527 333.651 144.942 335.846 144.656 336.56C143.772 338.756 144.595 339.754 142.663 341.527C140.753 341.964 138.471 341.311 136.439 340.932C135.175 341.847 133.906 343.011 132.732 344.033C124.546 345.201 121.224 345.344 112.921 345.286C109.014 343.147 108.641 342.862 106.341 339.4C104.839 335.815 106.138 330.47 108.065 327.122C114.194 324.877 121.488 322.53 122.87 315.944C123.541 312.751 121.029 306.601 118.997 303.965C117.559 303.482 113.336 303.587 111.149 303.367C107.039 306.012 103.886 309.551 100.169 312.7C98.4586 312.77 97.2848 313.04 95.6043 313.355C89.0597 311.269 87.2319 310.142 80.2413 310.282C79.0372 312.278 78.145 313.829 77.1141 315.901L77.5819 316.276C79.2667 317.644 80.3756 318.181 80.4708 320.096C79.7389 321.228 78.552 321.527 77.1704 322.121L71.9252 320.543L69.6686 316.59C67.3471 316.24 65.0298 315.846 62.7256 315.409C61.998 313.658 61.2184 308.141 60.4301 307.509C54.3923 302.66 44.53 297.546 39.2545 292.296C41.693 289.242 46.8905 283.108 48.4844 280.006C47.3106 277.947 46.1586 275.643 45.0498 273.536C34.815 277.599 31.6878 275.057 22.0074 277.952C19.5992 278.672 18.9149 280.432 18.0616 282.38L14.8825 280.312C14.6096 278.361 14.3628 276.406 14.1462 274.45L10.0705 270.848C9.81926 269.074 9.55935 267.302 9.28215 265.531L4.02835 260.843C7.32444 257.136 7.57997 256.906 8.48088 252.299C5.59192 249.267 -1.87515 241.867 0.437745 237.724C1.34731 237.677 0.818892 237.623 1.62451 237.868C13.1413 241.358 27.3565 243.703 39.4364 242.97C50.754 242.282 59.0744 239.753 70.2577 243.251C78.0713 245.744 83.8838 251.089 91.2037 254.62C104.496 261.032 110.612 262.825 125.143 259.291L127.721 264.608C131.186 264.302 134.867 264.043 138.28 263.505C158.46 245.438 182.654 245.058 209.378 245.974C212.371 246.076 217.616 246.742 219.998 245.446C221.401 243.126 219.721 245.382 219.946 243.261C221.722 241.643 224.303 240.563 226.573 239.435C229.57 234.299 237.392 224.605 242.759 221.078C244.981 219.619 253.154 219.47 254.172 215.084C254.64 213.086 254.964 207.161 253.899 205.51C252.578 206.074 252.197 206.307 250.711 206.493C245.132 202.872 250.174 191.317 253.189 187.152C261.466 186.686 262.28 188.545 270.089 190.583C272.701 191.264 276.863 192.054 279.635 192.63C283.46 191.258 288.891 189.141 292.711 188.109L297.025 179.855C298.831 178.971 302.847 177.064 304.765 176.734C324.148 173.406 322.303 168.39 326.712 153.187C338.917 152.126 343.898 147.224 354.176 141.237C361.639 141.016 368.764 141.091 376.214 141.142C380.238 141.17 382.659 137.575 381.723 134.637C379.761 128.451 370.306 125.249 364.814 121.944C361.21 119.548 360.171 116.504 355.294 113.901C349.104 114.003 345.609 114.369 339.515 115.368C338.038 117.604 336.986 119.426 334.946 121.299C329.679 120.497 323.935 119.972 318.747 118.999C318.175 119.233 314.866 120.673 314.584 120.763C311.778 121.658 311.895 123.737 310.314 124.563C304.934 118.253 313.592 97.3419 314.467 89.5907C314.883 85.8988 314.9 82.179 315.043 78.5C327.73 78.614 326.261 80.5371 336.431 86.4393C340.927 82.091 345.029 77.3097 349.655 72.9973C350.811 71.3402 354.778 69.711 355.749 68.1521C357.507 65.3337 355.606 62.3062 353.869 60.5057C359.465 50.9097 356.19 50.6972 358.763 41.4372C359.625 38.3359 366.464 27.1855 368.573 23.4007C366.962 19.1687 366.832 17.6552 366.157 13.1942C362.25 11.676 361.769 11.3842 357.516 11.9589C364.35 2.9817 361.228 1.28361 374.966 0Z" fill="url(#paint0_linear_823_2107)" stroke="#0168F0" stroke-width="2" mask="url(#path-1-inside-1_823_2107)"/>
<defs>
<linearGradient id="paint0_linear_823_2107" x1="228.817" y1="0" x2="228.817" y2="345.297" gradientUnits="userSpaceOnUse">
<stop stop-color="#5D9DFF" stop-opacity="0.2"/>
<stop offset="1" stop-color="#5D9DFF" stop-opacity="0"/>
</linearGradient>
</defs>
</svg>
