<svg width="80" height="80" viewBox="0 0 80 80" fill="none" xmlns="http://www.w3.org/2000/svg">
<rect width="80" height="80" rx="12" fill="url(#paint0_linear_840_6989)"/>
<path d="M62.5 20H17.5C16.1193 20 15 21.1193 15 22.5V57.5C15 58.8807 16.1193 60 17.5 60H62.5C63.8807 60 65 58.8807 65 57.5V22.5C65 21.1193 63.8807 20 62.5 20Z" stroke="white" stroke-width="2" stroke-linejoin="round"/>
<path d="M31.25 41.25C34.0114 41.25 36.25 39.0114 36.25 36.25C36.25 33.4886 34.0114 31.25 31.25 31.25C28.4886 31.25 26.25 33.4886 26.25 36.25C26.25 39.0114 28.4886 41.25 31.25 41.25Z" fill="white" stroke="white" stroke-width="2" stroke-linejoin="round"/>
<path d="M38.75 48.75C38.75 44.6079 35.3921 41.25 31.25 41.25C27.1079 41.25 23.75 44.6079 23.75 48.75" stroke="white" stroke-width="2" stroke-linecap="round" stroke-linejoin="round"/>
<path d="M45 35H55" stroke="white" stroke-width="2" stroke-linecap="round" stroke-linejoin="round"/>
<path d="M47.5 45H55" stroke="white" stroke-width="2" stroke-linecap="round" stroke-linejoin="round"/>
<defs>
<linearGradient id="paint0_linear_840_6989" x1="40" y1="0" x2="40" y2="80" gradientUnits="userSpaceOnUse">
<stop stop-color="#0168F0"/>
<stop offset="1" stop-color="#5D9DFF"/>
</linearGradient>
</defs>
</svg>
