<svg preserveAspectRatio="none" width="100%" height="100%" overflow="visible" style="display: block;" viewBox="0 0 28 28" fill="none" xmlns="http://www.w3.org/2000/svg">
<g id="Frame">
<path id="Vector" d="M14 11.6667C16.2552 11.6667 18.0833 9.8385 18.0833 7.58333C18.0833 5.32817 16.2552 3.5 14 3.5C11.7448 3.5 9.91667 5.32817 9.91667 7.58333C9.91667 9.8385 11.7448 11.6667 14 11.6667Z" stroke="var(--stroke-0, white)" stroke-width="2" stroke-linecap="round" stroke-linejoin="round"/>
<path id="Vector_2" d="M3.5 23.8V24.5H24.5V23.8C24.5 21.1864 24.5 19.8797 23.9914 18.8814C23.544 18.0033 22.83 17.2894 21.9519 16.8419C20.9537 16.3333 19.6469 16.3333 17.0333 16.3333H10.9667C8.3531 16.3333 7.04632 16.3333 6.04806 16.8419C5.16996 17.2894 4.45604 18.0033 4.00864 18.8814C3.5 19.8797 3.5 21.1864 3.5 23.8Z" stroke="var(--stroke-0, white)" stroke-width="2" stroke-linecap="round" stroke-linejoin="round"/>
</g>
</svg>
