<svg width="50" height="50" viewBox="0 0 50 50" fill="none" xmlns="http://www.w3.org/2000/svg">
<path d="M25 50C21.5309 50 18.2805 49.3439 15.2489 48.0317C12.2172 46.7195 9.57391 44.9359 7.319 42.681C5.0641 40.4261 3.28054 37.7828 1.96832 34.7511C0.656108 31.7195 0 28.4691 0 25C0 21.5309 0.656108 18.2805 1.96832 15.2489C3.28054 12.2172 5.0641 9.57391 7.319 7.319C9.57391 5.0641 12.2172 3.28054 15.2489 1.96832C18.2805 0.656108 21.5309 0 25 0C28.6991 0 32.2134 0.777712 35.543 2.33314C38.0444 3.50172 40.2799 5.02628 42.2493 6.9068C42.9228 7.54989 44.1176 7.09568 44.1176 6.16447V2.92301C44.1176 2.37073 44.5653 1.92301 45.1176 1.92301H47.5293C48.0816 1.92301 48.5293 2.37073 48.5293 2.92301V15.855C48.5293 16.4073 48.0816 16.855 47.5293 16.855H34.5973C34.045 16.855 33.5973 16.4073 33.5973 15.855V13.4433C33.5973 12.891 34.045 12.4433 34.5973 12.4433H39.1903C40.0321 12.4433 40.4831 11.4775 39.8965 10.8738C38.1796 9.1067 36.225 7.66628 34.0328 6.55251C31.2236 5.12529 28.2127 4.41168 25 4.41168C19.2647 4.41168 14.3995 6.40923 10.4043 10.4043C6.40923 14.3995 4.41168 19.2647 4.41168 25C4.41168 30.7353 6.40923 35.6005 10.4043 39.5956C14.3995 43.5908 19.2647 45.5883 25 45.5883C30.1471 45.5883 34.6352 43.9169 38.4644 40.5742C42.0772 37.4204 44.3162 33.4937 45.1817 28.7943C45.2716 28.3061 45.6905 27.9412 46.1869 27.9412H48.7049C49.3018 27.9412 49.7673 28.4613 49.6765 29.0513C48.779 34.8789 46.104 39.7653 41.6516 43.7104C36.9193 47.9035 31.3688 50 25 50ZM33.7444 36.8439L23.0871 26.1865C22.8995 25.999 22.7942 25.7446 22.7942 25.4794V11.2941C22.7942 10.7418 23.2419 10.2941 23.7942 10.2941H26.2058C26.7581 10.2941 27.2058 10.7418 27.2058 11.2941V23.6921C27.2058 23.9574 27.3112 24.2117 27.4987 24.3992L36.1368 33.0373C36.5273 33.4278 36.5273 34.061 36.1368 34.4515L33.7444 36.8439Z" fill="url(#paint0_linear_870_859)"/>
<defs>
<linearGradient id="paint0_linear_870_859" x1="24.9123" y1="0" x2="24.9123" y2="50" gradientUnits="userSpaceOnUse">
<stop stop-color="#0168F0"/>
<stop offset="1" stop-color="#5D9DFF"/>
</linearGradient>
</defs>
</svg>
