<svg width="50" height="50" viewBox="0 0 50 50" fill="none" xmlns="http://www.w3.org/2000/svg">
<path d="M46.9881 49.5981L39.7508 42.3609C39.4016 42.0117 38.8511 41.9717 38.4424 42.2491C36.7231 43.4162 34.8653 44.3366 32.8692 45.0102C30.5986 45.7764 28.1847 46.1595 25.6275 46.1595C22.4348 46.1595 19.4344 45.5537 16.6264 44.342C13.8184 43.1303 11.3758 41.4859 9.29857 39.4087C7.2214 37.3315 5.57696 34.8889 4.36528 32.0809C3.15359 29.2728 2.54774 26.2724 2.54774 23.0797C2.54774 20.5226 2.93085 18.1087 3.69707 15.8381C4.37069 13.8419 5.29105 11.9841 6.45816 10.2648C6.73554 9.85618 6.6956 9.30564 6.34638 8.95642L0.292801 2.90284C-0.0977237 2.51232 -0.0977242 1.87915 0.2928 1.48863L1.47617 0.305251C1.8667 -0.0852734 2.49986 -0.085273 2.89039 0.305251L48.8786 46.2934C49.2691 46.684 49.2691 47.3171 48.8786 47.7077L46.9881 49.5981ZM23.198 42.3939V38.6565C23.198 38.1042 22.7458 37.6691 22.2041 37.5618C21.2855 37.3799 20.4729 36.9357 19.7664 36.2292C18.8149 35.2776 18.3391 34.1338 18.3391 32.7976V30.7823C18.3391 30.5171 18.2338 30.2628 18.0462 30.0752L8.05178 20.0808C7.47664 19.5056 6.49566 19.8218 6.3811 20.6271C6.36848 20.7158 6.356 20.8045 6.34368 20.8932C6.24246 21.6221 6.19184 22.3509 6.19184 23.0797C6.19184 27.9791 7.80136 32.2712 11.0204 35.9559C14.2394 39.6405 18.2986 41.7866 23.198 42.3939ZM45.0257 35.5634L42.9102 33.4479C42.5901 33.1277 42.5273 32.6335 42.7394 32.2335C43.4264 30.9386 43.9681 29.5891 44.3647 28.1852C44.8303 26.5368 45.0632 24.8375 45.0632 23.0873C45.0632 19.0986 43.9637 15.4604 41.7647 12.1729C39.7549 9.16812 37.118 6.92767 33.8541 5.45152C33.4085 5.24999 32.9159 5.58449 32.9159 6.07354C32.9159 7.40974 32.4401 8.55361 31.4886 9.50515C30.537 10.4567 29.3932 10.9325 28.057 10.9325H24.0191C23.5656 10.9325 23.198 11.3 23.198 11.7535C23.198 12.485 22.3137 12.8513 21.7964 12.3341L14.0239 4.56152C13.572 4.10963 13.6539 3.35469 14.2096 3.03917C15.7208 2.18121 17.3209 1.49129 19.01 0.969423C21.1017 0.323129 23.3076 -1.77324e-05 25.6275 -1.77324e-05C28.8202 -1.77324e-05 31.8206 0.605827 34.6286 1.81752C37.4366 3.0292 39.8793 4.67364 41.9564 6.75081C44.0336 8.82799 45.678 11.2706 46.8897 14.0786C48.1014 16.8867 48.7073 19.887 48.7073 23.0797C48.7073 25.3997 48.3841 27.6055 47.7378 29.6973C47.0915 31.789 46.1875 33.7444 45.0257 35.5634Z" fill="url(#paint0_linear_870_865)"/>
<defs>
<linearGradient id="paint0_linear_870_865" x1="24.5857" y1="-0.401855" x2="24.5857" y2="49.5981" gradientUnits="userSpaceOnUse">
<stop stop-color="#0168F0"/>
<stop offset="1" stop-color="#5D9DFF"/>
</linearGradient>
</defs>
</svg>
