<svg width="50" height="39" viewBox="0 0 50 39" fill="none" xmlns="http://www.w3.org/2000/svg">
<path d="M21.07 28.2C21.9934 29.1233 23.1825 29.5617 24.6375 29.515C26.0925 29.4683 27.16 28.9433 27.84 27.94L41.95 7.50001L21.46 21.56C20.44 22.24 19.8892 23.2859 19.8075 24.6975C19.7259 26.1092 20.1467 27.2767 21.07 28.2ZM24.7 0C27.1734 0 29.4909 0.324166 31.6525 0.972497C33.8142 1.62083 35.9017 2.60166 37.915 3.91499L34.2501 6.28495C32.7701 5.49827 31.2359 4.9041 29.6476 4.50243C28.0592 4.10076 26.41 3.89992 24.7 3.89992C18.9367 3.89992 14.0291 5.92577 9.97745 9.97745C5.92577 14.0291 3.89992 18.9367 3.89992 24.7C3.89992 26.52 4.14909 28.3184 4.64743 30.0951C5.14576 31.8717 5.84993 33.5401 6.75994 35.1001H42.6401C43.6368 33.4534 44.3626 31.7417 44.8176 29.9651C45.2726 28.1884 45.5001 26.3467 45.5001 24.44C45.5001 22.88 45.3076 21.3008 44.9226 19.7025C44.5376 18.1041 43.9434 16.5866 43.1401 15.1499L45.5101 11.485C46.7934 13.5884 47.7559 15.6925 48.3976 17.7975C49.0392 19.9025 49.3734 22.09 49.4001 24.36C49.4267 26.7134 49.1617 28.9375 48.605 31.0325C48.0484 33.1275 47.21 35.1767 46.09 37.18C45.7467 37.7434 45.2634 38.1875 44.6401 38.5125C44.0168 38.8375 43.3501 39 42.6401 39H6.75994C6.06662 39 5.41246 38.8333 4.79747 38.5C4.18249 38.1667 3.68666 37.6934 3.31 37.08C2.31667 35.3467 1.51667 33.4567 0.910004 31.41C0.303335 29.3634 0 27.1267 0 24.7C0 21.3034 0.645 18.1092 1.935 15.1175C3.225 12.1258 4.98417 9.50751 7.2125 7.26251C9.44084 5.01751 12.0617 3.24584 15.075 1.9475C18.0883 0.649167 21.2967 0 24.7 0Z" fill="url(#paint0_linear_870_853)"/>
<defs>
<linearGradient id="paint0_linear_870_853" x1="24.7009" y1="0" x2="24.7009" y2="39" gradientUnits="userSpaceOnUse">
<stop stop-color="#0168F0"/>
<stop offset="1" stop-color="#5D9DFF"/>
</linearGradient>
</defs>
</svg>
