<svg width="40" height="50" viewBox="0 0 40 50" fill="none" xmlns="http://www.w3.org/2000/svg">
<path d="M19.7969 50C14.088 48.4433 9.36125 45.0829 5.61675 39.9188C1.87225 34.7546 0 28.9814 0 22.599V7.41116L19.7969 0L39.5939 7.41116V22.599C39.5939 28.9814 37.7216 34.7546 33.9771 39.9188C30.2326 45.0829 25.5059 48.4433 19.7969 50ZM19.7969 45.8275C24.3723 44.3757 28.1557 41.4721 31.1472 37.1168C34.1388 32.7615 35.6346 27.9222 35.6346 22.599V10.1268L19.7969 4.21311L3.95931 10.1268V22.599C3.95931 27.9222 5.45509 32.7615 8.44664 37.1168C11.4382 41.4721 15.2216 44.3757 19.7969 45.8275Z" fill="url(#paint0_linear_870_897)"/>
<defs>
<linearGradient id="paint0_linear_870_897" x1="19.7969" y1="0" x2="19.7969" y2="50" gradientUnits="userSpaceOnUse">
<stop stop-color="#0168F0"/>
<stop offset="1" stop-color="#5D9DFF"/>
</linearGradient>
</defs>
</svg>
