<svg width="121" height="103" viewBox="0 0 121 103" fill="none" xmlns="http://www.w3.org/2000/svg">
<path d="M74.7002 0.586914C76.6621 1.12347 77.7998 2.47282 79.4912 3.99121L79.6855 4.16602L79.9404 4.10547C81.4907 3.73727 82.6758 3.48817 84.2275 3.23242C85.4827 3.63426 85.7671 4.3771 86.4893 5.3623C86.858 5.86537 87.3231 6.3858 88.0732 6.8252C88.7243 7.20645 89.5673 7.51434 90.7119 7.71582L91.2217 7.79492C92.4891 7.96985 93.7901 7.68724 94.8311 7L94.835 6.99707C95.5063 6.5441 95.9602 6.07178 96.2705 5.58594C96.5806 5.10036 96.7332 4.62387 96.8311 4.1875C96.8793 3.9724 96.9154 3.76203 96.9482 3.57227C96.9819 3.37801 97.0124 3.20502 97.0518 3.04102C97.097 2.85247 97.1539 2.68755 97.2295 2.53711L97.5293 2.66406C98.057 3.63961 98.1603 4.91673 98.1826 6.18652C98.1938 6.82364 98.1856 7.48251 98.2168 8.02539C98.2471 8.55287 98.3178 9.10413 98.5596 9.5V9.50098C99.7117 11.3861 101.488 13.4539 103.495 15.2725C105.404 17.0025 107.548 18.529 109.596 19.4609C109.571 21.4255 109.431 23.8779 109.496 26.2217C109.565 28.7104 109.867 31.2214 110.831 33.1709C111.243 34.0048 111.771 34.5584 112.382 34.917C112.985 35.2711 113.635 35.4153 114.259 35.4854C114.851 35.5519 115.532 35.5582 116.062 35.5957C116.631 35.6361 117.128 35.7146 117.558 35.9082V35.9072C118.068 36.1381 118.492 36.6053 118.844 37.2822C119.195 37.9584 119.452 38.8026 119.645 39.7178C120.01 41.4526 120.123 43.2822 120.283 44.6016C119.427 45.3763 118.149 46.5069 116.67 47.8193C115.079 49.231 113.263 50.8508 111.513 52.4561C109.764 54.0603 108.077 55.6546 106.744 57.0146C106.078 57.6945 105.496 58.3208 105.038 58.8633C104.587 59.397 104.231 59.879 104.042 60.2666V60.2676C102.947 62.5226 102.235 64.4846 101.579 66.1338C100.918 67.7966 100.32 69.1264 99.4482 70.2109C97.7397 72.3369 94.8722 73.6459 87.8936 74.2041L87.874 74.2051L87.8545 74.208C87.1548 74.3202 85.9764 74.619 84.8662 74.9941C84.3094 75.1823 83.7589 75.3936 83.2871 75.6152C82.8851 75.8041 82.5052 76.0162 82.2295 76.249L82.1182 76.3496C80.2699 78.1476 78.2223 79.8837 76.126 81.6338C74.0341 83.3802 71.8913 85.1426 69.8779 86.9785C65.8547 90.6472 62.2848 94.6613 60.5645 99.5752C60.5362 99.6558 60.4487 99.7797 60.2246 99.9297C60.0049 100.077 59.696 100.22 59.3018 100.356C58.5136 100.628 57.4697 100.842 56.3291 101.019C55.1931 101.194 53.9855 101.329 52.876 101.45C52.2332 101.52 51.6191 101.587 51.0742 101.653L51.2139 101.429L51.2148 101.427C52.085 100.003 52.7274 99.4269 53.5127 99.1006C53.9228 98.9302 54.3945 98.8192 55.001 98.7129C55.3033 98.6599 55.6319 98.6095 55.999 98.5527C56.3646 98.4962 56.7655 98.4337 57.2051 98.3584L57.4053 98.3242L57.5244 98.1602C58.0207 97.4808 58.5997 96.2126 59.0557 95.1592C59.2853 94.6286 59.4995 94.1166 59.6533 93.7578C59.7324 93.5734 59.7963 93.4282 59.8438 93.3281C59.8513 93.3122 59.8583 93.2983 59.8643 93.2861C60.9348 92.6167 62.1364 91.5964 62.6309 90.3184C62.8931 89.6406 62.9561 88.8904 62.6943 88.1074C62.4353 87.3329 61.873 86.5693 60.9629 85.8252L60.8574 85.7393L60.7236 85.7178C59.2927 85.4937 58.4304 86.2368 57.6611 86.8984C56.9563 87.5047 56.276 88.0954 55.1748 88.3018C54.9815 87.7865 54.8707 87.0869 54.8105 86.3047C54.7416 85.4089 54.739 84.5314 54.709 83.7764C56.2996 80.8966 56.9979 80.201 59.3594 77.7109L59.3682 77.7012L59.377 77.6904C59.5577 77.4776 59.7358 77.1234 59.8945 76.7607C60.0613 76.3797 60.233 75.9272 60.3906 75.4736C60.702 74.5779 60.9774 73.6261 61.0566 73.168C61.7369 69.2953 61.6187 66.5814 60.7314 64.0791C59.8523 61.5999 58.2303 59.3713 56.0205 56.4629L55.9404 56.3584L55.8203 56.3057L54.707 55.8115C53.6482 55.3429 52.6908 54.9753 51.2666 54.9082L51.1318 54.9014L51.0117 54.9639C50.2843 55.3434 49.6543 55.8686 49.1143 56.2539C48.5501 56.6564 48.0353 56.9491 47.4199 57.0332C44.0899 57.4893 41.589 58.5664 39.5986 60.0439C37.613 61.5179 36.1604 63.3728 34.9014 65.3457C34.2722 66.3316 33.688 67.3527 33.1113 68.3721C32.5328 69.3948 31.962 70.4143 31.3525 71.4141C30.1349 73.4112 28.7777 75.3002 26.9551 76.8848H26.9541C26.8778 76.9511 26.7226 77.0264 26.4424 77.0723C26.1692 77.1169 25.8229 77.1266 25.4131 77.1016C24.5933 77.0515 23.5896 76.8685 22.5518 76.627C20.6421 76.1825 18.7273 75.5712 17.6924 75.2715C15.9431 69.659 11.5104 67.8728 7.61523 66.9678C6.62795 66.7384 5.66484 66.5624 4.79004 66.3975C3.90789 66.2311 3.122 66.0766 2.45898 65.8867C1.79026 65.6952 1.29664 65.4813 0.97168 65.2227C0.723809 65.0253 0.577506 64.8045 0.523438 64.5264C0.923048 64.1132 1.28008 63.7498 1.5498 63.3555C1.83339 62.9408 2.02344 62.496 2.13086 61.9141L2.17188 61.6562C2.46909 59.4569 3.77164 57.2845 5.5127 55.2432C7.24842 53.2081 9.37559 51.353 11.249 49.7832L11.5078 49.5664L11.4033 49.2461C9.69221 43.9899 9.05565 41.2319 8.27539 35.9434C9.63154 36.7345 10.6902 37.6874 11.8486 38.7285C13.238 39.9772 14.7547 41.3347 17.0439 42.5693L17.248 42.6787L17.4629 42.5947C21.0774 41.1895 23.2635 39.5137 25.208 37.627C27.1712 35.7221 28.7796 33.7278 31.4131 31.4971C35.7941 27.7864 37.8582 26.9487 41.1914 22.3291C45.4515 23.5914 47.1363 23.382 51.6885 23.3545L52.2178 23.3516L52.1836 22.8223L51.8926 18.2549C53.0641 16.766 54.1295 15.5627 55.4033 14.1562C58.1476 14.8293 59.8218 15.0974 61.5322 15.0957C63.2816 15.0939 65.0622 14.8091 68.0371 14.4346L68.2139 14.4131L68.3369 14.2832C69.3512 13.2167 70.1559 12.4296 70.8398 11.7627C71.5214 11.0981 72.094 10.5428 72.627 9.95312C73.706 8.75919 74.6113 7.43856 76.0312 4.75684L76.1826 4.4707L75.9824 4.21484C75.5683 3.68607 75.2751 3.34287 75.0107 2.99707C74.7602 2.66934 74.6092 2.42942 74.5254 2.2041C74.3934 1.8488 74.3943 1.43909 74.7002 0.586914Z" fill="url(#paint0_linear_823_2118)" stroke="#0168F0"/>
<defs>
<linearGradient id="paint0_linear_823_2118" x1="60.406" y1="0" x2="60.406" y2="102.289" gradientUnits="userSpaceOnUse">
<stop stop-color="#5D9DFF" stop-opacity="0.2"/>
<stop offset="1" stop-color="#5D9DFF" stop-opacity="0"/>
</linearGradient>
</defs>
</svg>
