<svg preserveAspectRatio="none" width="100%" height="100%" overflow="visible" style="display: block;" viewBox="0 0 32 32" fill="none" xmlns="http://www.w3.org/2000/svg">
<g id="&#230;&#144;&#156;&#231;&#180;&#162;-24">
<path id="Union" d="M15.2158 4.01367C20.8517 4.29948 25.333 8.96013 25.333 14.667L25.3193 15.2158C25.1946 17.6762 24.235 19.9156 22.7197 21.6592L27.1973 26.1367C27.4898 26.4296 27.4901 26.9045 27.1973 27.1973C26.9045 27.4901 26.4296 27.4898 26.1367 27.1973L21.6602 22.7207C19.7878 24.3479 17.3424 25.3329 14.667 25.333L14.1182 25.3193C8.66392 25.0431 4.29026 20.67 4.01367 15.2158L4 14.667C4 8.77595 8.77595 4 14.667 4L15.2158 4.01367ZM14.667 5.5C9.60438 5.5 5.5 9.60438 5.5 14.667C5.50018 19.7295 9.60449 23.833 14.667 23.833C19.7293 23.8328 23.8328 19.7293 23.833 14.667C23.833 9.60449 19.7295 5.50018 14.667 5.5Z" fill="var(--fill-0, #333333)"/>
</g>
</svg>
